<?xml version="1.0" encoding="utf-8"?>
<!-- Generator: Adobe Illustrator 27.5.0, SVG Export Plug-In . SVG Version: 6.00 Build 0)  -->
<svg version="1.1" id="Layer_1" xmlns="http://www.w3.org/2000/svg" xmlns:xlink="http://www.w3.org/1999/xlink" x="0px" y="0px"
	 viewBox="0 0 4000 4000" style="enable-background:new 0 0 4000 4000;" xml:space="preserve">
<g>
	<g>
		<rect transform="matrix(-1 -1.224647e-16 1.224647e-16 -1 4000 4000)" style="fill:black;" width="4000" height="4000"/>
	</g>
	<g>
		<g>
			<path style="fill:#FFFFFF;" d="M1831.714,2697.476l101.687,121.107l40.904,48.741
				c150.963-97.406,204.635-217.633,201.424-324.136c-1.529-51.57-16.361-99.929-39.948-140.948
				c-76.495-133.187-216.677-198.442-276.389-89.109c-64.338,117.857,20.682,174.55,45.147,211.057
				C1938.944,2575.49,1922.201,2668.27,1831.714,2697.476z"/>
		</g>
		<g style="opacity:0.35;">
			<path style="fill:#371A45;" d="M1933.401,2818.583l40.904,48.741c150.963-97.406,204.635-217.633,201.424-324.136
				C2151.57,2620.294,2086.467,2768.046,1933.401,2818.583z"/>
		</g>
		<g>
			<path style="fill:#371A45;" d="M1974.319,2882.615c-5.022,0-9.939-2.471-12.864-7.004c-4.578-7.095-2.537-16.56,4.561-21.138
				c221.848-143.12,222.966-328.96,156.514-444.617c-46.323-80.625-118.901-136.643-176.858-136.643
				c-0.327,0-0.645,0.002-0.969,0.007c-30.764,0.332-54.949,16.228-71.887,47.246c-48.013,87.927-5.234,136.799,26.001,172.485
				c6.997,7.993,13.604,15.542,18.423,22.729c20.244,30.195,24.768,72.153,11.807,109.497
				c-14.353,41.357-47.249,72.195-92.625,86.834c-8.042,2.6-16.653-1.822-19.248-9.858c-2.593-8.037,1.821-16.656,9.858-19.248
				c36.023-11.621,61.992-35.684,73.123-67.754c9.878-28.464,6.692-60.054-8.315-82.439c-3.726-5.557-9.429-12.073-16.033-19.617
				c-32.942-37.634-88.076-100.623-29.832-207.288c22.317-40.869,56.343-62.712,98.396-63.169
				c69.702-0.71,152.009,60.32,204.678,151.982c41.489,72.209,52.822,156.367,31.909,236.968
				c-24.587,94.768-93.181,180.725-198.364,248.582C1980.029,2881.823,1977.158,2882.615,1974.319,2882.615z"/>
		</g>
		<g>
			<path style="fill:#371A45;" d="M2056.04,2677.109c-2.522,0-5.037-0.037-7.561-0.112c-57.529-1.733-107.3-22.681-140.142-58.987
				c-4.685-5.178-4.285-13.174,0.894-17.859c5.178-4.688,13.174-4.287,17.861,0.896c38.025,42.034,92.852,49.79,122.148,50.671
				c49.438,1.514,91.824-13.091,106.597-27.566c4.988-4.89,12.993-4.807,17.881,0.181c4.888,4.99,4.807,12.996-0.181,17.881
				C2152.17,2663.149,2104.631,2677.109,2056.04,2677.109z"/>
		</g>
		<g>
			<path style="fill:#FFFFFF;" d="M1231.003,2806.175c-50.979,73.522-32.524,336.648,31.315,475.912
				c63.839,139.264,322.867,65.051,467.382,11.735c144.515-53.317,34.054-383.431,2.685-471.27
				C1683.402,2685.39,1306.543,2697.23,1231.003,2806.175z"/>
		</g>
		<g style="opacity:0.35;">
			<path style="fill:#371A45;" d="M1729.704,3293.821c-144.514,53.317-403.537,127.509-467.403-11.74
				c-8.344-18.243-15.935-38.585-22.662-60.371c50.898,18.287,97.711-28.653,91.58-69.686
				c-37.849-253.323,20.715-374.875,53.372-420.674c137.545-25.33,315.224-0.056,347.782,91.215
				C1763.765,2910.384,1874.219,3240.505,1729.704,3293.821z"/>
		</g>
		<g>
			<path style="fill:#371A45;" d="M1425.85,3377.378c-81.201,0-147.585-23.809-177.432-88.918
				c-67.515-147.28-83.765-413.428-29.98-490.999l0,0c51.582-74.392,218.594-102.556,343.745-85.989
				c99.343,13.152,164.902,50.774,184.602,105.935c57.324,160.513,132.014,437.705-11.792,490.759
				C1634.795,3345.134,1520.303,3377.378,1425.85,3377.378z M1243.569,2814.887c-47.227,68.11-28.918,326.519,32.651,460.828
				c57.688,125.854,305.566,56.375,448.186,3.76c127.014-46.858,27.197-357.644-6.421-451.782
				c-15.425-43.188-73.677-74.497-159.817-85.903C1427.129,2724.424,1283.071,2757.915,1243.569,2814.887L1243.569,2814.887z"/>
		</g>
		<g>
			<path style="fill:#FFFFFF;" d="M1326.061,3043.847l-73.433-4.261c-16.598-0.963-30.325,12.821-29.201,29.408
				c3.87,57.069,19.147,172.942,79.432,177.635c73.059,5.687,71.166-75.777,48.624-181.062
				C1348.886,3053.438,1338.445,3044.566,1326.061,3043.847z"/>
		</g>
		<g style="opacity:0.35;">
			<path style="fill:#371A45;" d="M1351.297,3065.448c22.792,105.228,24.871,186.712-48.203,181.168
				c-30.004-2.236-48.93-32.101-60.831-68.543c8.808,8.632,19.151,14.144,31.365,15.052c65.414,4.932,70.625-59.868,54.567-149.05
				C1339.552,3045.59,1348.875,3054.102,1351.297,3065.448z"/>
		</g>
		<g>
			<path style="fill:#371A45;" d="M1309.9,3259.531c-2.52,0-5.103-0.1-7.749-0.3c-68.435-5.168-86.699-120.745-91.494-189.177
				c-0.808-11.501,3.376-22.813,11.479-31.03c8.123-8.24,19.363-12.607,30.969-11.953l73.442,4.094
				c18.049,1.006,33.315,14.006,37.126,31.611c20.745,95.83,19.165,148.694-5.283,176.768
				C1346.824,3252.824,1330.535,3259.531,1309.9,3259.531z M1250.823,3052.295c-4.045,0-7.81,1.572-10.679,4.482
				c-3.052,3.096-4.565,7.183-4.263,11.509c7.085,101.084,32.571,163.04,68.174,165.73c16.172,1.201,27.708-2.405,35.266-11.082
				c26.55-30.486,6.294-124.058-0.364-154.807c-1.411-6.521-7.092-11.338-13.816-11.714l-73.442-4.094
				C1251.406,3052.302,1251.113,3052.295,1250.823,3052.295z"/>
		</g>
		<g>
			<path style="fill:#371A45;" d="M1220.614,2815.732c9.107,0.943,17.857,2.062,26.732,3.264c8.839,1.209,17.651,2.534,26.434,3.968
				c17.556,2.898,35.044,6.27,52.154,10.64c-17.642,0.661-35.089,2.367-52.463,4.53c-8.685,1.097-17.346,2.303-25.978,3.622
				c-8.596,1.323-17.317,2.738-25.67,4.298c-8.325,1.555-16.334-3.933-17.889-12.257c-1.555-8.325,3.933-16.334,12.258-17.889
				c1.462-0.273,2.914-0.329,4.323-0.19L1220.614,2815.732z"/>
		</g>
		<g>
			<path style="fill:#FFFFFF;" d="M1881.902,2731.818l-35.552-106.037C1855.975,2663.185,1868.168,2698.632,1881.902,2731.818z"/>
		</g>
		<g>
			<path style="fill:#FFFFFF;" d="M2276.319,3417.901c0,0-71.5-49.78-149.714-82.749c-51.281-21.632-105.44-36.026-144.233-24.439
				c0,0-306.323,199.419-483.055-187.306c-56.059-122.666-71.861-215.79-61.568-286.41c1.443-9.93,3.407-19.376,5.851-28.432
				c2.545-9.565,5.667-18.634,9.258-27.257c9.856-23.762,23.37-44.067,39.56-61.433c12.299-13.148,26.142-24.609,41.072-34.592
				c138.474-92.35,373.693-57.274,373.693-57.274c2.504,17.555,5.385,34.539,8.616,50.946c6.086,31.155,13.322,60.218,21.368,87.27
				c2.327,7.802,4.692,15.406,7.148,22.851c28.727,87.763,65.403,152.5,95.695,196.007c32.573,46.807,57.769,69.102,57.769,69.102
				c212.525-43.884,258.412,134.453,258.412,134.453s150.642-102.324,152.612,39.314
				C2510.281,3332.737,2361.157,3470.594,2276.319,3417.901z"/>
		</g>
		<g style="opacity:0.35;">
			<path style="fill:#371A45;" d="M2276.319,3417.901c0,0-195.974-136.471-293.947-107.188c0,0-306.323,199.419-483.055-187.306
				c-56.059-122.666-71.861-215.79-61.568-286.41c2.965-20.403,8.107-38.906,15.109-55.689c2.758-6.646,5.781-13.003,9.077-19.102
				c-1.24,5.655-2.305,11.462-3.167,17.427c-10.293,70.62,5.509,163.743,61.568,286.41
				c176.732,386.725,472.594,149.652,472.594,149.652c166.659-54.142,225.3,122.931,294.354,154.62
				c69.054,31.689,174.934-38.901,219.73-120.198C2489.936,3350.922,2355.278,3466.93,2276.319,3417.901z"/>
		</g>
		<g>
			<path style="fill:#371A45;" d="M1958.282,2810.323c10.157,21.33,19.817,42.695,30.782,63.383l8.098,15.547
				c2.723,5.164,5.726,10.177,8.487,15.311c5.46,10.309,11.735,20.135,17.526,30.223c12.223,19.796,25.202,39.05,38.902,57.692
				c6.863,9.307,14.051,18.365,21.459,27.147c3.618,4.477,7.423,8.762,11.218,13.017c3.776,4.132,7.848,8.542,11.392,12.063
				l-10.929-2.909l0.001,0c27.207-5.628,55.353-8.352,83.629-6.536c28.219,1.653,56.638,8.494,82.441,21.256
				c25.937,12.535,48.64,31.358,66.705,53.447c9.055,11.06,16.987,22.967,23.72,35.505c3.425,6.24,6.471,12.681,9.28,19.249
				c1.409,3.283,2.722,6.614,3.953,10.011c1.266,3.48,2.336,6.625,3.477,10.756l-19.349-7.309
				c16.429-10.679,32.875-19.291,50.893-26.455c8.965-3.521,18.257-6.537,28.015-8.639c9.746-2.077,20.005-3.313,30.763-2.516
				c10.67,0.772,22.125,3.928,31.829,10.646c9.774,6.634,16.822,16.36,21.187,26.15c4.47,9.854,6.932,19.98,8.133,29.833
				l0.911,7.411l0.364,7.317c0.379,4.809,0.206,9.884,0.014,14.948c-1.186,20.153-6.86,39.202-14.385,56.991
				c-7.781,17.708-17.669,34.199-28.96,49.541c-11.288,15.353-24.074,29.519-38.165,42.333
				c-14.084,12.811-29.415,24.374-46.164,33.995c-16.859,9.364-35.061,17.228-55.013,20.593c-9.891,1.901-20.309,2.094-30.666,1.19
				c-10.439-0.978-20.691-4.109-30.394-8.658l-7.22-3.927c-0.548-0.271-1.282-0.748-1.802-1.126l-1.359-0.929l-2.763-1.866
				l-11.232-7.382c-7.544-4.872-15.171-9.644-22.851-14.326c-15.382-9.333-30.988-18.295-46.814-26.79
				c-31.656-16.908-64.245-32.168-97.783-43.335c-16.753-5.526-33.772-9.975-50.739-12.33c-16.934-2.458-33.872-2.133-48.871,1.988
				l-0.517,0.142c-6.732,1.85-13.689-2.108-15.539-8.84c-1.849-6.732,2.082-13.682,8.813-15.531
				c20.184-5.594,40.462-5.507,59.495-2.82c19.126,2.659,37.477,7.513,55.295,13.381c35.609,11.869,69.224,27.675,101.789,45.054
				c16.267,8.731,32.256,17.913,48.013,27.475c7.869,4.798,15.682,9.686,23.437,14.694l11.596,7.622l2.896,1.957l1.46,0.998
				c0.401,0.295,0.624,0.431,1.101,0.661l4.8,2.56c6.764,3.097,14.128,5.498,21.871,6.182c7.74,0.619,15.714,0.605,23.731-0.972
				c16.048-2.661,31.866-9.364,46.753-17.641c29.611-17.222,55.913-41.445,76.5-69.377c10.291-13.977,19.218-28.924,26.098-44.573
				c6.635-15.678,11.406-32.11,12.34-48.382c0.131-4.037,0.322-8.065-0.029-12.348l-0.3-6.325l-0.771-6.142
				c-0.962-8.203-2.999-15.961-6.049-22.673c-3.022-6.761-7.197-12.256-12.559-15.894c-5.334-3.679-11.995-5.701-19.423-6.257
				c-14.961-1.065-31.75,3.264-47.612,9.486c-15.851,6.239-31.815,14.656-45.91,23.829l-14.659,9.54l-4.692-16.849
				c-0.656-2.353-1.707-5.601-2.761-8.437c-1.06-2.929-2.214-5.863-3.461-8.762c-2.483-5.801-5.192-11.546-8.248-17.102
				c-5.997-11.176-13.062-21.768-21.06-31.531c-15.984-19.508-35.712-35.856-58.309-46.763
				c-22.478-11.107-47.426-17.209-72.886-18.697c-25.47-1.64-51.398,0.791-76.876,6.067l-0.001,0l-6.075,1.284l-4.856-4.194
				c-5.194-4.485-9.382-8.582-13.729-13.074c-4.253-4.435-8.476-8.876-12.474-13.474c-4.096-4.529-7.923-9.269-11.702-14.022
				c-3.871-4.697-7.485-9.566-11.141-14.409c-14.605-19.379-27.463-39.925-39.386-60.906c-5.72-10.625-11.539-21.195-16.619-32.122
				c-5.38-10.78-10.121-21.85-14.725-32.956c-2.355-5.53-4.507-11.141-6.523-16.803l-6.208-16.896
				c-2.07-5.625-3.591-11.458-5.408-17.164c-1.771-5.725-3.483-11.464-5.1-17.225c-0.945-3.37,1.019-6.868,4.389-7.814
				c3.016-0.846,6.134,0.638,7.434,3.375L1958.282,2810.323z"/>
		</g>
		<g>
			<path style="fill:#FFFFFF;" d="M2236.88,3594.652c-26.445,66.503-119.21,108.3-200.594,70.445
				c-53.783-25.006-86.297-69.893-104.585-107.757c-21.359-44.287-35.987-89.644-75.018-110.283
				c-44.507-23.517-125.72,57.391-276.952-28.654c-47.172-26.805-102.017-84.17-143.193-169.12
				c-13.293-27.389-25.139-57.632-34.842-90.679c-21.001-71.373-31.996-155.732-25.782-252.089
				c2.72-41.796,8.684-85.883,18.481-132.117c4.528-21.473,9.908-43.393,16.173-65.783c8.407-30.068,18.394-60.997,30.153-92.719
				l38.58,77.623l13.116,26.356l9.447,18.963l59.036,118.765l90.236,181.506l105.346,211.868l7.3,14.69
				c11.065-11.22,23.052-21.465,35.757-30.597c38.72-27.778,84.238-45.281,132.006-49.126c1.017-0.092,1.999-0.161,3.01-0.224
				c22.351-1.522,45.508-0.154,67.542,6.276c62.827,18.346,111.97,85.354,124.508,143.156c3.553,16.266,4.201,31.779,1.43,45.292
				c-4.987,24.229-10.021,50.915-10.021,50.915C2135.72,3440.219,2267.079,3518.706,2236.88,3594.652z"/>
		</g>
		<g style="opacity:0.35;">
			<path style="fill:#371A45;" d="M2236.88,3594.652c-26.445,66.503-119.21,108.3-200.594,70.445
				c-53.783-25.006-86.297-69.893-104.585-107.757c-21.359-44.287-35.987-89.644-75.018-110.283
				c-44.507-23.517-125.72,57.391-276.952-28.654c-47.172-26.805-102.017-84.17-143.193-169.12
				c-1.852-3.832-3.693-7.721-5.489-11.688c-1.41-3.099-2.816-6.225-4.181-9.403c-0.787-1.801-1.575-3.601-2.357-5.43
				c-2.516-5.96-4.947-12.051-7.356-18.254c-0.578-1.524-1.151-3.076-1.723-4.628c-0.675-1.778-1.327-3.522-1.95-5.261
				c-0.697-1.958-1.4-3.889-2.069-5.842c-2.087-5.904-4.094-11.911-5.995-18.013c-1.287-4.014-2.508-8.073-3.722-12.16
				c-40.038-136.073-43.745-319.247,39.025-542.707l3.568,7.167c-68.692,234.182-40.734,418.971,17.833,545.423
				c82.468,1.195,165.649-40.391,189.148-53.164l-8.673-23.301c-6.899-18.486-2.99-38.467,8.539-52.913
				c3.766-4.772,8.374-8.907,13.673-12.229c3.024-1.924,6.303-3.505,9.792-4.808l236.719-88.11
				c28.059-10.459,59.553,3.927,69.978,32.009l8.979,24.125c1.58-0.714,3.195-1.303,4.883-1.82
				c25.256-7.727,51.972,6.473,59.671,31.724c7.676,25.07-6.287,51.628-31.255,59.53l4.637,12.429
				c10.431,28.054-4.006,59.508-32.032,69.945l-64.637,24.042l-132.006,49.126l-40.105,14.937c-0.982,0.363-1.958,0.698-2.952,0.97
				c-27.249,8.448-56.902-5.896-66.998-32.973l-7.046-18.926c-72.527,31.84-131.181,44.974-174.192,49.704
				c32.77,46.406,68.841,79.286,101.29,97.737c151.232,86.044,232.444,5.137,276.923,28.648
				c39.059,20.644,53.688,66.001,75.046,110.288c18.289,37.864,50.802,82.751,104.585,107.757
				c63.616,29.601,134.229,10.504,174.625-31.034C2242.22,3572.929,2241.202,3583.825,2236.88,3594.652z"/>
		</g>
		<g>
			<path style="fill:#371A45;" d="M1760.182,3262.125c28.105-38.741,70.526-67.443,117.415-81.883
				c11.721-3.657,23.723-6.587,35.925-8.365c12.186-1.909,24.479-3.08,36.912-3.021c12.427,0.003,24.986,0.963,37.473,3.204
				c6.238,1.131,12.466,2.541,18.605,4.387c6.079,2.263,12.299,4.308,18.199,6.903c23.532,10.739,43.64,26.635,60.607,44.767
				c16.925,18.253,30.758,38.98,41.407,61.401c10.524,22.429,18.037,46.871,18.003,73.478c0.363,6.555-0.962,13.439-1.798,20.178
				l-3.326,17.031l-6.669,33.963l-8.117-16.379c5.257,2.709,9.518,5.248,14.021,7.967c4.438,2.683,8.757,5.473,13.057,8.302
				c8.565,5.694,16.929,11.67,25.087,17.978c16.271,12.658,31.893,26.454,45.734,42.665c13.63,16.192,26.308,34.91,31.68,58.213
				c2.61,11.55,2.885,24.238,0,36.253c-1.411,5.984-3.597,11.902-6.047,16.749l-3.615,7.64c-1.36,2.448-2.902,4.782-4.357,7.171
				c-11.853,18.993-28.078,34.604-46.391,46.446c-18.345,11.848-38.883,20.016-60.23,24.171c-21.34,4.162-43.539,4.228-64.943,0.002
				c-21.421-4.218-41.913-12.797-60.024-23.811c-36.647-22.365-65.3-55.597-85.018-92.446
				c-9.932-18.688-17.333-36.954-25.795-54.386c-8.298-17.362-17.451-33.561-29.343-45.74c-5.829-6.016-12.764-11.206-19.596-14.707
				c-4.839-2.488-12.151-2.975-20.785-1.993c-17.373,2.135-37.213,7.845-57.454,11.25c-20.32,3.575-41.472,5.494-62.559,4.455
				c-21.1-0.893-42.023-4.604-62.111-10.491c-20.117-5.85-39.427-13.82-57.805-23.227c-4.605-2.336-9.08-4.878-13.624-7.313
				c-4.526-2.432-9.067-5.458-13.591-8.174c-4.462-2.862-8.66-6.015-12.994-9.02c-4.235-3.109-8.229-6.466-12.348-9.696
				c-32.021-26.782-58.5-58.749-80.748-93.069c-22.148-34.416-40.327-71.187-54.286-109.415
				c-14.09-38.182-24.412-77.646-31.214-117.63c-13.663-80.047-13.038-161.825-2.562-241.76l4.276-29.948
				c1.531-9.965,3.49-19.849,5.12-29.802c1.575-9.969,3.666-19.824,5.904-29.65l3.365-14.737c1.072-4.926,2.342-9.799,3.821-14.615
				c2.743-9.69,5.707-19.316,8.694-28.924c3.129-9.563,6.745-18.969,10.546-28.295c1.931-4.653,3.698-9.354,5.784-13.944
				c2.163-4.562,4.284-9.13,6.646-13.609c4.551-9.015,9.428-17.888,14.866-26.497c1.525-2.414,4.717-3.135,7.131-1.61
				c1.755,1.108,2.615,3.098,2.368,5.03l-0.013,0.093c-5.209,40.168-15.926,77.679-24.764,115.828
				c-2.549,9.443-4.391,19.037-6.772,28.512c-2.296,9.495-4.716,18.965-6.565,28.55c-1.956,9.562-4.141,19.098-5.739,28.726
				l-4.59,28.92c-10.131,77.335-10.677,156.058,2.401,232.641c6.508,38.254,16.367,75.895,29.754,112.18
				c13.257,36.335,30.497,71.125,51.302,103.46c20.857,32.226,45.69,62,74.612,86.176c3.696,2.88,7.296,5.928,11.058,8.686
				c3.828,2.631,7.563,5.462,11.452,7.951c3.995,2.367,7.696,4.9,11.912,7.162c4.205,2.245,8.358,4.614,12.599,6.765
				c16.942,8.675,34.494,15.887,52.493,21.118c36.036,10.84,73.584,12.175,110.934,5.282c9.39-1.634,18.813-3.695,28.531-5.836
				c9.739-2.108,19.736-4.385,30.84-5.688c5.628-0.541,11.441-1.008,17.878-0.364c6.323,0.627,13.217,1.982,19.625,5.287
				c10.842,5.533,19.873,12.545,27.892,20.71c15.875,16.371,26.171,35.497,34.993,53.788c8.837,18.28,16.447,36.835,25.184,53.189
				c17.65,32.982,42.815,61.84,74.133,80.939c3.995,2.225,7.848,4.725,11.998,6.663l6.138,3.066l6.237,2.483
				c4.144,1.69,8.261,3.468,12.628,4.473c4.32,1.119,8.535,2.711,12.991,3.226c17.515,3.464,35.732,3.427,53.335-0.003
				c35.098-6.739,68.254-27.358,86.668-56.878c1.119-1.849,2.348-3.645,3.4-5.523l2.715-5.829c2.041-4,3.24-7.476,4.124-11.129
				c1.733-7.302,1.641-14.945-0.094-22.724c-3.477-15.626-13.271-31.149-25.13-45.069c-11.935-14.01-26.186-26.685-41.218-38.363
				c-7.54-5.831-15.331-11.4-23.291-16.691c-3.989-2.622-8.005-5.219-12.059-7.668c-3.981-2.421-8.274-4.925-11.839-6.76
				l-10.292-5.299l2.176-11.081l6.73-34.276l3.339-17.095c0.42-4.771,1.558-9.32,1.199-14.398
				c0.378-9.866-1.778-20.233-4.035-30.411c-1.637-5.045-2.952-10.171-4.86-15.16c-2.123-4.922-3.672-10.05-6.243-14.814
				c-9.138-19.483-21.586-37.612-36.362-53.164c-14.737-15.566-32.101-28.475-51.008-36.589
				c-18.563-8.002-39.992-11.258-61.387-11.173c-21.545,0.234-43.315,2.838-64.365,8.475
				c-42.307,11.101-81.725,32.058-118.739,59.29l-0.029,0.021c-2.276,1.674-5.479,1.187-7.153-1.089
				C1758.851,3266.323,1758.913,3263.878,1760.182,3262.125z"/>
		</g>
		<g>
			<path style="fill:#371A45;" d="M1871.382,3469.494c-4.912,0.002-9.585-2.878-11.636-7.683
				c-34.895-81.785,1.597-167.351,53.242-215.872c46.919-44.077,104.814-57.012,151.089-33.762
				c6.24,3.137,8.757,10.737,5.623,16.975c-3.14,6.24-10.737,8.757-16.975,5.623c-37.092-18.64-82.856-7.571-122.422,29.595
				c-43.767,41.121-77.236,117.341-47.295,187.515c2.739,6.423-0.247,13.853-6.667,16.594
				C1874.722,3469.167,1873.037,3469.494,1871.382,3469.494z"/>
		</g>
		<g>
			<path style="fill:#371A45;" d="M2127.57,3437.713c-8.295,10.282-16.814,18.917-26.129,27.375
				c-9.275,8.325-19.153,16.005-29.806,22.505c-10.615,6.496-22.067,11.865-34.147,14.832c-12.029,3.067-24.725,3.294-36.385,0.267
				c12.025,1.127,23.899-1.094,34.59-5.713c10.737-4.544,20.431-11.148,29.23-18.685c8.82-7.534,16.775-16.062,24.069-25.078
				c7.195-8.942,14.109-18.78,19.488-28.218l0.125-0.218c3.149-5.525,10.181-7.452,15.706-4.302
				c5.525,3.149,7.452,10.181,4.302,15.706C2128.313,3436.71,2127.936,3437.253,2127.57,3437.713z"/>
		</g>
		<g>
			<path style="fill:#371A45;" d="M2168.95,3367.392c-4.27,0-8.435-2.163-10.815-6.077
				c-41.494-68.228-54.419-132.437-38.413-190.845c22.947-83.735,96.848-123.923,99.983-125.593
				c6.165-3.276,13.818-0.95,17.104,5.215c3.279,6.157,0.955,13.806-5.195,17.095l0,0c-0.674,0.361-67.668,37.078-87.578,110.242
				c-13.977,51.362-1.963,108.809,35.706,170.747c3.628,5.967,1.733,13.745-4.233,17.373
				C2173.457,3366.797,2171.189,3367.392,2168.95,3367.392z"/>
		</g>
		<g>
			
				<ellipse transform="matrix(0.3384 -0.941 0.941 0.3384 -1484.2998 3870.6116)" style="fill:#FFFFFF;" cx="2010.429" cy="2990.863" rx="47.787" ry="47.787"/>
		</g>
		<g style="opacity:0.35;">
			<path style="fill:#371A45;" d="M2056.114,2976.88c7.72,25.237-6.458,51.971-31.695,59.692
				c-25.237,7.721-51.983-6.494-59.703-31.731c-2.133-6.972-2.604-14.095-1.583-20.88c12.056,13.189,31.093,19.08,49.322,13.503
				c18.229-5.577,30.711-21.11,33.289-38.775C2050.386,2963.74,2053.981,2969.908,2056.114,2976.88z"/>
		</g>
		<g>
			<path style="fill:#371A45;" d="M2010.464,3051.301c-25.872,0-49.871-16.763-57.822-42.759
				c-9.749-31.865,8.247-65.718,40.11-75.469c31.86-9.744,65.715,8.25,75.466,40.112l0,0c9.746,31.863-8.247,65.715-40.11,75.464
				C2022.241,3050.447,2016.304,3051.301,2010.464,3051.301z M2010.408,2955.718c-3.396,0-6.846,0.496-10.259,1.541
				c-18.53,5.669-28.994,25.356-23.325,43.887c5.669,18.53,25.369,28.999,43.887,23.323c18.528-5.669,28.992-25.356,23.323-43.884
				l0,0C2039.409,2965.466,2025.452,2955.718,2010.408,2955.718z"/>
		</g>
		<g>
			<path style="fill:#FFFFFF;" d="M1997.473,3118.796l-236.761,88.116c-28.019,10.438-59.505-3.954-69.954-32.01l-46.884-125.995
				c-9.142-24.563,0.771-51.74,22.209-65.129c3.027-1.919,6.31-3.518,9.802-4.825l236.725-88.105
				c28.055-10.45,59.541,3.943,69.954,32.01l37.158,99.782l9.763,26.2C2039.932,3076.897,2025.492,3108.358,1997.473,3118.796z"/>
		</g>
		<g style="opacity:0.35;">
			<path style="fill:#371A45;" d="M1997.473,3118.796l-236.761,88.116c-28.019,10.438-59.505-3.954-69.954-32.01l-46.884-125.995
				c-9.142-24.563,0.771-51.74,22.209-65.129c16.767,3.925,27.431,6.46,27.431,6.46c49.167,96.844,72.626,173.472,225.672,104.668
				c52.763-23.721,83.086-53.108,100.536-72.266l9.763,26.2C2039.932,3076.897,2025.492,3108.358,1997.473,3118.796z"/>
		</g>
		<g>
			<path style="fill:#371A45;" d="M1741.846,3222.988c-9.517,0-19.016-2.056-27.957-6.145c-16.323-7.468-28.74-20.791-34.966-37.52
				l-46.902-126.008c-6.226-16.726-5.542-34.929,1.926-51.252c7.468-16.321,20.793-28.74,37.52-34.966l236.741-88.115
				c34.653-12.883,73.325,4.802,86.218,39.446l46.902,126.008c12.893,34.648-4.802,73.325-39.448,86.218l-236.738,88.115
				C1757.576,3221.584,1749.705,3222.988,1741.846,3222.988z M1931.548,2900.058c-4.829,0-9.734,0.845-14.519,2.625l-236.738,88.115
				c-10.398,3.87-18.689,11.606-23.345,21.787c-4.658,10.181-5.093,21.511-1.223,31.907l46.902,126.011
				c3.867,10.398,11.606,18.687,21.785,23.345c10.183,4.656,21.514,5.093,31.909,1.221l236.741-88.115
				c21.577-8.03,32.598-32.117,24.568-53.696l-46.902-126.006C1964.475,2910.459,1948.496,2900.058,1931.548,2900.058z"/>
		</g>
		<g>
			<path style="fill:#FFFFFF;" d="M2006.629,3114.327c-2.831,1.779-5.871,3.265-9.156,4.469l-236.761,88.116
				c-20.538,7.634-42.92,1.972-57.534-12.698c-5.321-5.322-9.615-11.831-12.384-19.323l-20.854-55.966l-6.88-18.466l-19.186-51.552
				c-10.449-28.055,3.991-59.516,32.01-69.954l51.164-19.028c-21.926,13.221-32.147,40.69-22.926,65.508l25.31,68.065l21.585,57.966
				c10.438,28.019,41.935,42.448,69.954,32.01L2006.629,3114.327z"/>
		</g>
		<g style="opacity:0.35;">
			<path style="fill:#371A45;" d="M2006.629,3114.327c-2.831,1.779-5.871,3.265-9.156,4.469l-236.761,88.116
				c-28.019,10.438-59.505-3.954-69.918-32.021l-27.734-74.431c10.851,10.937,27.557,23.1,45.307,18.424
				c9.745-2.544,16.473-12.743,21.064-25.386l21.585,57.966c10.438,28.019,41.935,42.448,69.954,32.01L2006.629,3114.327z"/>
		</g>
		<g>
			<path style="fill:#371A45;" d="M1741.846,3222.993c-9.512,0-19.011-2.056-27.952-6.147c-16.333-7.473-28.75-20.803-34.966-37.534
				l-46.895-125.999c-6.233-16.719-5.552-34.922,1.919-51.25c7.468-16.318,20.791-28.738,37.515-34.973l51.147-19.026l10.947,22.673
				c-17.178,10.374-24.57,31.528-17.583,50.298l46.899,126.006c3.862,10.403,11.597,18.694,21.78,23.354s21.504,5.098,31.882,1.223
				l185.693-69.133l11.062,22.605c-3.628,2.244-7.49,4.121-11.479,5.579l-236.692,88.103
				C1757.566,3221.589,1749.702,3222.993,1741.846,3222.993z M1691.057,2986.784l-10.764,4.004
				c-10.393,3.875-18.687,11.616-23.345,21.797s-5.09,21.509-1.216,31.899l46.902,126.018c3.862,10.396,11.597,18.687,21.782,23.347
				c10.178,4.661,21.501,5.093,31.88,1.223l12.246-4.558c-13.572-7.781-23.884-19.895-29.368-34.661l-46.897-125.996
				C1686.975,3015.61,1686.826,3000.508,1691.057,2986.784z"/>
		</g>
		<g>
			<path style="fill:#22A7F0;" d="M1821.304,3054.727c1.707,4.669,8.926,44.762,8.926,44.762s-11.94,4.366-26.602,9.728
				c-18.317,6.698-40.102-6.838-48.657-30.233c-8.555-23.395-0.641-47.791,17.676-54.489c12.362-4.521,26.602-9.728,26.602-9.728
				S1818.522,3047.12,1821.304,3054.727z"/>
		</g>
		<g style="opacity:0.35;">
			<path style="fill:#371A45;" d="M1821.304,3054.727c1.707,4.669,8.926,44.762,8.926,44.762s-11.94,4.366-26.602,9.728
				c-18.317,6.698-40.102-6.838-48.657-30.233c-8.555-23.395-0.641-47.791,17.676-54.489c12.362-4.521,26.602-9.728,26.602-9.728
				S1818.522,3047.12,1821.304,3054.727z"/>
		</g>
		<g>
			<path style="fill:#371A45;" d="M1793.826,3118.537c-7.441,0-15.034-2.261-22.192-6.709c-10.623-6.599-19.07-17.339-23.787-30.239
				c-4.719-12.9-5.19-26.555-1.331-38.452c4.072-12.561,12.427-21.711,23.525-25.769l32.507-11.887l3.218,5.403
				c2.009,3.374,19.722,33.198,22.661,41.238h0.002c1.792,4.905,7.544,36.467,9.265,46.023l1.13,6.279l-32.593,11.917
				C1802.219,3117.81,1798.044,3118.537,1793.826,3118.537z M1795.928,3024.057l-20.676,7.561
				c-6.621,2.422-11.702,8.174-14.304,16.199c-2.817,8.687-2.41,18.831,1.15,28.562c3.557,9.729,9.788,17.742,17.544,22.561
				c7.168,4.456,14.766,5.574,21.382,3.152l20.601-7.534c-3.159-17.249-6.555-34.597-7.451-37.244
				C1812.556,3052.92,1803.164,3036.379,1795.928,3024.057z"/>
		</g>
		<g>
			
				<ellipse transform="matrix(0.9392 -0.3434 0.3434 0.9392 -939.5325 809.1743)" style="fill:#22A7F0;" cx="1814.739" cy="3057.127" rx="35.314" ry="45.105"/>
		</g>
		<g style="opacity:0.35;">
			<path style="fill:#371A45;" d="M1781.577,3069.263c8.541,23.385,30.332,36.932,48.646,30.238
				c18.341-6.703,26.249-31.107,17.673-54.511c-1.144-3.161-2.561-6.151-4.179-8.932c1.164,17.792-6.783,33.68-21.015,38.86
				c-15.818,5.784-34.243-3.512-44.459-21.28C1778.572,3058.762,1779.681,3064.029,1781.577,3069.263z"/>
		</g>
		<g>
			<path style="fill:#FFFFFF;" d="M1781.577,3069.263c0.576,1.594,1.225,3.137,1.947,4.627
				c-3.064-19.661,4.997-37.973,20.473-43.623c17.07-6.225,37.176,5.094,46.707,25.638c-0.552-3.638-1.488-7.276-2.808-10.915
				c-8.541-23.385-30.332-36.932-48.646-30.238C1780.945,3021.474,1773.028,3045.851,1781.577,3069.263z"/>
		</g>
		<g>
			<path style="fill:#371A45;" d="M1820.608,3108.767c-18.87,0-37.974-14.514-46.162-36.907
				c-9.976-27.285-0.02-56.094,22.197-64.219c22.212-8.123,48.408,7.466,58.389,34.754c9.976,27.285,0.02,56.096-22.197,64.219
				C1828.85,3108.071,1824.734,3108.767,1820.608,3108.767z M1809.084,3020.622c-2.454,0-4.883,0.41-7.231,1.27
				c-14.358,5.251-20.259,25.33-13.154,44.758c7.102,19.429,24.551,30.969,38.926,25.713c14.358-5.249,20.259-25.33,13.154-44.758
				C1834.836,3031.352,1821.646,3020.622,1809.084,3020.622z"/>
		</g>
		<g>
			<path style="fill:#371A45;" d="M1923.533,3155.395c-4.194,0-8.115-2.627-9.561-6.814l-22.212-64.292
				c-6.274-18.154-3.049-38.103,8.625-53.359c7.722-10.09,9.709-23.232,5.32-35.156l-33.135-89.978
				c-1.931-5.244,0.754-11.057,5.996-12.988c5.227-1.926,11.055,0.75,12.988,5.996l33.135,89.978
				c6.799,18.467,3.721,38.818-8.24,54.443c-7.539,9.851-9.619,22.734-5.569,34.458l22.212,64.292
				c1.824,5.281-0.977,11.04-6.257,12.864C1925.742,3155.217,1924.626,3155.395,1923.533,3155.395z"/>
		</g>
		<g>
			<path style="fill:#FFFFFF;" d="M1392.82,3111.653c0,0-18.937,24.906-8.566,52.982c11.99,32.461,40.853,39.349,40.853,39.349
				s99.014,26.026,273.597-54.782c0,0,26.684-65.142-39.603-80.639C1659.101,3068.563,1506.091,3159.164,1392.82,3111.653z"/>
		</g>
		<g style="opacity:0.35;">
			<path style="fill:#371A45;" d="M1384.028,3164c-0.006,0.004,0,0-0.006,0.004c11.849,32.996,41.099,39.981,41.099,39.981
				s98.997,26.019,273.587-54.777c0,0,20.385-49.793-18.75-72.671c0.046,0.209,0.091,0.419,0.135,0.629
				c4.477,21.428-7.264,43.063-27.406,51.636c-160.057,68.122-250.286,44.421-250.286,44.421S1393.775,3171.169,1384.028,3164z"/>
		</g>
		<g>
			<path style="fill:#371A45;" d="M1469.504,3220.7c-29.7,0-45.994-4.063-47.612-4.487c-1.167-0.276-35.327-8.828-49.5-47.197
				c-5.066-13.718-5.159-28.882-0.266-43.85c5.313-16.252,22.744-25.378,38.867-20.33c93.474,29.238,212.554-31.262,235.474-43.689
				c7.656-4.155,16.692-4.99,24.775-2.283c36.614,12.281,52.527,43.752,42.573,84.194c-2.297,9.333-8.872,17.249-17.585,21.172
				C1592.163,3211.142,1515.061,3220.7,1469.504,3220.7z M1401.897,3128.738c-2.471,0-4.893,1.712-5.732,4.285
				c-3.149,9.634-3.167,18.794-0.051,27.231c9.36,25.337,31.118,31.221,32.039,31.458c1.05,0.269,94.875,22.854,257.69-50.537
				c1.687-0.759,2.964-2.314,3.418-4.16c6.855-27.849-1.912-46.074-26.055-54.172c-1.443-0.483-3.157-0.295-4.68,0.535
				c-34.417,18.655-154.5,77.058-255.081,45.596l0,0C1402.935,3128.813,1402.415,3128.738,1401.897,3128.738z"/>
		</g>
		<g style="opacity:0.35;">
			<path style="fill:#371A45;" d="M1945.524,3175.283c-0.848-3.474-5.118-20.179-11.71-46.821
				C1940.406,3155.104,1944.642,3171.827,1945.524,3175.283z"/>
		</g>
		<g style="opacity:0.35;">
			<path style="fill:#371A45;" d="M1945.683,3175.975l0.034-0.018c0,0-0.075-0.219-0.175-0.64
				C1945.608,3175.756,1945.683,3175.975,1945.683,3175.975z"/>
		</g>
		<g>
			<path style="fill:#371A45;" d="M2363.916,3197.097c-5.06,3.401-10.357,7.39-15.396,11.336
				c-5.06,4.003-10.071,8.127-14.855,12.484c-9.566,8.722-18.73,18.01-25.685,29.307c3.437-12.861,9.851-25.039,16.829-36.594
				c3.505-5.81,7.286-11.43,11.192-16.995c3.968-5.585,7.893-10.933,12.437-16.465l0.048-0.058
				c4.065-4.949,11.372-5.667,16.322-1.602c4.949,4.065,5.667,11.372,1.602,16.322
				C2365.686,3195.713,2364.813,3196.488,2363.916,3197.097z"/>
		</g>
		<g style="opacity:0.35;">
			<path style="fill:#371A45;" d="M1299.981,3160.604c0.093,1.604-0.097,3.005-0.53,4.299
				C1299.725,3163.518,1299.893,3162.084,1299.981,3160.604z"/>
		</g>
		<g>
			<path style="fill:#848484;" d="M2309.717,3429.054c-5.759-6.78-8.761-17.094-6.817-32.504
				c9.356-74.329,133.42-241.97,202.272-199.997c2.186,8.802,3.472,19.186,3.629,31.401
				C2510.105,3320.019,2395.16,3437.592,2309.717,3429.054z"/>
		</g>
		<g style="opacity:0.35;">
			<path style="fill:#371A45;" d="M2465.882,3338.396c-40.999,54.189-104.086,95.86-156.165,90.658
				c-5.759-6.78-8.761-17.094-6.817-32.504c4.268-33.914,32.414-87.249,68.333-131.232c-12.742,27.651-34.761,97.408-4.89,112.665
				C2396.214,3393.24,2435.776,3355.465,2465.882,3338.396z"/>
		</g>
		<g style="opacity:0.7;">
			<path style="fill:#FFFFFF;" d="M2482.44,3313.704c8.646-20.185,13.509-40.681,13.239-60.024c-0.007-0.576-0.017-1.147-0.03-1.714
				c-0.511-23.34-23.027-40.129-45.456-33.653c-46.46,13.416-100.519,74.973-132.667,132.082
				c36.58-80.58,130.896-188.45,187.646-153.842c2.186,8.802,3.472,19.186,3.629,31.401
				C2509.185,3255.598,2499.095,3285.567,2482.44,3313.704z"/>
		</g>
		<g>
			<path style="fill:#371A45;" d="M2318.657,3439.607c-3.364,0-6.68-0.164-9.946-0.488l-4.063-0.408l-2.642-3.11
				c-8.22-9.68-11.296-23.245-9.143-40.315c7.627-60.601,83.733-173.542,151.111-206.013c25.098-12.092,48.081-12.563,66.462-1.357
				l3.547,2.163l1.003,4.036c2.444,9.832,3.765,21.172,3.928,33.708c0.706,49.815-30.1,109.448-80.393,155.618
				C2399.192,3419.543,2356.113,3439.607,2318.657,3439.607z M2315.281,3419.304c32.629,1.26,73.22-17.41,109.561-50.769
				c45.476-41.746,74.463-96.873,73.845-140.437c-0.12-9.163-0.918-17.485-2.378-24.824c-11.824-5.425-26.45-4.016-43.55,4.224
				c-61.191,29.487-132.932,135.586-139.822,190.315C2311.785,3406.943,2312.573,3414.148,2315.281,3419.304z"/>
		</g>
		<g>
			<path style="fill:#371A45;" d="M2480.364,3247.402c-31.75,0-69.263-9.697-74.927-11.211c-5.396-1.445-8.599-6.987-7.156-12.385
				c1.44-5.396,6.992-8.589,12.383-7.161c27.09,7.234,76.448,15.5,93.55,6.877c4.988-2.51,11.074-0.508,13.586,4.48
				c2.515,4.99,0.508,11.072-4.48,13.586C2504.871,3245.847,2493.076,3247.402,2480.364,3247.402z"/>
		</g>
		<g>
			<path style="fill:#371A45;" d="M2450.911,3298.935c-46.187,0-84.575-20.945-86.746-22.153c-4.883-2.715-6.641-8.875-3.926-13.755
				c2.71-4.878,8.86-6.633,13.745-3.933l0,0c0.642,0.356,64.692,35.12,121.028,10.999c5.132-2.197,11.082,0.183,13.279,5.32
				c2.2,5.134-0.183,11.082-5.32,13.279C2485.498,3296.172,2467.688,3298.935,2450.911,3298.935z"/>
		</g>
		<g>
			<path style="fill:#371A45;" d="M2425.601,3346.46c-65.405,0-92.212-28.547-93.54-30.015c-3.755-4.136-3.445-10.535,0.693-14.287
				c4.111-3.733,10.466-3.447,14.226,0.625c0.601,0.625,34.463,34.795,121.692,19.434c5.491-0.981,10.745,2.7,11.716,8.206
				c0.972,5.5-2.703,10.747-8.206,11.716C2454.866,3345.193,2439.373,3346.46,2425.601,3346.46z"/>
		</g>
		<g>
			<path style="fill:#371A45;" d="M2390.425,3402.485c-52.646,0-83.652-32.063-85.144-33.643c-3.838-4.06-3.657-10.461,0.403-14.299
				c4.058-3.828,10.442-3.657,14.28,0.381c1.531,1.589,35.884,36.467,93.376,25.007c5.5-1.094,10.806,2.461,11.899,7.939
				s-2.461,10.806-7.939,11.899C2407.81,3401.665,2398.84,3402.485,2390.425,3402.485z"/>
		</g>
		<g>
			<g>
				<path style="fill:#FFFFFF;" d="M1133.326,2508.279L1133.326,2508.279c5.159-1.044,8.495-6.074,7.45-11.233l-54.479-269.085
					c-1.045-5.159-6.074-8.495-11.233-7.45h0c-54.127,10.959-89.121,63.721-78.163,117.847l18.578,91.759
					C1026.438,2484.243,1079.2,2519.238,1133.326,2508.279z"/>
				<path style="fill:#371A45;" d="M1113.271,2513.237c-20.024,0-39.612-5.864-56.68-17.185
					c-22.913-15.195-38.535-38.406-43.992-65.352l-18.577-91.76c-5.456-26.948-0.093-54.407,15.105-77.317
					c15.195-22.913,38.406-38.535,65.352-43.992c3.267-0.657,6.592-0.012,9.368,1.831c2.776,1.841,4.668,4.653,5.327,7.917
					l54.48,269.082c0.662,3.264,0.012,6.589-1.829,9.365s-4.651,4.668-7.915,5.33h-0.002
					C1127.036,2512.549,1120.127,2513.237,1113.271,2513.237z M1076.968,2223.257c-0.439,0-0.881,0.044-1.321,0.132
					c-25.41,5.146-47.295,19.878-61.624,41.482c-14.329,21.604-19.387,47.495-14.243,72.903l18.577,91.76
					c10.623,52.454,61.948,86.472,114.385,75.867l0,0c1.729-0.349,3.215-1.35,4.189-2.82c0.972-1.467,1.316-3.225,0.967-4.951
					l-54.48-269.084c-0.349-1.729-1.35-3.213-2.817-4.187C1079.507,2223.633,1078.252,2223.257,1076.968,2223.257z"/>
			</g>
			<g style="opacity:0.35;">
				<path style="fill:#371A45;" d="M997.303,2390.94l8.704,43.038c10.962,54.107,63.722,89.111,117.864,78.17
					c5.159-1.039,8.486-6.095,7.448-11.253l-14.459-71.537c-0.788,3.554-3.596,6.467-7.378,7.263l-6.385,1.274
					C1060.325,2446.564,1018.378,2426.513,997.303,2390.94z"/>
			</g>
			<g>
				<path style="fill:#371A45;" d="M1113.447,2526.631c-54.192,0-102.834-38.147-113.994-93.269l-18.577-91.76
					c-6.167-30.459-0.105-61.494,17.073-87.393c17.178-25.898,43.411-43.557,73.87-49.724c6.775-1.377,13.682-0.024,19.446,3.799
					c5.762,3.823,9.69,9.661,11.06,16.438l54.478,269.08c1.372,6.775,0.024,13.679-3.796,19.441s-9.656,9.69-16.431,11.062h-0.005
					C1128.813,2525.874,1121.072,2526.631,1113.447,2526.631z M1071.677,2238.156c-19.063,5.476-35.391,17.415-46.475,34.126
					c-12.351,18.621-16.709,40.933-12.275,62.83l18.577,91.76c8.696,42.952,49.07,71.572,91.838,66.465L1071.677,2238.156z
					 M1130.081,2492.253c-0.002,0-0.005,0-0.007,0.002C1130.076,2492.253,1130.078,2492.253,1130.081,2492.253L1130.081,2492.253z"
					/>
			</g>
			<g>
				<path style="fill:#FFFFFF;" d="M1963.251,2040.687L1963.251,2040.687c-5.159,1.045-8.495,6.074-7.45,11.233l54.479,269.085
					c1.044,5.159,6.074,8.495,11.233,7.45l0,0c54.127-10.958,89.121-63.72,78.163-117.847l-18.578-91.759
					C2070.139,2064.723,2017.377,2029.728,1963.251,2040.687z"/>
				<path style="fill:#371A45;" d="M2019.595,2331.584c-2.424,0.002-4.797-0.708-6.865-2.08c-2.776-1.841-4.668-4.653-5.327-7.917
					l-54.48-269.084c-0.662-3.264-0.012-6.592,1.829-9.365c1.841-2.776,4.653-4.668,7.917-5.33l0,0
					c55.645-11.272,110.046,24.834,121.309,80.459l18.577,91.758c5.457,26.948,0.093,54.407-15.105,77.319
					c-15.195,22.913-38.406,38.535-65.352,43.989C2021.265,2331.501,2020.427,2331.584,2019.595,2331.584z M1963.835,2043.564
					c-1.729,0.349-3.215,1.35-4.189,2.82c-0.972,1.467-1.316,3.225-0.967,4.951l54.48,269.087c0.349,1.726,1.35,3.213,2.817,4.187
					c1.467,0.972,3.23,1.304,4.954,0.967c25.41-5.144,47.295-19.875,61.624-41.479c14.329-21.606,19.387-47.497,14.243-72.905
					l-18.577-91.758C2067.595,2066.982,2016.292,2032.942,1963.835,2043.564L1963.835,2043.564z"/>
			</g>
			<g style="opacity:0.35;">
				<path style="fill:#371A45;" d="M1995.145,2246.36l15.122,74.647c1.038,5.159,6.095,8.486,11.253,7.448
					c28.406-5.764,51.573-23.034,65.565-45.994c12.635-20.735,17.782-46.135,12.583-71.834l-7.826-38.665
					c-8.497,37.033-37.945,67.597-77.627,75.638l-9.82,1.986C2000.809,2250.304,1997.361,2248.94,1995.145,2246.36z"/>
			</g>
			<g>
				<path style="fill:#371A45;" d="M2019.568,2345.002c-5.034,0-9.961-1.472-14.25-4.319c-5.764-3.823-9.692-9.661-11.064-16.438
					l-54.478-269.082c-1.372-6.775-0.024-13.679,3.799-19.441c3.821-5.762,9.656-9.69,16.433-11.062l0,0
					c62.866-12.734,124.387,28.069,137.117,90.945l18.577,91.758c6.167,30.459,0.105,61.494-17.073,87.393
					c-17.178,25.901-43.411,43.56-73.87,49.724C2023.03,2344.829,2021.292,2345.002,2019.568,2345.002z M1973.235,2055.627
					l51.665,255.181c19.063-5.474,35.391-17.415,46.475-34.126c12.351-18.618,16.709-40.933,12.275-62.83l-18.577-91.758
					C2056.377,2079.143,2016.011,2050.542,1973.235,2055.627z M1966.497,2056.711L1966.497,2056.711L1966.497,2056.711
					L1966.497,2056.711z"/>
			</g>
			<g>
				
					<ellipse transform="matrix(0.7071 -0.7071 0.7071 0.7071 -1154.8435 1760.9498)" style="fill:#FFFFFF;" cx="1548.233" cy="2274.494" rx="467.846" ry="467.846"/>
				<path style="fill:#371A45;" d="M1547.507,2745.488c-80.149,0-159.341-20.667-231.008-61.191
					c-109.46-61.899-188.267-162.72-221.899-283.889s-18.066-248.183,43.831-357.646c61.899-109.46,162.72-188.267,283.889-221.9
					c250.139-69.424,510.12,77.586,579.546,327.72c33.633,121.169,18.066,248.184-43.831,357.646
					c-61.899,109.46-162.72,188.267-283.889,221.899C1632.307,2739.741,1589.775,2745.488,1547.507,2745.488z M1548.95,1809.377
					c-41.741,0-83.745,5.676-125.059,17.143c-119.658,33.213-219.221,111.038-280.347,219.133s-76.499,233.525-43.286,353.181l0,0
					c33.213,119.658,111.038,219.221,219.133,280.347c108.091,61.128,233.521,76.501,353.181,43.286
					c119.658-33.213,219.221-111.038,280.347-219.133s76.499-233.525,43.286-353.181
					c-33.213-119.658-111.035-219.221-219.131-280.347C1706.301,1829.785,1628.098,1809.377,1548.95,1809.377z"/>
			</g>
			<g style="opacity:0.35;">
				<path style="fill:#371A45;" d="M1084.429,2336.02c2.787,21.18,7.115,42.415,12.993,63.609
					c69.138,248.955,326.978,394.763,575.948,325.682c248.955-69.137,394.762-326.978,325.682-575.948
					c-1.983-7.161-4.138-14.281-6.439-21.241c30.519,227.882-110.879,449.101-338.676,512.338
					C1412.129,2707.558,1161.993,2571.956,1084.429,2336.02z"/>
			</g>
			<g>
				<path style="fill:#371A45;" d="M1547.488,2758.906c-82.441,0.005-163.875-21.25-237.59-62.935
					c-112.581-63.662-193.633-167.354-228.223-291.978c-34.592-124.622-18.582-255.254,45.081-367.834
					c63.662-112.581,167.354-193.633,291.978-228.223c124.614-34.59,255.254-18.581,367.834,45.081
					c112.581,63.662,193.633,167.353,228.223,291.977c34.592,124.622,18.582,255.254-45.081,367.834
					s-167.354,193.633-291.978,228.223C1634.712,2752.993,1590.95,2758.906,1547.488,2758.906z M1548.928,1822.798
					c-40.535,0-81.326,5.513-121.45,16.648c-116.206,32.256-212.896,107.832-272.258,212.81
					c-59.363,104.978-74.29,226.787-42.036,342.993c32.256,116.206,107.832,212.896,212.81,272.258
					c104.976,59.358,226.79,74.28,342.993,42.036c116.206-32.256,212.896-107.832,272.258-212.81s74.29-226.787,42.036-342.993
					c-32.256-116.206-107.832-212.895-212.81-272.258C1701.741,1842.617,1625.793,1822.798,1548.928,1822.798z"/>
			</g>
			<g>
				<path style="fill:#371A45;" d="M1102.085,2410.8c23.15,88.575,73.396,163.294,140.352,218.48
					c50.198,41.374,225.078,91.036,412.653,43.808c173.922-43.791,307.615-177.566,331.15-238.21
					c31.391-80.891,38.651-170.639,15.501-259.215c-61.262-234.396-288.043-278.932-536.487-213.998
					C1216.81,2026.6,1040.823,2176.405,1102.085,2410.8z"/>
			</g>
			<g style="opacity:0.5;">
				
					<ellipse transform="matrix(0.9069 -0.4213 0.4213 0.9069 -870.7778 740.3141)" style="fill:#FFFFFF;" cx="1239.959" cy="2340.748" rx="59.994" ry="82.794"/>
			</g>
			<g style="opacity:0.5;">
				
					<ellipse transform="matrix(0.84 -0.5426 0.5426 0.84 -1129.6683 1130.8097)" style="fill:#FFFFFF;" cx="1352.537" cy="2480.84" rx="32.611" ry="38.002"/>
			</g>
			<g style="opacity:0.35;">
				<path style="fill:#111A28;" d="M1132.422,2169.264c-41.276,66.846-54.927,147.377-30.335,241.522
					c23.154,88.594,73.415,163.302,140.338,218.499c50.209,41.37,225.102,91.025,412.678,43.816
					c66.235-16.658,126.609-46.382,177.312-80.178c-231.813,53.116-445.058-8.201-507.31-59.518
					c-84.986-70.04-148.755-164.886-178.114-277.285C1139.122,2226.085,1134.385,2197.125,1132.422,2169.264z"/>
			</g>
			<g>
				<path style="fill:#371A45;" d="M1087.039,2208.618c-2.715,0-5.452-0.813-7.825-2.51c-5.342-3.813-7.092-10.774-4.492-16.528
					c51.477-134.294,188.958-239.524,377.329-288.76c189.851-49.617,361.978-22.829,472.273,73.496
					c5.291,4.504,6.37,12.41,2.256,18.167c-4.338,6.077-12.749,7.505-18.826,3.167l-1.108-0.869
					c-103.438-90.427-266.641-115.139-447.759-67.798c-180.127,47.083-311.035,146.55-359.155,272.903l-0.62,1.628l-1.013,1.418
					C1095.454,2206.635,1091.274,2208.618,1087.039,2208.618z"/>
			</g>
			<g style="opacity:0.5;">
				<path style="fill:#FFFFFF;" d="M1937.163,2341.508c0,0,12.161-250.206-136.542-309.781
					c-148.703-59.575-327.896-12.343-320.698-1.941c0,0,211.047-3.825,329.722,132.794
					C1901.158,2267.929,1937.163,2341.508,1937.163,2341.508z"/>
			</g>
		</g>
		<g>
			<path style="fill:#FFFFFF;" d="M2104.429,2355.737c0,0-66.077-92.237-176.539-86.817
				c-78.136,3.834-113.745,150.61-29.243,229.471c39.729,37.077,75.554,48.184,86.138,127.785"/>
		</g>
		<g>
			<path style="fill:#371A45;" d="M1984.766,2641.467c-7.549,0-14.116-5.591-15.139-13.279
				c-7.629-57.39-28.359-74.314-57.048-97.739c-7.82-6.385-15.903-12.983-24.363-20.879
				c-57.273-53.45-63.096-131.499-43.459-185.139c15.579-42.556,46.377-69.019,82.385-70.786
				c117.41-5.772,186.821,89.143,189.719,93.188c4.917,6.865,3.34,16.416-3.528,21.335c-6.851,4.91-16.392,3.345-21.318-3.503l0,0
				c-0.615-0.852-62.917-85.427-163.374-80.474c-23.328,1.145-43.95,20.117-55.166,50.752
				c-15.642,42.734-11.172,108.611,35.605,152.268c7.72,7.202,15.408,13.479,22.839,19.548
				c30.237,24.688,58.796,48.005,68.025,117.397c1.113,8.372-4.773,16.062-13.145,17.175
				C1986.116,2641.423,1985.437,2641.467,1984.766,2641.467z"/>
		</g>
		<g style="opacity:0.35;">
			<path style="fill:#371A45;" d="M1443.37,2797.906l14.052,150.576c333.454,240.152,463.109-102.459,497.755-168.341
				c7.14-13.577,30.524-53.933,44.974-63.414c15.635-10.284,31.014-45.678,32.734-71.406c0,0-9.725-93.037-41.378-121.02
				c-32.456-28.671-106.121-17.814-142.896,3.479c-50.844,29.436-86.702,98.896-147.37,159.832
				C1626.735,2762.387,1466.498,2734.868,1443.37,2797.906z"/>
		</g>
		<g>
			<path style="fill:#FFFFFF;" d="M1424.623,2766.363l31.5,174.817l1.3,7.302c314.312,111.091,449.563-152.531,505.453-224.438
				c9.405-12.118,36.967-28.021,51.417-37.501c15.635-10.284,23.549-31.883,25.269-57.61c0,0,0,0,0-0.038
				c3.364-49.735-16.4-114.837-48.053-142.82c-32.456-28.671-106.121-17.814-142.896,3.479
				c-50.844,29.435-86.702,98.896-147.37,159.832C1626.735,2724.159,1447.75,2703.325,1424.623,2766.363z"/>
		</g>
		<g style="opacity:0.35;">
			<path style="fill:#371A45;" d="M1456.123,2941.181l1.3,7.302c314.312,111.091,449.563-152.531,505.453-224.438
				c9.405-12.118,36.967-28.021,51.417-37.501c15.635-10.284,23.549-31.883,25.269-57.61c-8.754,12.118-20.146,22.593-33.908,23.931
				c-34.749,3.364-83.299,2.026-97.138,20.223c-13.839,18.235-39.222,109.562-129.211,186.668
				C1688.473,2937.549,1532.464,2962.856,1456.123,2941.181z"/>
		</g>
		<g>
			<path style="fill:#371A45;" d="M1418.673,2764.19c2.418-9.326,8.295-17.639,15.171-23.788
				c6.873-6.284,14.625-10.919,22.434-14.912c15.734-7.685,31.951-12.657,48.013-16.898c32.181-8.345,64.225-13.846,94.976-22.425
				c30.549-8.488,60.615-19.512,83.555-38.218c2.993-2.195,5.447-4.87,8.174-7.293c2.703-2.645,5.479-5.685,8.216-8.505
				c5.497-5.74,10.789-11.721,16.047-17.746c10.519-12.043,20.549-24.668,30.601-37.424c20.171-25.445,39.604-52.268,64.879-76.13
				c12.598-11.777,27.257-22.865,44.161-30.039c16.442-7.27,33.399-11.542,50.728-14.138c17.318-2.511,35.123-3.067,53.303,0.17
				c9.055,1.499,18.261,4.318,27.138,8.759l6.587,3.628l6.234,4.641c4.073,3.163,7.25,6.521,10.403,10.052
				c12.297,14.148,20.733,29.943,27.234,46.126c6.53,16.206,11.041,32.95,13.97,50.009c2.803,17.08,4.079,34.504,2.566,52.288
				c-0.764,8.884-2.204,17.865-4.897,26.858c-2.713,8.955-6.691,18.059-13.162,26.315c-1.611,2.063-3.306,4.074-5.323,5.912
				c-1.85,1.943-4.033,3.618-6.266,5.24l-1.661,1.219l-1.345,0.868l-2.665,1.706l-5.245,3.306
				c-6.915,4.341-13.703,8.592-20.142,12.997c-6.348,4.346-12.766,9.047-17.069,13.459c-1.633,1.561-4.175,5.186-6.517,8.224
				l-7.021,9.712c-18.576,26.503-37.512,53.904-58.555,79.644c-10.468,12.937-21.593,25.405-33.07,37.564
				c-11.702,11.965-23.719,23.677-36.609,34.49c-25.482,21.926-54.059,40.558-84.656,55.065
				c-30.577,14.619-63.713,23.75-97.175,28.147c-33.558,4.116-67.476,3.05-100.475-2.078c-32.999-5.324-65.092-14.549-95.887-26.552
				c-3.254-1.269-4.865-4.936-3.596-8.19c1.204-3.089,4.569-4.697,7.691-3.768l0.119,0.036
				c30.959,9.309,62.377,16.625,94.142,20.046c31.698,3.658,63.714,3.356,94.857-1.714c31.161-4.834,61.49-14.261,89.753-28.101
				c6.974-3.652,14.122-6.953,20.823-11.125l10.187-5.987l9.874-6.525c6.697-4.166,12.878-9.145,19.326-13.7
				c6.174-4.951,12.48-9.737,18.425-14.991c12.094-10.257,23.431-21.444,34.506-32.888c10.875-11.664,21.453-23.641,31.465-36.165
				c20.185-24.987,38.294-51.492,57.054-78.592l7.276-10.187c2.654-3.414,4.643-6.639,8.713-10.943
				c7.137-7.28,14.1-12.135,21.139-17.1c7.018-4.858,14.056-9.314,20.95-13.699l5.101-3.256l2.485-1.611l1.224-0.8l0.782-0.627
				c1.061-0.8,2.154-1.566,3.09-2.633c1.035-0.895,1.943-2.028,2.838-3.197c7.329-9.361,10.966-24.023,12.083-38.659
				c1.194-14.801,0.037-30.214-2.545-45.329c-2.682-15.114-6.816-30.068-12.59-44.135c-5.681-14.06-13.162-27.364-22.406-37.829
				c-2.283-2.541-4.791-5.13-7.192-6.931c-1.205-0.881-2.389-1.786-3.56-2.72l-4.158-2.253c-5.704-2.863-12.253-5.032-19.307-6.184
				c-14.013-2.58-29.299-2.302-44.268-0.13c-14.946,2.176-29.971,5.966-43.433,11.919c-13.291,5.551-25.201,14.381-36.453,24.818
				c-22.452,20.968-41.777,47.211-62.363,72.723c-10.275,12.817-20.68,25.699-31.758,38.175
				c-5.533,6.233-11.125,12.446-16.973,18.457c-2.974,3.016-5.732,5.995-8.884,9.038c-3.366,3.008-6.558,6.29-10.164,8.935
				c-14.042,11.207-29.564,19.707-45.383,26.365c-15.847,6.661-32.008,11.741-48.164,16.07
				c-32.318,8.623-64.744,14.333-96.149,20.998c-15.695,3.307-31.146,6.904-45.493,12.053c-14.08,5.349-27.459,12.191-33.848,24.44
				l-0.089,0.171c-1.622,3.11-5.458,4.316-8.569,2.694C1419.211,2770.022,1417.947,2766.989,1418.673,2764.19z"/>
		</g>
		<g>
			<path style="fill:#371A45;" d="M1785.774,2932.658c-2.583,0-5.19-0.791-7.439-2.429
				c-127.41-92.869-87.231-279.761-85.459-287.673c1.526-6.809,8.271-11.098,15.093-9.57c6.812,1.521,11.104,8.279,9.587,15.093
				c-0.396,1.777-38.232,178.687,75.676,261.717c5.642,4.114,6.882,12.021,2.769,17.666
				C1793.525,2930.857,1789.678,2932.658,1785.774,2932.658z"/>
		</g>
		<g>
			<path style="fill:#371A45;" d="M1993.442,2288.755c-6.982,0-12.644-5.662-12.644-12.644v-938.476
				c0-6.982,5.662-12.644,12.644-12.644s12.644,5.662,12.644,12.644v938.476C2006.086,2283.093,2000.425,2288.755,1993.442,2288.755
				z"/>
		</g>
		<g>
			<path style="fill:#371A45;" d="M2281.255,2932.658c-0.925,0-1.863-0.1-2.803-0.315c-36.877-8.345-55.405-32.913-73.323-56.672
				c-23.911-31.702-46.509-61.675-115.168-59.951c-37.993,0.876-66.724-9.666-85.208-31.506
				c-30.049-35.5-20.554-86.909-20.134-89.08c1.326-6.858,7.983-11.333,14.81-10.02c6.851,1.321,11.333,7.939,10.024,14.788
				c-0.151,0.823-7.444,42.058,14.692,68.079c13.301,15.637,35.237,23.22,65.195,22.456c81.631-1.919,110.52,36.255,135.979,70.007
				c16.565,21.965,30.869,40.933,58.713,47.236c6.812,1.541,11.084,8.313,9.541,15.122
				C2292.246,2928.674,2287.031,2932.658,2281.255,2932.658z"/>
		</g>
		<g>
			<g>
				<ellipse style="fill:#E2E2E2;" cx="2000.689" cy="1528.383" rx="161.872" ry="66.304"/>
				<path style="fill:#371A45;" d="M2000.688,1596.645c-90.334,0-163.828-30.622-163.828-68.262
					c0-37.639,73.494-68.262,163.828-68.262c90.337,0,163.831,30.623,163.831,68.262
					C2164.519,1566.023,2091.025,1596.645,2000.688,1596.645z M2000.688,1464.038c-88.176,0-159.912,28.865-159.912,64.346
					c0,35.481,71.736,64.346,159.912,64.346c88.179,0,159.915-28.865,159.915-64.346
					C2160.603,1492.903,2088.867,1464.038,2000.688,1464.038z"/>
			</g>
			<g>
				<ellipse style="fill:#FFFFFF;" cx="2000.689" cy="1528.383" rx="161.872" ry="66.304"/>
				<path style="fill:#371A45;" d="M2000.688,1596.645c-90.334,0-163.828-30.622-163.828-68.262
					c0-37.639,73.494-68.262,163.828-68.262c90.337,0,163.831,30.623,163.831,68.262
					C2164.519,1566.023,2091.025,1596.645,2000.688,1596.645z M2000.688,1464.038c-88.176,0-159.912,28.865-159.912,64.346
					c0,35.481,71.736,64.346,159.912,64.346c88.179,0,159.915-28.865,159.915-64.346
					C2160.603,1492.903,2088.867,1464.038,2000.688,1464.038z"/>
			</g>
			<g style="opacity:0.3;">
				<ellipse style="fill:#371A45;" cx="2000.689" cy="1528.383" rx="161.872" ry="66.304"/>
			</g>
			<g>
				<path style="fill:#371A45;" d="M2000.688,1606.807c-99.189,0-173.989-33.716-173.989-78.423
					c0-44.707,74.8-78.423,173.989-78.423c99.192,0,173.992,33.716,173.992,78.423
					C2174.68,1573.091,2099.88,1606.807,2000.688,1606.807z M2000.688,1474.199c-85.708,0-149.751,28.606-149.751,54.184
					c0,25.579,64.043,54.185,149.751,54.185c85.71,0,149.753-28.606,149.753-54.185
					C2150.442,1502.805,2086.399,1474.199,2000.688,1474.199z"/>
			</g>
			<g>
				
					<ellipse transform="matrix(0.9879 -0.1553 0.1553 0.9879 -201.5578 392.3381)" style="fill:#FFFFFF;" cx="2409.479" cy="1485.776" rx="161.872" ry="66.304"/>
				<path style="fill:#371A45;" d="M2361.704,1557.929c-21.309,0-41.179-2.056-58.464-6.152
					c-32.971-7.817-52.717-22.219-55.601-40.549c-2.883-18.333,11.489-38.101,40.471-55.659
					c28.469-17.249,67.808-30.469,110.764-37.224c42.959-6.763,84.456-6.248,116.843,1.431
					c32.971,7.818,52.717,22.219,55.601,40.549c2.883,18.333-11.489,38.101-40.471,55.659
					c-28.469,17.249-67.805,30.469-110.762,37.224C2400.049,1556.36,2380.327,1557.929,2361.704,1557.929z M2457.266,1417.534
					c-18.42,0-37.932,1.555-57.781,4.678c-42.468,6.677-81.301,19.712-109.346,36.704c-27.532,16.682-41.252,35.044-38.633,51.702
					c2.62,16.66,21.313,29.924,52.637,37.351c31.904,7.566,72.869,8.052,115.332,1.372c42.468-6.677,81.299-19.712,109.343-36.704
					c27.532-16.682,41.252-35.044,38.633-51.702c-2.62-16.66-21.313-29.924-52.637-37.351
					C2497.822,1419.556,2478.254,1417.534,2457.266,1417.534z"/>
			</g>
			<g>
				<path style="fill:#371A45;" d="M2361.733,1568.083c-22.124,0-42.808-2.146-60.837-6.418
					c-37.251-8.833-59.729-26.184-63.293-48.86c-3.567-22.676,12.5-46.089,45.242-65.928c29.573-17.917,70.22-31.616,114.453-38.569
					c44.226-6.958,87.119-6.392,120.764,1.58c37.251,8.833,59.729,26.184,63.293,48.86c3.567,22.676-12.5,46.089-45.242,65.928
					c-29.573,17.918-70.22,31.616-114.451,38.569C2401.133,1566.474,2380.894,1568.083,2361.733,1568.083z M2457.295,1427.688
					c-17.881,0-36.875,1.516-56.233,4.561c-41.194,6.477-78.716,19.036-105.657,35.359c-23.083,13.984-35.742,29.475-33.862,41.433
					c1.882,11.958,18.682,22.815,44.944,29.041c30.652,7.268,70.22,7.703,111.411,1.223c41.191-6.477,78.713-19.036,105.654-35.359
					c23.083-13.984,35.742-29.475,33.862-41.433c-1.882-11.958-18.682-22.815-44.944-29.04
					C2496.223,1429.619,2477.468,1427.688,2457.295,1427.688z"/>
			</g>
			<g>
				
					<ellipse transform="matrix(0.1553 -0.9879 0.9879 0.1553 -123.1342 2827.5417)" style="fill:#FFFFFF;" cx="1591.899" cy="1485.776" rx="66.304" ry="161.872"/>
				<path style="fill:#371A45;" d="M1639.675,1557.929c-18.625,0-38.345-1.57-58.381-4.722
					c-42.957-6.755-82.292-19.975-110.764-37.224c-28.979-17.559-43.354-37.327-40.471-55.659
					c2.883-18.33,22.629-32.732,55.601-40.549c32.393-7.676,73.884-8.186,116.846-1.431c42.957,6.755,82.292,19.975,110.764,37.224
					c28.979,17.559,43.354,37.327,40.471,55.659c-2.883,18.33-22.629,32.732-55.601,40.549
					C1680.857,1555.874,1660.981,1557.929,1639.675,1557.929z M1544.111,1417.534c-20.991,0-40.554,2.021-57.549,6.05
					c-31.323,7.427-50.017,20.691-52.637,37.351c-2.62,16.658,11.101,35.019,38.633,51.702
					c28.044,16.992,66.877,30.027,109.346,36.704c42.468,6.684,83.423,6.191,115.332-1.372
					c31.323-7.427,50.017-20.691,52.637-37.351c2.62-16.658-11.101-35.02-38.633-51.702
					c-28.044-16.992-66.877-30.027-109.346-36.704C1582.048,1419.089,1562.529,1417.534,1544.111,1417.534z"/>
			</g>
			<g style="opacity:0.3;">
				
					<ellipse transform="matrix(0.9879 -0.1553 0.1553 0.9879 -201.5578 392.3381)" style="fill:#371A45;" cx="2409.479" cy="1485.776" rx="161.872" ry="66.304"/>
			</g>
			<g style="opacity:0.3;">
				
					<ellipse transform="matrix(0.1553 -0.9879 0.9879 0.1553 -123.1342 2827.5417)" style="fill:#371A45;" cx="1591.899" cy="1485.776" rx="66.304" ry="161.872"/>
			</g>
			<g>
				<path style="fill:#371A45;" d="M1639.646,1568.083c-19.163,0-39.399-1.609-59.929-4.839
					c-44.231-6.953-84.878-20.652-114.451-38.569c-32.742-19.839-48.811-43.252-45.244-65.928
					c3.564-22.676,26.042-40.027,63.293-48.86c33.645-7.971,76.533-8.535,120.767-1.58c44.231,6.953,84.878,20.652,114.451,38.569
					c32.742,19.839,48.811,43.252,45.244,65.928c-3.564,22.676-26.042,40.027-63.293,48.86
					C1682.454,1565.937,1661.768,1568.083,1639.646,1568.083z M1544.082,1427.688c-20.173,0-38.926,1.931-55.176,5.784
					c-26.262,6.226-43.062,17.082-44.944,29.04c-1.88,11.958,10.779,27.449,33.862,41.433
					c26.941,16.323,64.465,28.882,105.657,35.359c41.194,6.472,80.759,6.043,111.411-1.223c26.26-6.226,43.062-17.083,44.944-29.041
					c1.88-11.958-10.779-27.449-33.862-41.433c-26.941-16.323-64.465-28.882-105.657-35.359
					C1580.962,1429.206,1561.963,1427.688,1544.082,1427.688z"/>
			</g>
			<g>
				<ellipse style="fill:#999999;" cx="2000.689" cy="1345.521" rx="725.246" ry="182.863"/>
				<path style="fill:#371A45;" d="M2000.688,1530.342c-193.877,0-376.172-19.043-513.303-53.618
					c-137.935-34.78-213.899-81.375-213.899-131.204c0-49.827,75.964-96.421,213.899-131.201
					c137.131-34.575,319.426-53.618,513.303-53.618s376.172,19.043,513.306,53.618c137.935,34.78,213.899,81.375,213.899,131.201
					c0,49.829-75.964,96.423-213.899,131.204C2376.86,1511.299,2194.565,1530.342,2000.688,1530.342z M2000.688,1164.616
					c-398.821,0-723.286,81.152-723.286,180.903c0,99.753,324.465,180.906,723.286,180.906
					c398.823,0,723.289-81.152,723.289-180.906C2723.977,1245.769,2399.512,1164.616,2000.688,1164.616z"/>
			</g>
			<g>
				<path style="fill:#FFFFFF;" d="M2724.091,1358.612c-4.09,14.603-14.997,28.751-31.902,42.202
					c-92.948,73.952-367.397,127.575-691.501,127.575s-598.553-53.623-691.501-127.575c-16.905-13.451-27.812-27.599-31.902-42.202
					c26.691-58.501,340.373-104.672,723.402-104.672S2697.4,1300.111,2724.091,1358.612z"/>
				<path style="fill:#371A45;" d="M2000.688,1530.92c-318.228,0-596.75-51.489-693.074-128.125
					c-17.571-13.982-28.594-28.618-32.761-43.501l-0.251-0.889l0.386-0.842c27.607-60.518,339.592-106.152,725.701-106.152
					s698.093,45.635,725.703,106.152l0.386,0.842l-0.251,0.889c-4.17,14.883-15.193,29.519-32.761,43.501
					C2597.441,1479.431,2318.916,1530.92,2000.688,1530.92z M1279.985,1358.835c4.07,13.533,14.421,26.985,30.779,40
					c95.496,75.979,372.754,127.026,689.924,127.026s594.431-51.047,689.927-127.026c16.355-13.015,26.707-26.467,30.779-40
					c-29.023-57.471-344.551-102.366-720.706-102.366C1624.531,1256.47,1309.006,1301.365,1279.985,1358.835z"/>
			</g>
			<g style="opacity:0.3;">
				<path style="fill:#371A45;" d="M2724.091,1358.612c-4.09,14.603-14.997,28.751-31.902,42.202
					c-92.948,45.625-367.397,78.678-691.501,78.678s-598.553-33.053-691.501-78.678c-16.905-13.451-27.812-27.599-31.902-42.202
					c26.691-58.501,340.373-104.672,723.402-104.672S2697.4,1300.111,2724.091,1358.612z"/>
			</g>
			<g>
				<path style="fill:#371A45;" d="M2000.688,1540.503c-194.69,0-377.869-19.153-515.789-53.928
					c-101.082-25.486-221.575-70.647-221.575-141.055c0-70.408,120.493-115.567,221.575-141.052
					c137.922-34.775,321.099-53.928,515.789-53.928s377.869,19.153,515.789,53.928c101.082,25.486,221.577,70.644,221.577,141.052
					c0,70.408-120.496,115.569-221.577,141.055C2378.557,1521.35,2195.378,1540.503,2000.688,1540.503z M2000.688,1174.778
					c-426.575,0-713.125,88.284-713.125,170.742c0,82.458,286.55,170.745,713.125,170.745s713.127-88.286,713.127-170.745
					C2713.816,1263.061,2427.263,1174.778,2000.688,1174.778z"/>
			</g>
			<g>
				<g>
					<path style="fill:#945CC6;" d="M3194.149,1129.475c0,0,0,48.022,0,69.681c0,129.677-534.33,234.802-1193.46,234.802
						s-1193.46-105.124-1193.46-234.802c0-22.975,0-69.681,0-69.681"/>
				</g>
				<g>
					<path style="fill:#371A45;" d="M2000.688,1435.915c-318.906,0-618.745-24.438-844.28-68.809
						c-226.436-44.551-351.138-104.197-351.138-167.952v-69.68h3.916v69.68c0,128.391,534.504,232.844,1191.501,232.844
						s1191.501-104.453,1191.501-232.844v-69.68h3.916v69.68c0,63.755-124.702,123.403-351.135,167.952
						C2619.436,1411.477,2319.597,1435.915,2000.688,1435.915z"/>
				</g>
			</g>
			<g style="opacity:0.3;">
				<path style="fill:#371A45;" d="M3194.16,1166.84v32.325c0,129.666-534.326,234.792-1193.471,234.792
					S807.218,1328.832,807.218,1199.166v-32.325c0,129.666,534.326,234.792,1193.471,234.792S3194.16,1296.506,3194.16,1166.84z"/>
			</g>
			<g>
				<path style="fill:#371A45;" d="M2000.688,1446.077c-319.546,0-620.081-24.504-846.243-69.002
					c-163.926-32.251-359.336-89.297-359.336-177.92v-69.68c0-6.692,5.427-12.119,12.119-12.119s12.119,5.427,12.119,12.119v69.68
					c0,107.542,474.692,222.683,1181.34,222.683s1181.34-115.142,1181.34-222.683v-69.68c0-6.692,5.427-12.119,12.119-12.119
					s12.119,5.427,12.119,12.119v69.68c0,88.623-195.408,145.669-359.336,177.92
					C2620.769,1421.572,2320.234,1446.077,2000.688,1446.077z"/>
			</g>
			<g>
				<ellipse style="fill:#B8C5D3;" cx="1999.3" cy="1129.475" rx="1193.46" ry="234.802"/>
			</g>
			<g style="opacity:0.5;">
				<g>
					<path style="fill:#FFFFFF;" d="M2016.347,1312.662c-42.181,0-75.222-24.074-75.222-54.806s33.041-54.806,75.222-54.806
						c42.181,0,75.222,24.074,75.222,54.806S2058.528,1312.662,2016.347,1312.662z M2016.347,1227.287
						c-27.635,0-50.985,13.999-50.985,30.569s23.35,30.569,50.985,30.569c27.635,0,50.985-13.999,50.985-30.569
						S2043.982,1227.287,2016.347,1227.287z"/>
				</g>
			</g>
			<g style="opacity:0.5;">
				<g>
					<path style="fill:#FFFFFF;" d="M2484.48,1297.749c-17.455,0-34.035-4.312-47.135-12.325
						c-15.586-9.532-24.925-23.78-25.628-39.089c-0.703-15.307,7.294-30.35,21.943-41.27c13.456-10.033,31.454-16.042,50.687-16.924
						c42.082-1.94,76.243,20.599,77.657,51.299v0.002c1.403,30.697-30.499,56.261-72.634,58.193
						C2487.733,1297.713,2486.101,1297.749,2484.48,1297.749z M2489.198,1212.267c-1.239,0-2.485,0.029-3.743,0.086
						c-14.236,0.654-27.834,5.079-37.311,12.145c-4.756,3.544-12.665,10.95-12.214,20.727c0.447,9.779,9.003,16.429,14.061,19.523
						c10.084,6.168,24.015,9.322,38.27,8.678c27.605-1.267,50.29-16.322,49.529-32.875
						C2537.063,1224.752,2515.193,1212.267,2489.198,1212.267z"/>
				</g>
			</g>
			<g style="opacity:0.5;">
				<g>
					<path style="fill:#FFFFFF;" d="M2883.669,1229.928c-39.769,0-71.239-21.922-72.607-51.377
						c-0.707-15.309,7.279-30.355,21.92-41.283c13.452-10.039,31.45-16.058,50.679-16.95c19.217-0.881,37.708,3.431,52.032,12.183
						c15.59,9.525,24.94,23.767,25.651,39.075l0,0c0.707,15.309-7.282,30.355-21.924,41.283
						c-13.448,10.039-31.447,16.058-50.676,16.951C2887.04,1229.89,2885.347,1229.928,2883.669,1229.928z M2888.512,1144.442
						c-1.239,0-2.481,0.029-3.727,0.086c-14.236,0.661-27.834,5.094-37.307,12.164c-4.752,3.548-12.657,10.958-12.202,20.735
						c0.764,16.553,24.825,29.478,52.346,28.172c14.236-0.661,27.83-5.094,37.307-12.164c4.752-3.548,12.657-10.96,12.202-20.735
						l0,0c-0.451-9.777-9.01-16.425-14.072-19.516C2913.854,1147.561,2901.43,1144.442,2888.512,1144.442z"/>
				</g>
			</g>
			<g style="opacity:0.5;">
				<g>
					<path style="fill:#FFFFFF;" d="M1559.938,1297.753c-1.663,0-3.333-0.038-5.023-0.117
						c-42.135-1.932-74.037-27.496-72.634-58.193v-0.002c1.411-30.701,35.556-53.252,77.653-51.299
						c19.233,0.881,37.234,6.891,50.691,16.924c14.649,10.918,22.646,25.963,21.943,41.271
						C1631.214,1275.806,1599.726,1297.753,1559.938,1297.753z M1506.494,1240.552c-0.761,16.553,21.924,31.607,49.529,32.875
						c27.635,1.254,51.57-11.648,52.331-28.201c0.451-9.777-7.458-17.184-12.214-20.727c-9.481-7.067-23.078-11.491-37.315-12.145
						C1531.217,1211.107,1507.255,1224.003,1506.494,1240.552L1506.494,1240.552z"/>
				</g>
			</g>
			<g style="opacity:0.5;">
				<g>
					<path style="fill:#FFFFFF;" d="M1160.615,1229.928c-1.678,0-3.368-0.038-5.077-0.118c-19.229-0.893-37.227-6.912-50.676-16.951
						c-14.641-10.928-22.631-25.974-21.924-41.283c0.711-15.309,10.062-29.551,25.651-39.075
						c14.324-8.75,32.808-13.076,52.033-12.183c19.229,0.893,37.227,6.912,50.676,16.95c14.641,10.928,22.631,25.974,21.924,41.283
						C1231.854,1208.004,1200.38,1229.926,1160.615,1229.928z M1155.771,1144.442c-12.921,0-25.342,3.119-34.547,8.743
						c-5.061,3.091-13.621,9.739-14.072,19.516l0,0c-0.455,9.775,7.451,17.188,12.203,20.735
						c9.477,7.07,23.071,11.503,37.307,12.164c27.574,1.265,51.582-11.621,52.346-28.172c0.455-9.777-7.451-17.188-12.203-20.735
						c-9.477-7.07-23.071-11.503-37.307-12.164C1158.256,1144.471,1157.01,1144.442,1155.771,1144.442z M1095.046,1172.139h0.038
						H1095.046z"/>
				</g>
			</g>
			<g style="opacity:0.5;">
				<path style="fill:#FFFFFF;" d="M2699.773,1024.575c0,60.611-310.397,146.581-693.29,146.581s-693.29-85.97-693.29-146.581
					s310.397-109.746,693.29-109.746S2699.773,963.964,2699.773,1024.575z"/>
			</g>
			<g style="opacity:0.3;">
				<path style="fill:#371A45;" d="M2493.082,1059.344c0,0,186.174,93.751,220.445,141.915
					c34.271,48.165,99.156,100.296,99.156,100.296s600.387-117.895,292.644-254.978c0,0,77.783,50.102,56.5,87.067
					c-30.797,53.49-164.156,101.514-252.145,120.394c-46.979,10.08-96.039-3.153-131.233-35.864
					c-46.67-43.378-127.332-106.859-243.455-158.829C2495.068,1041.475,2493.082,1059.344,2493.082,1059.344z"/>
			</g>
			<g style="opacity:0.3;">
				<path style="fill:#371A45;" d="M1519.869,1059.344c0,0-186.174,93.751-220.445,141.915
					c-34.271,48.165-99.156,100.296-99.156,100.296s-600.387-117.895-292.644-254.978c0,0-79.624,51.225-56.501,87.067
					c38.869,60.249,158.681,99.902,246.53,119.176c50.231,11.021,102.558-3.224,140.46-37.981
					c47.167-43.252,126.661-104.84,239.842-155.495C1517.883,1041.475,1519.869,1059.344,1519.869,1059.344z"/>
			</g>
			<g style="opacity:0.3;">
				<path style="fill:#371A45;" d="M1513.12,1065.539c0,0-269.366,142.203-310.437,238.532c0,0,327.843,60.206,798.006,60.206
					s802.411-67.648,802.411-67.648s-197.248-224.812-328.542-234.537s-37.976,9.494-37.976,9.494s184.131,81.369,279.743,173.222
					c14.593,14.02,6.775,38.648-13.268,41.439c-105.933,14.753-388.092,49.317-706.439,49.317
					c-314.322,0-585.125-32.479-690.415-46.988c-20.106-2.771-28.052-27.617-13.243-41.497
					c16.541-15.503,39.246-35.105,68.258-56.471c48.411-35.654,177.838-110.686,177.838-110.686L1513.12,1065.539z"/>
			</g>
			<g>
				<path style="fill:#102770;" d="M2643.765,1000.817c0,69.874-287.915,126.519-643.076,126.519s-643.076-56.645-643.076-126.519
					s643.076-72.993,643.076-72.993S2643.765,930.942,2643.765,1000.817z"/>
				<path style="fill:#371A45;" d="M2000.688,1129.866c-362.021,0-645.605-56.685-645.605-129.048
					c0-70.361,579.514-75.203,645.593-75.522c66.104,0.32,645.618,5.161,645.618,75.522
					C2646.294,1073.181,2362.71,1129.866,2000.688,1129.866z M2000.676,930.354c-178.142,0.864-640.535,15.208-640.535,70.464
					c0,31.982,67.908,63.686,186.311,86.98c121.306,23.867,282.625,37.009,454.236,37.009s332.93-13.142,454.236-37.009
					c118.403-23.294,186.311-54.998,186.311-86.98C2641.235,945.559,2178.843,931.218,2000.676,930.354z"/>
			</g>
			<g>
				<path style="fill:#102770;" d="M1928.623,1128.225c4.599,0.17,9.22,0.318,13.862,0.445h0.339
					c18.906,0.53,38.215,0.806,57.864,0.806c33.743,0,66.532-0.806,97.902-2.31c0.021,0,0.021,0,0.021,0
					c180.395-8.648,314.265-40.632,314.265-78.784c0-32.344-214.922-42.37-334.38-45.443c-1.569-0.042-3.137-0.064-4.663-0.106
					c-9.856-0.254-18.991-0.445-27.236-0.594c-28.148-0.551-45.909-0.636-45.909-0.636s-13.608,0.064-35.863,0.445
					c-1.399,0.021-2.861,0.042-4.345,0.064c-12.505,0.233-27.427,0.551-43.981,0.996c-120.56,3.264-328.021,13.502-328.021,45.274
					c0,37.219,127.448,68.589,301.145,78.126c0.678,0.021,1.335,0.064,2.014,0.106L1928.623,1128.225z"/>
				<path style="fill:#371A45;" d="M2000.686,1132.004c-19.338,0-38.831-0.271-57.935-0.808c-4.988-0.127-9.614-0.276-14.221-0.444
					h-0.017l-36.987-1.611c-0.867-0.054-1.414-0.088-1.978-0.105c-151.15-8.298-303.601-36.455-303.601-80.654
					c0-25.781,111.191-41.863,330.483-47.8c16.56-0.447,31.489-0.767,44.001-0.998l4.353-0.063
					c22.271-0.381,35.889-0.444,35.889-0.444c0.203,0.003,18.127,0.09,45.972,0.635c8.247,0.149,17.39,0.339,27.253,0.596
					l4.668,0.107c153.66,3.95,336.838,15.479,336.838,47.969c0,45.681-159.048,73.755-316.672,81.311
					C2066.704,1131.225,2033.723,1132.004,2000.686,1132.004z M1928.73,1125.698c4.587,0.168,9.194,0.317,13.823,0.444
					c52.537,1.44,105.3,0.923,155.913-1.504c180.725-8.662,311.88-40.732,311.88-76.257c0-21.528-124.08-37.571-331.917-42.915
					l-4.67-0.107c-9.841-0.251-18.97-0.442-27.209-0.591c-27.805-0.547-45.698-0.635-45.876-0.635
					c0.015,0-13.577,0.063-35.806,0.444l-4.353,0.063c-12.488,0.232-27.402,0.552-43.948,0.994
					c-203.857,5.52-325.562,21.499-325.562,42.747c0,34.302,125.645,66.096,298.755,75.603c0.554,0.015,1.155,0.051,1.77,0.09
					L1928.73,1125.698z"/>
			</g>
			<g>
				<path style="fill:#7A7A7A;" d="M2643.771,1000.813c0,8.114-3.886,16.057-11.285,23.762
					c-85.81-55.127-631.794-57.752-631.794-57.752s-545.986,2.625-631.795,57.752c-7.398-7.705-11.285-15.648-11.285-23.762
					c0-69.855,643.08-72.991,643.08-72.991S2643.771,930.958,2643.771,1000.813z"/>
				<path style="fill:#371A45;" d="M1368.513,1027.827l-1.44-1.502c-7.957-8.286-11.99-16.87-11.99-25.513
					c0-70.342,579.517-75.198,645.596-75.52c66.104,0.322,645.623,5.178,645.623,75.52c0,8.645-4.036,17.229-11.992,25.513
					l-1.44,1.502l-1.75-1.123c-84.214-54.104-624.988-57.324-630.439-57.351c-5.427,0.027-546.199,3.247-630.415,57.351
					L1368.513,1027.827z M2000.679,964.294c22.195,0.107,540.576,3.22,631.365,57.039c6.106-6.826,9.199-13.721,9.199-20.52
					c0-55.242-462.395-69.592-640.564-70.461c-178.145,0.869-640.537,15.22-640.537,70.461c0,6.797,3.091,13.694,9.197,20.52
					C1460.132,967.515,1978.508,964.402,2000.679,964.294z"/>
			</g>
			<g>
				<path style="fill:#371A45;" d="M2000.688,1376.396c-319.546,0-620.081-24.504-846.243-69.001
					c-163.926-32.251-359.336-89.297-359.336-177.92c0-88.623,195.41-145.669,359.336-177.92
					c226.162-44.497,526.697-69.001,846.243-69.001s620.081,24.504,846.243,69.001c163.928,32.251,359.336,89.297,359.336,177.92
					c0,88.623-195.408,145.669-359.336,177.92C2620.769,1351.892,2320.234,1376.396,2000.688,1376.396z M2000.688,906.792
					c-706.648,0-1181.34,115.142-1181.34,222.683s474.692,222.683,1181.34,222.683s1181.34-115.142,1181.34-222.683
					S2707.336,906.792,2000.688,906.792z"/>
			</g>
			<g>
				<path style="fill:#00C9FF;" d="M2635.178,1012.123c0,68.942-284.07,124.83-634.489,124.83s-634.489-55.888-634.489-124.83
					C1366.2,770.538,1490.697,275,2000.689,275S2635.178,770.538,2635.178,1012.123z"/>
			</g>
			<g style="opacity:0.5;">
				<path style="fill:#FFFFFF;" d="M1389.687,1035.61c0-241.585,124.499-737.123,634.488-737.123
					c179.354,0,310.977,61.33,406.326,151.304C2333.659,347.161,2195.253,275,2000.688,275
					c-509.99,0-634.488,495.538-634.488,737.123c0,12.455,9.316,24.48,26.573,35.83
					C1390.748,1043.892,1389.687,1039.776,1389.687,1035.61z"/>
			</g>
			<g>
				<path style="fill:#371A45;" d="M2000.688,1153.303c-261.616,0-650.837-37.598-650.837-141.179
					c0-60.796,9.26-274.197,128.425-467.729c115.1-186.936,295.747-285.745,522.412-285.745
					c514.814,0,650.84,492.864,650.84,753.474C2651.528,1115.705,2262.307,1153.303,2000.688,1153.303z M2000.688,291.35
					c-488.945,0-618.137,471.475-618.137,720.774c0,14.209,36.362,45.413,172.644,72.224
					c118.831,23.379,277.043,36.255,445.493,36.255s326.665-12.876,445.496-36.255c136.282-26.812,172.644-58.015,172.644-72.224
					c0-120.808-32.463-302.617-123.569-450.583C2384.866,382.256,2218.469,291.35,2000.688,291.35z"/>
			</g>
			<g>
				<g>
					<ellipse style="fill:#FFCE00;" cx="2000.689" cy="1253.941" rx="63.103" ry="42.687"/>
				</g>
				<g>
					<path style="fill:#371A45;" d="M2000.688,1299.157c-36.189,0-65.632-20.286-65.632-45.217
						c0-24.932,29.443-45.215,65.632-45.215s65.632,20.283,65.632,45.215C2066.321,1278.872,2036.877,1299.157,2000.688,1299.157z
						 M2000.688,1213.784c-33.401,0-60.574,18.013-60.574,40.156c0,22.143,27.173,40.159,60.574,40.159s60.574-18.015,60.574-40.159
						C2061.262,1231.797,2034.089,1213.784,2000.688,1213.784z"/>
				</g>
			</g>
			<g style="opacity:0.3;">
				<path style="fill:#102770;" d="M2063.795,1253.941c0,4.575-1.061,8.968-3.03,13.088c-8.18-17.178-31.992-29.599-60.077-29.599
					s-51.897,12.421-60.077,29.599c-1.969-4.12-3.03-8.513-3.03-13.088c0-23.57,28.266-42.687,63.106-42.687
					S2063.795,1230.37,2063.795,1253.941z"/>
				<path style="fill:#371A45;" d="M2060.764,1272.903l-2.28-4.788c-8.022-16.841-31.248-28.157-57.795-28.157
					s-49.773,11.316-57.793,28.157l-2.278,4.788l-2.288-4.783c-2.173-4.548-3.276-9.319-3.276-14.18
					c0-24.932,29.443-45.215,65.635-45.215s65.637,20.283,65.637,45.215c0,4.854-1.104,9.624-3.276,14.177L2060.764,1272.903z
					 M2000.688,1213.784c-33.401,0-60.576,18.013-60.576,40.156c0,2.419,0.325,4.814,0.972,7.166
					c10.601-15.864,33.694-26.206,59.604-26.206s49.004,10.342,59.607,26.206c0.647-2.354,0.972-4.749,0.972-7.166
					C2061.267,1231.797,2034.092,1213.784,2000.688,1213.784z"/>
			</g>
			<g>
				<path style="fill:#371A45;" d="M2000.688,1308.747c-42.18,0-75.222-24.075-75.222-54.807c0-30.73,33.042-54.805,75.222-54.805
					s75.222,24.075,75.222,54.805C2075.911,1284.673,2042.869,1308.747,2000.688,1308.747z M2000.688,1223.374
					c-27.637,0-50.984,13.996-50.984,30.566c0,16.57,23.347,30.569,50.984,30.569s50.984-13.999,50.984-30.569
					C2051.672,1237.37,2028.325,1223.374,2000.688,1223.374z"/>
			</g>
			<g>
				<g>
					
						<ellipse transform="matrix(0.9989 -0.0458 0.0458 0.9989 -54.1882 114.5628)" style="fill:#FFCE00;" cx="2471.2" cy="1238.975" rx="63.103" ry="42.687"/>
				</g>
				<g>
					<path style="fill:#371A45;" d="M2468.796,1284.245c-15.693,0-30.5-3.818-42.107-10.915
						c-13.013-7.959-20.491-19.092-21.052-31.348c-0.562-12.254,5.864-24.026,18.093-33.142
						c11.938-8.899,28.059-14.238,45.398-15.034c17.307-0.789,33.877,3.044,46.582,10.813c13.013,7.959,20.491,19.092,21.052,31.348
						v-0.002c0.562,12.256-5.864,24.028-18.093,33.144c-11.938,8.899-28.059,14.238-45.398,15.034
						C2471.775,1284.211,2470.281,1284.245,2468.796,1284.245z M2473.611,1198.762c-1.411,0-2.827,0.032-4.253,0.098
						c-16.338,0.75-31.467,5.732-42.605,14.036c-10.842,8.081-16.545,18.33-16.062,28.855c0.481,10.527,7.102,20.21,18.638,27.266
						c11.848,7.246,27.375,10.835,43.711,10.073c16.34-0.75,31.47-5.732,42.607-14.036c10.842-8.081,16.545-18.33,16.062-28.855
						v-0.003c-0.481-10.525-7.102-20.205-18.638-27.261C2502.253,1202.319,2488.376,1198.762,2473.611,1198.762z"/>
				</g>
			</g>
			<g style="opacity:0.3;">
				<path style="fill:#102770;" d="M2534.228,1239.126c0.424,9.149-3.454,17.814-10.391,25.115c0-0.424,0-0.848-0.03-1.273
					c-1.06-23.54-30.175-41.323-64.985-39.748c-21.267,0.969-39.778,8.968-50.685,20.419c-0.091-22.994,26.903-42.717,61.106-44.292
					C2504.053,1197.772,2533.167,1215.556,2534.228,1239.126z"/>
				<path style="fill:#371A45;" d="M2521.306,1270.571v-6.33c0-0.364,0.002-0.733-0.022-1.099
					c-0.479-10.576-7.095-20.254-18.633-27.307c-11.851-7.244-27.363-10.818-43.716-10.088
					c-19.812,0.903-38.118,8.245-48.967,19.636l-4.336,4.553l-0.024-6.287c-0.095-24.614,27.805-45.183,63.518-46.829
					c17.361-0.757,33.887,3.059,46.584,10.83c13.018,7.961,20.493,19.099,21.045,31.36c0.439,9.551-3.394,18.879-11.086,26.973
					L2521.306,1270.571z M2463.123,1220.593c15.718,0,30.549,3.823,42.166,10.925c11.272,6.892,18.389,16.16,20.452,26.472
					c4.214-5.896,6.26-12.29,5.962-18.748v-0.002c-0.474-10.53-7.09-20.217-18.63-27.275c-11.846-7.249-27.373-10.818-43.713-10.09
					c-29.158,1.343-53.374,16.604-57.925,35.31c11.882-9.604,29.016-15.659,47.273-16.492
					C2460.183,1220.627,2461.658,1220.593,2463.123,1220.593z"/>
			</g>
			<g>
				<path style="fill:#371A45;" d="M2468.818,1293.835c-17.454,0-34.031-4.312-47.131-12.324
					c-15.586-9.534-24.927-23.779-25.627-39.089c-0.703-15.308,7.292-30.352,21.941-41.27
					c13.455-10.032,31.458-16.042,50.688-16.924c19.187-0.871,37.705,3.455,52.024,12.209c15.586,9.534,24.927,23.779,25.627,39.089
					v-0.003c0.703,15.31-7.292,30.354-21.941,41.272c-13.455,10.032-31.458,16.042-50.688,16.924
					C2472.075,1293.796,2470.442,1293.835,2468.818,1293.835z M2473.479,1208.354c-1.223,0-2.451,0.027-3.682,0.083
					c-14.236,0.654-27.834,5.081-37.312,12.146c-4.756,3.545-12.664,10.95-12.217,20.728c0.449,9.778,9.004,16.428,14.065,19.524
					c10.085,6.169,24.058,9.326,38.267,8.677c14.238-0.654,27.837-5.081,37.314-12.146c4.756-3.545,12.664-10.95,12.217-20.728
					v-0.002c-0.449-9.775-9.004-16.426-14.063-19.519C2498.855,1211.482,2486.416,1208.354,2473.479,1208.354z"/>
			</g>
			<g>
				<g>
					
						<ellipse transform="matrix(0.9989 -0.0464 0.0464 0.9989 -51.2147 134.3564)" style="fill:#FFCE00;" cx="2870.544" cy="1171.149" rx="63.103" ry="42.687"/>
				</g>
				<g>
					<path style="fill:#371A45;" d="M2868.118,1216.421c-15.676,0-30.469-3.811-42.065-10.893
						c-13.018-7.952-20.5-19.082-21.069-31.336c-0.569-12.253,5.852-24.028,18.076-33.152c11.934-8.906,28.052-14.253,45.388-15.059
						c36.125-1.69,66.501,17.217,67.659,42.124c0.569,12.253-5.852,24.028-18.076,33.154c-11.934,8.904-28.052,14.253-45.388,15.056
						C2871.128,1216.387,2869.617,1216.421,2868.118,1216.421z M2872.954,1130.935c-1.414,0-2.837,0.032-4.272,0.1
						c-16.338,0.757-31.465,5.75-42.598,14.058c-10.837,8.088-16.538,18.34-16.047,28.865c0.488,10.525,7.112,20.203,18.652,27.253
						c11.855,7.241,27.346,10.825,43.718,10.051c16.338-0.757,31.465-5.75,42.598-14.058c10.837-8.088,16.538-18.34,16.047-28.865
						C2930.071,1147.173,2904.402,1130.935,2872.954,1130.935z"/>
				</g>
			</g>
			<g style="opacity:0.3;">
				<path style="fill:#102770;" d="M2933.586,1168.234c0.757,16.42-12.33,31.326-32.144,39.385
					c4.999-6.483,7.695-13.845,7.332-21.541c-1.091-23.54-30.205-41.323-65.014-39.718c-10.543,0.485-20.389,2.696-28.963,6.21
					c10.24-13.36,30.326-22.964,53.775-24.055C2903.382,1126.88,2932.496,1144.664,2933.586,1168.234z"/>
				<path style="fill:#371A45;" d="M2893.728,1213.489l5.713-7.412c4.775-6.199,7.129-13.071,6.807-19.878
					c-1.025-22.112-28.972-38.879-62.371-37.312c-9.893,0.454-19.617,2.539-28.12,6.023l-8.66,3.55l5.693-7.427
					c11.006-14.363,32.336-23.958,55.664-25.044c17.322-0.808,33.882,3.013,46.587,10.776c13.02,7.954,20.503,19.087,21.072,31.353
					l0,0c0.784,17.031-12.136,33.066-33.718,41.843L2893.728,1213.489z M2848.071,1143.73c34.172,0,62.122,18.359,63.23,42.231
					c0.251,5.325-0.862,10.65-3.254,15.725c14.951-8.237,23.604-20.532,23.013-33.335c-0.486-10.535-7.112-20.22-18.655-27.271
					c-11.853-7.241-27.397-10.82-43.713-10.039c-17.6,0.818-33.906,6.697-44.883,15.84c6.343-1.699,13.057-2.737,19.834-3.049
					C2845.129,1143.765,2846.606,1143.73,2848.071,1143.73z"/>
			</g>
			<g>
				<path style="fill:#371A45;" d="M2868.14,1226.008c-17.434,0-33.994-4.302-47.085-12.297
					c-15.591-9.524-24.941-23.767-25.649-39.075c-0.713-15.308,7.278-30.354,21.919-41.282
					c13.452-10.039,31.45-16.059,50.679-16.951c42.1-2.012,76.255,20.557,77.681,51.257c0.713,15.308-7.278,30.354-21.919,41.282
					c-13.452,10.039-31.45,16.06-50.679,16.951C2871.431,1225.972,2869.78,1226.008,2868.14,1226.008z M2872.908,1140.525
					c-1.252,0-2.51,0.029-3.782,0.088c-14.236,0.662-27.832,5.095-37.305,12.166c-4.753,3.547-12.661,10.957-12.207,20.735
					c0.454,9.776,9.011,16.423,14.075,19.514c10.088,6.162,24.067,9.314,38.274,8.657c14.236-0.662,27.832-5.095,37.305-12.166
					c4.753-3.547,12.661-10.957,12.207-20.735C2920.74,1152.995,2898.887,1140.525,2872.908,1140.525z"/>
			</g>
			<g>
				<g>
					
						<ellipse transform="matrix(0.0458 -0.9989 0.9989 0.0458 233.4309 2722.3357)" style="fill:#FFCE00;" cx="1541.766" cy="1238.975" rx="42.687" ry="63.103"/>
				</g>
				<g>
					<path style="fill:#371A45;" d="M1544.17,1284.245c-1.484,0-2.976-0.034-4.478-0.102c-17.336-0.796-33.457-6.135-45.396-15.034
						c-12.229-9.116-18.655-20.889-18.093-33.144c0.562-12.253,8.04-23.386,21.052-31.345c12.705-7.769,29.26-11.599,46.582-10.813
						c17.339,0.796,33.459,6.135,45.398,15.034c12.229,9.116,18.655,20.889,18.093,33.145c-0.562,12.253-8.04,23.386-21.052,31.345
						C1574.673,1280.427,1559.861,1284.245,1544.17,1284.245z M1539.355,1198.762c-14.766,0-28.643,3.557-39.46,10.173
						c-11.536,7.056-18.157,16.736-18.638,27.261v0.003c-0.483,10.525,5.22,20.774,16.062,28.855
						c11.138,8.303,26.267,13.286,42.605,14.036c16.333,0.759,31.865-2.827,43.713-10.073c11.536-7.056,18.157-16.738,18.638-27.263
						c0.483-10.527-5.22-20.776-16.062-28.858c-11.138-8.303-26.267-13.286-42.605-14.036
						C1542.185,1198.794,1540.764,1198.762,1539.355,1198.762z"/>
				</g>
			</g>
			<g style="opacity:0.3;">
				<path style="fill:#102770;" d="M1604.814,1241.853c-0.515,10.997-7.12,20.722-17.541,27.781
					c0.667-2.242,1.061-4.575,1.182-6.938c1.061-23.54-26.266-43.929-61.076-45.535c-18.571-0.848-35.537,3.817-47.443,11.937
					c5.847-19.995,32.507-34.204,63.772-32.78C1578.548,1197.924,1605.875,1218.313,1604.814,1241.853z"/>
				<path style="fill:#371A45;" d="M1582.832,1275.696l2.017-6.782c0.605-2.031,0.967-4.168,1.082-6.348
					c0.994-22.097-25.325-41.34-58.669-42.878c-17.295-0.815-34.031,3.401-45.901,11.502l-5.835,3.977l1.982-6.777
					c6.289-21.509,34.197-36.086,66.316-34.597c36.145,1.667,64.639,23.279,63.518,48.176v0.002
					c-0.535,11.406-7.158,21.975-18.65,29.758L1582.832,1275.696z M1523.152,1214.536c1.443,0,2.891,0.032,4.341,0.098
					c36.128,1.668,64.609,23.279,63.489,48.176c-0.015,0.261-0.032,0.525-0.051,0.786c7.002-6.26,10.984-13.855,11.357-21.86
					c0.994-22.114-25.337-41.353-58.696-42.891c-25.703-1.208-49.041,8.875-58.206,24.121
					C1496.179,1217.51,1509.419,1214.536,1523.152,1214.536z"/>
			</g>
			<g>
				<path style="fill:#371A45;" d="M1544.148,1293.835c-1.626,0-3.257-0.039-4.895-0.115c-19.229-0.881-37.231-6.892-50.686-16.924
					c-14.648-10.918-22.644-25.962-21.941-41.272c0.701-15.308,10.042-29.553,25.627-39.087
					c14.321-8.755,32.815-13.088,52.024-12.209c19.231,0.881,37.234,6.892,50.688,16.924c14.648,10.918,22.644,25.962,21.941,41.272
					c-0.701,15.308-10.042,29.553-25.627,39.087C1578.181,1289.521,1561.599,1293.833,1544.148,1293.835z M1539.487,1208.354
					c-12.937,0-25.374,3.125-34.59,8.762c-5.059,3.093-13.613,9.744-14.063,19.519v0.002c-0.447,9.778,7.461,17.183,12.217,20.728
					c9.478,7.065,23.076,11.492,37.312,12.146c14.226,0.642,28.186-2.51,38.269-8.677c5.061-3.096,13.616-9.746,14.065-19.521
					c0.447-9.78-7.461-17.185-12.217-20.73c-9.478-7.065-23.076-11.492-37.312-12.146
					C1541.938,1208.381,1540.71,1208.354,1539.487,1208.354z M1478.73,1236.081h0.049H1478.73z"/>
			</g>
			<g>
				<g>
					
						<ellipse transform="matrix(0.0464 -0.9989 0.9989 0.0464 -80.4375 2258.0403)" style="fill:#FFF5A4;" cx="1142.422" cy="1171.149" rx="42.687" ry="63.103"/>
					<path style="fill:#371A45;" d="M1144.788,1215.847c-1.47,0-2.947-0.034-4.436-0.103c-17.224-0.798-33.23-6.106-45.073-14.944
						c-12.068-9.009-18.406-20.61-17.847-32.668c1.143-24.592,31.265-43.186,67.061-41.58c17.224,0.801,33.23,6.108,45.073,14.946
						c12.068,9.006,18.406,20.608,17.847,32.666C1206.318,1197.734,1178.635,1215.847,1144.788,1215.847z M1140.017,1130.364
						c-31.755,0-57.678,16.475-58.674,37.949c-0.498,10.72,5.283,21.145,16.277,29.351c11.223,8.374,26.462,13.408,42.913,14.17
						c33.628,1.594,61.926-15.415,62.969-37.849c0.498-10.72-5.283-21.143-16.277-29.348c-11.223-8.376-26.462-13.408-42.913-14.172
						C1142.871,1130.395,1141.438,1130.364,1140.017,1130.364z"/>
				</g>
				<g>
					<path style="fill:#371A45;" d="M1144.961,1226.013c-1.68,0-3.374-0.039-5.081-0.12c-19.229-0.891-37.227-6.912-50.679-16.951
						c-14.641-10.928-22.632-25.974-21.919-41.282c1.426-30.698,35.603-53.257,77.681-51.257
						c19.229,0.891,37.227,6.912,50.679,16.951c14.641,10.928,22.632,25.974,21.919,41.282
						C1216.194,1204.092,1184.724,1226.013,1144.961,1226.013z M1140.059,1140.525c-25.981,0-47.832,12.468-48.567,28.259
						c-0.454,9.778,7.454,17.188,12.207,20.735c9.473,7.07,23.069,11.504,37.305,12.166c27.605,1.262,51.577-11.621,52.349-28.172
						c0.454-9.778-7.454-17.188-12.207-20.735c-9.473-7.07-23.069-11.504-37.305-12.166
						C1142.571,1140.554,1141.309,1140.525,1140.059,1140.525z"/>
				</g>
			</g>
			<g>
				<g>
					
						<ellipse transform="matrix(0.0464 -0.9989 0.9989 0.0464 -80.4375 2258.0403)" style="fill:#FFCE00;" cx="1142.422" cy="1171.149" rx="42.687" ry="63.103"/>
				</g>
				<g>
					<path style="fill:#371A45;" d="M1144.783,1216.418c-1.477,0-2.959-0.034-4.458-0.103c-17.336-0.803-33.455-6.152-45.388-15.056
						c-12.224-9.126-18.645-20.901-18.076-33.154c1.157-24.902,31.501-43.772,67.659-42.124
						c17.336,0.806,33.455,6.152,45.388,15.059c12.224,9.124,18.645,20.898,18.076,33.152
						C1206.875,1198.064,1178.936,1216.418,1144.783,1216.418z M1140.012,1130.935c-31.45,0-57.117,16.235-58.098,37.405
						c-0.491,10.525,5.21,20.776,16.047,28.865c11.133,8.308,26.26,13.301,42.598,14.058c33.357,1.599,61.345-15.185,62.371-37.305
						c0.491-10.525-5.21-20.776-16.047-28.865c-11.133-8.308-26.26-13.301-42.598-14.058
						C1142.852,1130.967,1141.423,1130.935,1140.012,1130.935z"/>
				</g>
			</g>
			<g style="opacity:0.3;">
				<path style="fill:#102770;" d="M1205.456,1174.081c-0.788,17.178-16.511,31.265-38.476,36.991
					c6.423-6.271,10.301-13.875,10.694-22.177c1.091-23.54-26.236-43.959-61.046-45.565c-9.452-0.424-18.45,0.545-26.6,2.727
					c11.694-11.512,31.841-18.602,54.381-17.541C1179.22,1130.122,1206.546,1150.511,1205.456,1174.081z"/>
				<path style="fill:#371A45;" d="M1158.391,1215.923l6.821-6.66c6.15-6.003,9.585-13.088,9.937-20.486
					c0.488-10.52-5.212-20.771-16.047-28.862c-11.133-8.313-26.257-13.306-42.59-14.058c-9.087-0.408-17.759,0.486-25.828,2.644
					l-9.258,2.476l6.829-6.721c12.7-12.498,33.73-19.304,56.274-18.267c17.334,0.801,33.45,6.145,45.378,15.046
					c12.222,9.121,18.643,20.898,18.076,33.164v-0.002c-0.813,17.707-16.658,33.142-40.366,39.321L1158.391,1215.923z
					 M1112.28,1140.703c1.477,0,2.964,0.034,4.46,0.1c17.336,0.801,33.452,6.147,45.386,15.058
					c12.224,9.126,18.643,20.901,18.076,33.152c-0.286,5.969-2.239,11.726-5.72,16.982c16.934-6.606,27.832-18.625,28.447-32.031
					l0,0c0.488-10.535-5.212-20.789-16.047-28.877c-11.128-8.303-26.252-13.291-42.59-14.045
					c-16.904-0.801-32.786,3.047-44.47,10.486C1103.875,1140.979,1108.035,1140.703,1112.28,1140.703z"/>
			</g>
			<g>
				<path style="fill:#371A45;" d="M1144.961,1226.013c-1.68,0-3.374-0.039-5.081-0.12c-19.229-0.891-37.227-6.912-50.679-16.951
					c-14.641-10.928-22.632-25.974-21.919-41.282c1.426-30.698,35.603-53.257,77.681-51.257
					c19.229,0.891,37.227,6.912,50.679,16.951c14.641,10.928,22.632,25.974,21.919,41.282
					C1216.194,1204.092,1184.724,1226.013,1144.961,1226.013z M1140.059,1140.525c-25.981,0-47.832,12.468-48.567,28.259
					c-0.454,9.778,7.454,17.188,12.207,20.735c9.473,7.07,23.069,11.504,37.305,12.166c27.605,1.262,51.577-11.621,52.349-28.172
					c0.454-9.778-7.454-17.188-12.207-20.735c-9.473-7.07-23.069-11.504-37.305-12.166
					C1142.571,1140.554,1141.309,1140.525,1140.059,1140.525z"/>
			</g>
			<g>
				<path style="fill:#371A45;" d="M2807.158,1314.678c-3.914,0-7.751-1.89-10.088-5.386
					c-95.046-142.241-284.26-211.98-286.16-212.668c-6.292-2.278-9.548-9.224-7.273-15.518c2.278-6.289,9.216-9.558,15.51-7.275
					c8.062,2.91,198.525,73.018,298.074,221.995c3.718,5.566,2.222,13.091-3.342,16.809
					C2811.812,1314.016,2809.47,1314.678,2807.158,1314.678z"/>
			</g>
			<g>
				<path style="fill:#371A45;" d="M1204.849,1314.678c-2.312,0-4.651-0.662-6.721-2.043c-5.564-3.718-7.061-11.243-3.342-16.809
					c91.221-136.518,260.41-207.402,293.401-220.225c6.24-2.429,13.262,0.664,15.684,6.904c2.427,6.238-0.667,13.259-6.904,15.684
					c-31.799,12.361-194.849,80.632-282.029,211.103C1212.6,1312.788,1208.762,1314.678,1204.849,1314.678z"/>
			</g>
			<g style="opacity:0.5;">
				<path style="fill:#FFFFFF;" d="M1471.271,872.009c0,0-17.182-106.355,73.457-228.025
					c77.425-103.931,130.642-40.721,97.448,20.401c-45.543,83.859-65.49,163.912-82.07,249.096
					C1550.618,962.228,1475.772,984.452,1471.271,872.009z"/>
			</g>
			<g style="opacity:0.5;">
				<path style="fill:#FFFFFF;" d="M1695.776,559.416c-18.404,8.55-75.446,15.25-64.209-46.552s78.121-79.459,102.21-58.095
					C1747.838,467.238,1746.742,535.738,1695.776,559.416z"/>
			</g>
			<g style="opacity:0.5;">
				<path style="fill:#FFFFFF;" d="M1001.796,1048.094c59.45-34.917,152.893-58.636,238.234-54.421
					c77.248,3.815-63.63,31.177-113.164,42.823c-35.682,8.389-102.053,33.775-133.409,39.64
					C962.102,1082,964.197,1070.177,1001.796,1048.094z"/>
			</g>
			<g>
				<g style="opacity:0.3;">
					<path style="fill:#371A45;" d="M2587.229,1022.982c0-209.344-94.946-611.995-459.371-706.373
						c-0.146-0.114-0.248-0.193-0.386-0.3c11.864,9.251,56.406,45.025,109.835,100.96
						c213.803,223.827,77.368,595.624-230.464,628.02c-187.083,19.688-408.953,18.885-623.607-40.4
						c-5.773-1.595-11.364-3.056-16.975-4.533c-0.027,2.57-0.061,5.153-0.061,7.669c0,67.962,280.033,123.056,625.472,123.056
						c250.143,0,465.953-28.893,566.007-70.639C2576.847,1048.629,2587.229,1036.045,2587.229,1022.982z"/>
				</g>
			</g>
		</g>
	</g>
</g>
</svg>
