<?xml version="1.0" encoding="utf-8"?>
<!-- Generator: Adobe Illustrator 27.5.0, SVG Export Plug-In . SVG Version: 6.00 Build 0)  -->
<svg version="1.1" id="Layer_1" xmlns="http://www.w3.org/2000/svg" xmlns:xlink="http://www.w3.org/1999/xlink" x="0px" y="0px"
	 viewBox="0 0 4000 4000" style="enable-background:new 0 0 4000 4000;" xml:space="preserve">
<g>
	<g>
		<g>
			<rect transform="matrix(-1 -1.224647e-16 1.224647e-16 -1 4000 4000)" style="fill:#000000;" width="4000" height="4000"/>
		</g>
	</g>
	<g>
		<g>
			<g>
				<path style="fill:#371A45;" d="M2199.6,2245.938c-6.802,0-12.314-5.513-12.314-12.314V1319.57
					c0-6.802,5.513-12.314,12.314-12.314s12.314,5.513,12.314,12.314v914.053C2211.914,2240.425,2206.401,2245.938,2199.6,2245.938z
					"/>
			</g>
		</g>
		<g>
			<g>
				<g>
					<g>
						<path style="fill:#FFFFFF;" d="M1663.267,2618.748c0,0-303.1,78.984-313.912,197.893
							c-9.428,103.687,104.226,453.294,170.978,491.698c48.694,28.014,195.492-23.356,195.492-23.356L1663.267,2618.748z"/>
					</g>
				</g>
				<g style="opacity:0.35;">
					<g>
						<path style="fill:#371A45;" d="M1348.853,2836.048c3.493,122.049,108.443,436.006,171.478,472.275
							c48.698,28.025,195.482-23.354,195.482-23.354l-23.313-135.98c0,0-146.784,51.378-195.482,23.354
							C1451.489,3146.146,1384.108,2975.034,1348.853,2836.048z"/>
					</g>
				</g>
				<g>
					<g>
						<path style="fill:#371A45;" d="M1580.869,3328.179c-31.479,0.005-63.159-6.787-89.443-26.206
							c-72.583-53.618-163.218-380.532-157.046-486.206c5.898-101.04,191.138-163.232,199.019-165.835
							c7.905-2.603,16.348,1.689,18.94,9.551s-1.68,16.343-9.541,18.94c-48.315,15.962-174.556,72.056-178.467,139.092
							c-5.913,101.201,86.577,417.227,144.917,460.327c70.967,52.432,202.119-12.563,203.442-13.228
							c7.383-3.716,16.411-0.752,20.142,6.655c3.726,7.397,0.747,16.416-6.655,20.142
							C1721.987,3293.521,1651.968,3328.179,1580.869,3328.179z"/>
					</g>
				</g>
				<g>
					<g>
						<path style="fill:#FFFFFF;" d="M2012.191,2657.322c0,0-13.226,107.25,33.262,33.698
							c42.428-67.178,95.246-179.186,141.865-361.82c0.393-1.484,0.786-3.012,1.179-4.496c0,0,20.996-1.833,46.75-14.71
							c60.718-30.337,47.71-148.586,35.968-188.789c-13.794-47.361-46.401-34.571-46.401-34.571
							c-11.437-18.726-34.004-28.679-72.023-28.111c-71.369,1.048-85.905,58.754-85.905,58.754
							c-65.432,196.908-145.138,318.257-192.586,378.712c-25.099,32.083-41.162,47.012-41.162,47.012L2012.191,2657.322z"/>
					</g>
				</g>
				<g style="opacity:0.35;">
					<g>
						<path style="fill:#371A45;" d="M2012.191,2657.322c0,0-13.226,107.25,33.262,33.698
							c42.428-67.178,95.246-179.186,141.865-361.82c-15.627-3.797-38.631-10.956-50.766-21.781
							c-30.381-27.151-35.881-89.702-35.881-89.702c-12.572,60.325,0,95.639,14.667,115.543
							c15.802,21.389,20.646,49.02,11.436,73.988c-13.401,36.274-30.293,75.734-57.051,101.226
							c-61.46,58.535-147.146,32.301-195.424-12.484c-25.099,32.083-41.162,47.012-41.162,47.012L2012.191,2657.322z"/>
					</g>
				</g>
				<g style="opacity:0.35;">
					<g>
						<path style="fill:#371A45;" d="M2209.699,2320.137c0,0-55.418,20.25-92.326-63.526c0,0,21.311,10.635,73.859,7.939
							c52.181-2.677,87.579-52.346,87.579-52.346S2282.431,2302.494,2209.699,2320.137z"/>
					</g>
				</g>
				<g>
					<g>
						<path style="fill:#371A45;" d="M1840.713,2544.619c-4.297,0-8.574-1.782-11.631-5.269c-5.625-6.416-4.985-16.177,1.426-21.807
							c1.807-1.606,124.434-112.749,221.533-404.634c6.357-24.087,35.229-68.872,100.522-69.849
							c36.885-0.518,62.671,8.115,78.804,26.484c16.865,19.209,21.953,47.124,16.021,87.861
							c-5.854,40.205-33.091,68.359-63.267,65.547c-27.744-2.603-56.24-32.661-53.003-109.233
							c0.361-8.525,7.466-15.098,16.099-14.79c8.53,0.361,15.151,7.568,14.79,16.099c-2.163,51.187,11.445,75.869,25,77.144
							c11.455,0.972,26.055-13.623,29.785-39.224c4.468-30.669,1.636-51.279-8.657-63.003
							c-9.648-11.001-28.213-16.382-55.112-15.967c-58.828,0.874-71.04,46.626-71.157,47.09l-0.322,1.099
							c-100.337,301.914-225.371,413.994-230.645,418.618C1847.964,2543.354,1844.331,2544.619,1840.713,2544.619z"/>
					</g>
				</g>
				<g>
					<g>
						<path style="fill:#371A45;" d="M1964.873,2799.863c-5.327,0-10.513-2.759-13.379-7.695
							c-4.292-7.383-1.782-16.846,5.596-21.133c1.099-0.664,121.992-77.358,216.401-450.122l2.695-10.649l10.942-0.957
							c0.122-0.01,18.711-1.895,41.196-13.14c48.369-24.18,39.79-130.4,28.066-170.62c-3.521-12.065-8.633-20.137-14.785-23.345
							c-5.679-2.959-11.235-1.133-11.479-1.055c-7.939,3.125-16.758-0.859-19.878-8.804c-3.12-7.949,0.952-16.978,8.901-20.093
							c1.797-0.708,18.086-6.646,35.767,2.041c14.507,7.124,24.99,21.46,31.152,42.603c14.746,50.571,24.16,172.891-43.916,206.929
							c-16.616,8.306-31.567,12.456-41.196,14.478c-98.027,379.985-223.018,456.377-228.33,459.463
							C1970.181,2799.185,1967.51,2799.858,1964.873,2799.863z"/>
					</g>
				</g>
				<g>
					<g>
						<path style="fill:#371A45;" d="M2177.725,2340.415c-19.39,0-35.591-6.24-48.276-18.633
							c-24.473-23.901-33.491-68.94-26.816-133.872c6.523-63.442,34.956-73.442,40.591-74.8l7.041,29.16c0,0,0.42-0.029,1.113-0.332
							c-0.142,0.063-14.561,6.792-18.901,49.038c-5.532,53.813,0.835,92.642,17.935,109.341c8.594,8.398,20.43,11.504,36.182,9.507
							c8.198-0.986,15.723,4.78,16.768,12.998c1.04,8.218-4.775,15.723-12.998,16.768
							C2186.011,2340.142,2181.797,2340.415,2177.725,2340.415z"/>
					</g>
				</g>
				<g>
					<g>
						<path style="fill:#FFFFFF;" d="M1545.284,2973.165c7.294,15.132,12.822,30.763,17.443,46.756
							c14.543,49.927,20.297,103.116,43.131,153.587c5.663,12.504,12.55,23.333,19.663,32.439c2.22,2.854,4.44,5.527,6.66,8.064
							c16.809,19.074,32.575,28.588,32.575,28.588c0.091,4.984,0.453,11.326,0.68,18.893c0.997,31.08,0.634,83.136-21.792,148.06
							c-1.631,4.802-3.353,9.65-5.301,14.543c-15.042,39.009-5.935,165.276,10.511,194.091
							c47.254,83.091,165.684,70.451,199.392,13.728c30.491-51.468,17.715-151.322,11.961-186.434
							c-1.314-8.019-2.265-12.641-2.265-12.641c31.261-65.422,58.128-153.27,58.128-219.1c0,0,8.427,1.405,19.844,1.541
							l-0.045,2.175c4.485,40.73-3.081,110.275-17.896,173.839c-1.631,7.022-3.353,14-5.165,20.841
							c-8.744,32.983,7.476,137.277,51.06,189.107c50.516,60.166,161.199,39.144,183.399-5.754
							c26.731-53.914-8.2-144.436-21.566-175.289c-2.99-6.841-4.893-10.692-4.893-10.692
							c55.727-131.886,58.988-244.698,49.112-358.688c-15.585-178.687-86.67-319.362-159.704-416.227
							c-4.576-6.071-9.378-12.006-14.271-17.85c-6.207-7.385-12.641-14.589-18.938-21.475
							c-11.191-12.142-22.109-23.378-31.397-33.254l-12.731,10.783l-20.705,4.802l-343.51,80.01l-2.99,40.323l-1.314,18.077
							l-2.854,38.827l-7.249,97.544l-4.304,58.354l-3.579,47.934L1545.284,2973.165z"/>
					</g>
				</g>
				<g style="opacity:0.35;">
					<g>
						<path style="fill:#371A45;" d="M1963.869,3601.267c50.504,60.151,161.202,39.155,183.42-5.762
							c26.714-53.908-8.206-144.44-21.607-175.301c-1.659,0.829-2.532,1.091-2.532,1.091s50.548,93.5-4.496,143.61
							c-43.389,39.547-113.404,27.02-142.126-25.492c-35.008-64.079-39.547-179.186-39.547-179.186l-18.988,31.079
							c-1.659,7.028-3.361,14.012-5.194,20.865C1904.068,3445.128,1920.306,3549.41,1963.869,3601.267z"/>
					</g>
				</g>
				<g style="opacity:0.3;">
					<g>
						<path style="fill:#293856;" d="M1774.382,3465.862l2.619-0.611C1775.779,3465.469,1774.862,3465.688,1774.382,3465.862z"/>
					</g>
				</g>
				<g style="opacity:0.3;">
					<g>
						<path style="fill:#293856;" d="M1773.858,3465.993l0.524-0.131C1774.033,3465.95,1773.858,3465.993,1773.858,3465.993z"/>
					</g>
				</g>
				<g style="opacity:0.35;">
					<g>
						<path style="fill:#371A45;" d="M1648.843,3618.203c47.274,83.111,165.698,70.452,199.396,13.75
							c30.512-51.508,17.722-151.337,11.96-186.476l-82.98,19.73c11.437-2.183,48.409-4.365,50.679,57.662
							c1.528,40.726-5.02,86.079-59.452,93.281c-133.746,17.591-123.706-117.638-117.682-194.333
							c1.179-15.322-1.702-17.94-7.115-12.266c-1.615,4.802-3.361,9.646-5.282,14.579
							C1623.307,3463.113,1632.43,3589.394,1648.843,3618.203z"/>
					</g>
				</g>
				<g style="opacity:0.35;">
					<g>
						<path style="fill:#371A45;" d="M1881.952,3395.774c0,0-30.578,62.638-110.445,75.394c-7.76,1.24-11.287-9.321-4.356-13.027
							c31.065-16.611,76.403-58.599,88.778-115.916c10.61-49.141,6.162-97.139,0.155-129.974
							c-4.045-22.11,12.198-42.699,34.652-43.72c40.351-1.835,98.88-6.465,137.349-18.146c25.821-7.841,52.495-18.583,75.232-38.24
							c9.238-7.987,23.547-2.011,24.301,10.177c0.736,11.9-0.229,24.133-5.915,30.291c-21.623,23.422-123.005,52.618-205.785,69.859
							c0,0-1.635,37.65-13.68,87.784C1888.613,3366.965,1881.952,3395.774,1881.952,3395.774z"/>
					</g>
				</g>
				<g style="opacity:0.35;">
					<g>
						<path style="fill:#371A45;" d="M1935.889,3217.49c0,0,119.72-18.877,177.772-74.927c0,0-5.719,71.743-109.099,128.098
							c-46.208,25.189-66.96,56.919-80.906,100.591C1923.656,3371.252,1943.341,3272.83,1935.889,3217.49z"/>
					</g>
				</g>
				<g>
					<g>
						<path style="fill:#371A45;" d="M2052.344,3653.423c-40.64,0.005-77.056-15.234-99.961-42.51
							c-47.324-56.348-63.628-166.626-54.106-202.583c17.793-67.202,27.354-146.772,22.725-189.199
							c-0.898-8.237,5.049-15.64,13.286-16.538c8.252-0.898,15.635,5.054,16.538,13.286c5.054,46.372-4.629,128.672-23.545,200.127
							c-7.109,26.846,6.533,126.152,48.071,175.61c20.083,23.906,55.01,35.415,93.423,30.815
							c30.342-3.643,57.104-17.451,65.088-33.574c23.97-48.433-11.021-141.113-26.523-172.739l-3.008-6.138l2.656-6.309
							c57.261-135.444,56.895-248.999,47.974-351.543c-12.314-141.479-49.766-254.512-117.852-355.723
							c-4.624-6.875-2.798-16.196,4.072-20.82c6.88-4.634,16.201-2.793,20.82,4.072c71.035,105.601,110.073,223.125,122.842,369.873
							c9.126,104.834,9.57,220.908-47.637,359.629c12.095,26.626,54.873,129.702,23.54,193.008
							c-12.803,25.864-46.675,45.039-88.398,50.049C2065.601,3653.027,2058.911,3653.423,2052.344,3653.423z"/>
					</g>
				</g>
				<g>
					<g>
						<path style="fill:#371A45;" d="M1993.23,2610.457c7.561,4.573,14.5,9.68,21.318,14.932
							c6.733,5.32,13.274,10.837,19.541,16.633c6.257,5.803,12.485,11.689,17.932,18.274c5.454,6.57,10.525,13.547,14.236,21.592
							c3.525,7.637,0.19,16.685-7.446,20.208c-5.884,2.715-12.607,1.36-16.995-2.9l-0.215-0.217
							c-5.833-5.691-10.742-12.141-15.454-18.85c-4.727-6.689-8.887-13.914-13.12-21.138c-4.229-7.229-8.298-14.639-12.236-22.197
							c-3.855-7.627-7.659-15.337-10.845-23.582c-0.452-1.167,0.129-2.478,1.294-2.93
							C1991.917,2610.02,1992.651,2610.112,1993.23,2610.457z"/>
					</g>
				</g>
				<g>
					<g>
						<path style="fill:#FFFFFF;" d="M1559.903,2624.583"/>
					</g>
				</g>
				<g>
					<g>
						<path style="fill:none;stroke:#293856;stroke-width:30.9179;stroke-linecap:round;stroke-miterlimit:10;" d="
							M1559.903,2624.583"/>
					</g>
				</g>
				<g>
					<g>
						<path style="fill:#FFFFFF;" d="M1987.448,3405.044"/>
					</g>
				</g>
				<g>
					<g>
						<path style="fill:#FFFFFF;" d="M1576.689,2948.734l11.567,32.17l-0.873-14.754
							C1584.502,2960.214,1581.01,2954.365,1576.689,2948.734z"/>
					</g>
				</g>
				<g>
					<g>
						<path style="fill:#371A45;" d="M1754.126,3692.495c-0.469,0-0.933,0-1.401-0.005c-50.381-0.459-93.003-24.834-116.934-66.87
							c-18.257-32.09-28.291-163.242-11.436-206.904c29.321-75.952,27.007-134.443,25.767-165.869
							c-0.029-0.723-0.059-1.426-0.083-2.119c-12.925-9.468-40.684-33.022-57.856-71.021
							c-16.25-35.952-22.529-77.178-28.599-117.051c-6.582-43.184-12.793-83.979-30.811-111.401
							c-4.546-6.924-2.622-16.226,4.302-20.776c6.929-4.536,16.226-2.617,20.776,4.302c21.611,32.905,28.301,76.841,35.386,123.359
							c5.771,37.866,11.733,77.021,26.279,109.214c18.516,40.967,52.72,62.275,53.062,62.485l6.987,4.282l0.21,8.218
							c0.059,2.695,0.181,5.811,0.322,9.321c1.235,31.201,3.804,96.123-27.754,177.856c-13.403,34.727-4.634,156.392,9.521,181.265
							c18.501,32.5,51.719,51.348,91.133,51.709c35.654,0.439,68.56-15.034,82.319-38.213c34.077-57.388,8.198-187.1,7.935-188.403
							l-1.006-4.932l2.173-4.536c34.531-72.202,54.336-146.533,54.336-203.931c0-8.286,6.714-15,15-15s15,6.714,15,15
							c0,60.513-20.063,137.676-55.151,212.393c4.785,26.045,23.706,143.765-12.49,204.722
							C1841.978,3671.821,1800.093,3692.495,1754.126,3692.495z"/>
					</g>
				</g>
				<g>
					<g>
						<path style="fill:#FFFFFF;" d="M1724.807,3448.938"/>
					</g>
				</g>
				<g>
					<g>
						<path style="fill:#371A45;" d="M1908.857,3205.701c8.452-2.607,16.97-4.822,25.527-6.875
							c8.474-2.341,17.017-4.399,25.549-6.484c16.951-4.514,34.099-8.445,50.933-13.43c16.885-4.834,33.689-10.063,50.171-16.226
							c16.44-6.125,33.008-12.751,48.232-21.487l0.132-0.076c0.859-0.491,1.953-0.195,2.446,0.662
							c0.405,0.71,0.271,1.584-0.271,2.141c-6.506,6.672-13.752,12.126-21.162,17.473c-7.388,5.376-15.171,10.122-23.025,14.756
							c-15.784,9.128-32.239,17.017-49.028,24.009c-16.763,7.107-33.904,13.198-51.313,18.345
							c-8.718,2.485-17.505,4.717-26.326,6.792c-8.86,1.86-17.756,3.56-26.719,4.866c-6.843,0.996-13.198-3.743-14.197-10.586
							c-0.901-6.194,2.896-11.99,8.696-13.772L1908.857,3205.701z"/>
					</g>
				</g>
				<g>
					<g>
						<path style="fill:#371A45;" d="M2214.99,2717.734c-10.938,0-17.998-1.558-18.262-1.616
							c-6.719-1.582-10.884-8.315-9.302-15.034s8.252-10.869,15.034-9.302c3.066,0.693,76.611,16.001,106.675-83.262
							c17.905-59.116-23.115-113.403-62.783-165.903c-30.474-40.332-59.258-78.423-59.258-117.271c0-6.904,5.596-12.5,12.5-12.5
							s12.5,5.596,12.5,12.5c0,30.464,26.328,65.308,54.204,102.202c41.416,54.805,88.354,116.929,66.763,188.218
							C2305.83,2705.674,2245.425,2717.734,2214.99,2717.734z"/>
					</g>
				</g>
				<g>
					<g>
						<path style="fill:#FFFFFF;" d="M2101.417,3015.41c-16.446,8.653-35.021,18.032-55.183,27.636
							c12.414-4.848,23.786-9.469,33.889-13.682C2088.188,3025.966,2095.392,3021.209,2101.417,3015.41z"/>
					</g>
				</g>
				<g>
					<g>
						<path style="fill:#371A45;" d="M1768.823,3464.219c9.807-2.744,19.28-6.353,28.059-10.723
							c8.833-4.27,17.056-9.329,24.504-15.095c7.48-5.718,14.233-12.053,20.405-18.835c1.484-1.755,3.271-3.203,4.641-5.068
							c1.431-1.802,2.927-3.54,4.473-5.249c3.027-3.472,5.613-7.332,8.926-10.75l1.155-1.191c4.802-4.954,12.71-5.078,17.666-0.276
							c4.006,3.884,4.841,9.817,2.478,14.558c-5.029,10.056-11.758,19.431-20.161,27.148c-8.098,8.027-17.957,14.116-28.03,19.014
							c-10.098,4.939-20.847,8.215-31.66,9.971c-10.84,1.687-21.726,2.063-32.466,0.068c-0.984-0.183-1.633-1.128-1.45-2.112
							c0.129-0.701,0.647-1.233,1.292-1.414L1768.823,3464.219z"/>
					</g>
				</g>
				<g>
					<g>
						<path style="fill:#371A45;" d="M2042.117,3447.173c18.108-8.438,34.309-19.326,47.371-32.305
							c6.594-6.436,12.361-13.416,17.603-20.649c5.547-7.048,9.824-14.829,15.159-22.322l0.669-0.938
							c4.011-5.635,11.831-6.951,17.466-2.939c4.688,3.337,6.379,9.321,4.507,14.478c-3.757,10.342-9.265,20.198-16.57,28.594
							c-6.992,8.652-15.798,15.679-24.985,21.56c-9.197,5.925-19.131,10.444-29.341,13.54c-10.244,3.032-20.684,4.878-31.331,4.512
							c-1.001-0.034-1.785-0.874-1.75-1.875c0.024-0.706,0.447-1.301,1.045-1.582L2042.117,3447.173z"/>
					</g>
				</g>
				<g>
					<g>
						<path style="fill:#FFFFFF;" d="M1415.03,3393.967c27.909,8.064,148.649,32.439,145.342-81.143
							c-0.68-23.967-8.472-62.613-7.929-62.658s64.108,32.756,82.094-1.812c6.524-12.55,4.531-24.103-2.356-34.342
							c-1.857-2.764-4.123-5.482-6.66-8.064c-21.883-22.291-65.603-36.743-84.179-39.145c0,0,0.136-1.54,0.408-4.395
							c1.631-17.533,8.427-84.496,20.977-142.487c6.796-31.307,15.268-60.031,25.507-76.93l-8.88-62.432l-4.123-29.177
							l-13.728-96.547l-6.932-48.614c-1.586,0-107.919,0.453-148.83,122.508c-0.091,0.226-0.136,0.453-0.227,0.679
							c-24.465,73.713-29.313,209.812-17.624,394.887C1391.198,3276.625,1356.041,3376.841,1415.03,3393.967z"/>
					</g>
				</g>
				<g style="opacity:0.35;">
					<g>
						<path style="fill:#371A45;" d="M1525.622,3180.938c4.938,3.489,10.511-5.029,16.129-18.53
							c1.631-17.533,8.427-84.496,20.977-142.487c14.543,49.927,20.297,103.116,43.131,153.587
							c5.663,12.504,12.55,23.333,19.663,32.439c2.22,2.854,4.44,5.527,6.66,8.064c16.809,19.074,32.575,28.588,32.575,28.588
							c0.091,4.984,0.453,11.326,0.68,18.893l17.262-1.993c0,0,1.405-33.048-2.983-71.692c-2.3-20.257,11.472-38.661,31.545-42.224
							c33.77-5.993,75.966-18.739,126.158-43.659c0,0,25.417-63.383-27.139-81.687c0,0-90.884,58.49-172.48,46.439
							c-15.223-34.659-28.362-81.596-20.796-152.002c5.527-51.332-11.236-52.283-29.404-40.458c-2.99,1.993-5.754,4.078-8.246,6.343
							c-17.488,15.54-23.786,37.695-29.857,65.06c-0.861,3.942-1.948,8.291-3.126,13.048
							c-9.65,38.419-28.633,101.712-36.879,171.755C1502.062,3193.624,1525.622,3180.938,1525.622,3180.938z"/>
					</g>
				</g>
				<g>
					<g>
						<path style="fill:#371A45;" d="M1592.664,2945.691c-4.536,18.03-7.471,36.169-10.601,54.631l-4.839,27.632l-4.595,27.832
							l-8.789,56.04c-2.825,18.704-5.168,37.683-7.024,56.326l-13.494-16.753c8.115,1.223,14.988,3.062,21.96,5.098
							c6.912,2.068,13.647,4.446,20.293,7.134c13.267,5.427,26.238,11.899,38.577,20.896c6.138,4.556,12.168,9.709,17.524,16.404
							c5.273,6.636,10.127,15.049,11.738,25.173c1.624,10.125-0.686,20.723-4.875,28.796c-2.271,4.331-5.208,8.767-9.167,12.351
							c-3.887,3.601-8.428,6.445-13.052,8.374c-9.312,3.74-18.289,4.304-26.414,3.931c-8.137-0.466-15.701-1.917-22.92-3.838
							c-7.222-1.926-14.116-4.326-20.833-7.053l-5.002-2.109l-4.597-2.073c-1.091-0.54,1.03,0.791,4.9,1.157
							c0.723,7.556,26.755-23.928,16.404-15.557l-0.046-0.889l0.112,0.796l0.364,2.283l0.811,4.897
							c2.214,13.301,4.353,26.79,5.742,40.754c0.708,6.931,1.147,14.368,0.959,21.77c-0.039,7.383-0.742,14.927-2.085,22.502
							c-2.544,15.071-9.009,30.764-19.875,43.411c-10.925,12.651-25.757,21.24-40.549,25.713
							c-14.88,4.709-29.851,6.028-44.387,5.967c-14.558-0.183-28.779-1.836-42.781-4.705c-3.508-0.742-6.997-1.509-10.525-2.432
							c-1.785-0.457-3.472-0.903-5.41-1.504l-6.204-2.183c-8.237-3.372-16.201-9.016-22.039-16.147
							c-5.898-7.109-9.634-15.195-12.051-22.979c-2.395-7.825-3.567-15.481-4.224-22.917c-1.272-14.897-0.437-28.992,0.701-42.754
							c1.213-13.723,2.905-27.112,4.297-40.173c1.353-13.079,2.49-25.737,1.729-37.434l-2.288-40.229
							c-1.362-26.838-2.483-53.701-3.088-80.613s-0.891-53.855-0.376-80.854c0.469-26.997,1.443-54.036,3.706-81.135
							c2.249-27.092,5.486-54.248,11.165-81.406c1.379-6.787,3.201-13.574,4.854-20.356l3.04-10.161l1.553-5.071l1.924-4.993
							c2.659-6.626,4.954-13.379,7.964-19.878c3.293-6.399,6.477-12.854,9.924-19.175c3.984-6.057,7.856-12.188,12.007-18.14
							l6.863-8.523c2.327-2.808,4.363-5.869,7.043-8.391c5.186-5.171,9.919-10.867,15.767-15.391l8.533-7.046
							c3.03-2.104,6.169-4.055,9.258-6.074c12.571-7.676,26.262-13.657,40.618-16.563c7.148-1.506,14.443-2.3,21.755-2.207
							c7.371,0.134,14.473,0.798,21.975,3.225c2.832,0.918,4.385,3.955,3.467,6.787c-0.488,1.514-1.584,2.661-2.93,3.262
							l-0.581,0.259c-12.051,5.325-23.813,10.53-34.856,15.803c-2.751,1.401-5.559,2.581-8.259,3.994
							c-2.661,1.499-5.393,2.788-8.079,4.172c-2.654,1.438-5.161,3.137-7.803,4.561l-3.909,2.234l-3.726,2.522
							c-2.51,1.638-4.973,3.335-7.537,4.897l-7.131,5.483c-5.022,3.35-9.087,7.861-13.638,11.841
							c-4.375,4.175-8.01,9.104-12.007,13.679c-3.552,4.958-6.743,10.21-10.173,15.276c-24.69,42.751-31.677,95.706-36.265,147.886
							c-2.192,26.213-3.149,52.666-3.608,79.148c-0.505,26.482-0.225,53.042,0.374,79.609c0.596,26.567,1.704,53.157,3.054,79.744
							l2.268,39.88c0.93,15.034-0.469,29.128-1.838,42.627c-1.445,13.533-3.103,26.687-4.243,39.607
							c-1.084,12.866-1.736,25.596-0.701,37.371c0.938,11.755,3.887,22.537,9.292,28.884c2.681,3.21,5.923,5.552,10.044,7.292
							l3.259,1.135c1.252,0.398,2.798,0.811,4.25,1.179c2.944,0.774,5.986,1.438,9.021,2.083c24.29,4.871,50.137,6.179,71.672-0.466
							c10.75-3.269,19.819-8.85,26.455-16.458c6.523-7.7,10.95-17.52,12.842-28.765c0.977-5.591,1.563-11.406,1.58-17.39
							c0.159-5.977-0.171-11.909-0.818-18.284c-1.255-12.654-3.286-25.605-5.469-38.682l-0.828-4.998l-0.422-2.671l-0.234-1.687
							c-0.042-0.488-0.098-0.486-0.166-2.139c-10.339,8.254,15.601-23.728,16.589-15.964c4.065,0.437,6.382,1.846,5.479,1.396
							l4.546,2.048l4.238,1.79c5.674,2.302,11.438,4.297,17.139,5.815c5.698,1.526,11.348,2.537,16.57,2.839
							c5.195,0.273,9.846-0.339,12.996-1.628c3.071-1.409,4.768-2.92,6.428-6.077c1.887-3.816,2.339-6.921,1.938-10.061
							c-0.813-6.304-7.71-14.854-17.056-21.494c-9.277-6.797-20.376-12.471-31.848-17.134c-5.75-2.327-11.638-4.404-17.539-6.169
							c-5.837-1.772-11.965-3.252-17.102-3.879l-14.739-1.797l1.245-14.954c1.621-19.507,3.65-38.594,5.747-57.878
							c2.124-19.241,4.888-38.447,8.506-57.563l2.883-14.321l3.403-14.263c1.094-4.751,2.349-9.504,3.765-14.221
							c1.392-4.729,2.693-9.424,4.443-14.102c1.689-4.673,3.391-9.316,5.273-13.916c2.148-4.573,4.17-9.158,6.411-13.633
							c2.397-4.468,5.083-8.887,7.803-13.145c2.837-4.28,6.421-8.311,9.778-12.097c1.914-2.156,5.212-2.354,7.371-0.439
							c1.504,1.335,2.053,3.345,1.599,5.171L1592.664,2945.691z"/>
					</g>
				</g>
				<g style="opacity:0.35;">
					<g>
						<path style="fill:#371A45;" d="M1415.068,3393.997c27.849,8.075,148.63,32.432,145.313-81.146
							c-0.306-10.258-1.309-21.52-2.576-31.778c-22.786,68.182-122.328,72.088-140.774,55.147
							c-24.522-22.52-23.381-73.784-26.524-95.086C1384.92,3290.111,1373.251,3381.862,1415.068,3393.997z"/>
					</g>
				</g>
				<g style="opacity:0.35;">
					<g>
						<path style="fill:#371A45;" d="M2131.022,2913.265c-25.847-49.976-43.903-98.312-56.4-142.545
							c9.575,24.748,20.881,50.296,34.351,76.318c15.767,30.528,28.639,63.617,36.818,97.615
							C2141.246,2933.964,2136.283,2923.474,2131.022,2913.265z"/>
					</g>
				</g>
				<g>
					<g>
						<circle style="fill:#FFFFFF;" cx="2127.081" cy="2887.98" r="49.007"/>
					</g>
				</g>
				<g style="opacity:0.35;">
					<g>
						<path style="fill:#371A45;" d="M2173.615,2872.639c8.47,25.706-5.479,53.428-31.185,61.899
							c-25.706,8.47-53.441-5.516-61.911-31.222c-2.34-7.102-2.98-14.394-2.082-21.374c12.651,13.258,32.299,18.879,50.866,12.761
							c18.568-6.118,31.024-22.319,33.279-40.488C2167.454,2859.293,2171.275,2865.538,2173.615,2872.639z"/>
					</g>
				</g>
				<g>
					<g>
						<path style="fill:#371A45;" d="M2127.017,2952.48c-9.946,0-19.824-2.329-28.965-6.938
							c-15.376-7.754-26.812-21.03-32.197-37.383c-5.391-16.357-4.087-33.828,3.667-49.204c7.749-15.376,21.03-26.812,37.383-32.202
							c33.774-11.123,70.283,7.295,81.406,41.05v0.005c11.118,33.76-7.3,70.278-41.055,81.401
							C2140.62,2951.396,2133.804,2952.48,2127.017,2952.48z M2127.056,2854.429c-3.472,0-7.002,0.542-10.474,1.689
							c-8.511,2.803-15.42,8.755-19.458,16.758c-4.033,7.998-4.712,17.095-1.904,25.605c2.803,8.511,8.755,15.42,16.753,19.453
							c8.008,4.033,17.1,4.712,25.605,1.909c17.568-5.791,27.153-24.795,21.367-42.368
							C2154.297,2863.384,2141.147,2854.429,2127.056,2854.429z"/>
					</g>
				</g>
				<g>
					<g>
						<path style="fill:#FFFFFF;" d="M2116.609,3019.436l-240.816,95.55c-28.499,11.318-61.098-2.747-72.428-31.282l-50.84-128.153
							c-9.914-24.984-0.347-53.067,21.339-67.265c3.061-2.034,6.392-3.746,9.944-5.163l240.779-95.538
							c28.536-11.331,61.135,2.734,72.428,31.283l40.291,101.491l10.585,26.649
							C2159.222,2975.543,2145.108,3008.118,2116.609,3019.436z"/>
					</g>
				</g>
				<g style="opacity:0.35;">
					<g>
						<path style="fill:#371A45;" d="M2116.609,3019.436l-240.816,95.55c-28.499,11.318-61.098-2.747-72.428-31.282l-50.84-128.153
							c-9.914-24.984-0.347-53.067,21.339-67.265c17.278,3.656,28.267,6.021,28.267,6.021
							c52.54,98.214,102.184,137.886,230.748,89.289c55.49-20.991,86.957-43.21,104.427-63.236l10.585,26.649
							C2159.222,2975.543,2145.108,3008.118,2116.609,3019.436z"/>
					</g>
				</g>
				<g>
					<g>
						<path style="fill:#371A45;" d="M1855.322,3131.426c-27.188,0-52.939-16.338-63.56-43.101l-50.859-128.169
							c-6.704-16.895-6.401-35.444,0.845-52.231c7.251-16.787,20.547-29.722,37.446-36.426l240.796-95.552
							c16.895-6.704,35.454-6.406,52.231,0.845c16.787,7.251,29.722,20.547,36.426,37.446l50.859,128.169
							c6.704,16.895,6.406,35.444-0.845,52.231s-20.547,29.722-37.446,36.426l-240.796,95.552
							C1872.183,3129.883,1863.687,3131.426,1855.322,3131.426z M1875.811,3114.995h0.049H1875.811z M2045.054,2796.143
							c-5.366,0-10.728,1.016-15.845,3.042l-240.796,95.552c-10.688,4.238-19.111,12.446-23.711,23.101
							c-4.604,10.654-4.8,22.407-0.562,33.101L1815,3079.106c8.799,22.188,34.033,33.076,56.201,24.268l240.796-95.547
							c10.688-4.243,19.111-12.446,23.711-23.101c4.604-10.659,4.8-22.412,0.562-33.101l-50.864-128.169
							c-4.238-10.688-12.441-19.111-23.096-23.711C2056.753,2797.344,2050.903,2796.143,2045.054,2796.143z"/>
					</g>
				</g>
				<g>
					<g>
						<path style="fill:#FFFFFF;" d="M2125.899,3014.653c-2.864,1.887-5.948,3.477-9.29,4.783l-240.816,95.55
							c-20.89,8.278-43.962,2.965-59.269-11.755c-5.573-5.339-10.119-11.919-13.122-19.54l-22.612-56.924l-7.46-18.781
							l-20.805-52.435c-11.33-28.535,2.784-61.11,31.283-72.428l52.04-20.634c-22.191,14.037-32.066,42.426-22.067,67.67
							l27.446,69.231l23.405,58.959c11.318,28.499,43.929,42.601,72.428,31.282L2125.899,3014.653z"/>
					</g>
				</g>
				<g style="opacity:0.35;">
					<g>
						<path style="fill:#371A45;" d="M2125.899,3014.653c-2.864,1.887-5.948,3.477-9.29,4.783l-240.816,95.55
							c-28.499,11.318-61.098-2.747-72.391-31.295l-30.072-75.705c11.366,10.975,28.762,23.079,46.859,17.895
							c9.935-2.823,16.61-13.427,21.039-26.491l23.405,58.959c11.318,28.499,43.929,42.601,72.428,31.282L2125.899,3014.653z"/>
					</g>
				</g>
				<g>
					<g>
						<path style="fill:#371A45;" d="M1855.352,3131.436c-9.209,0-18.423-1.89-27.163-5.669
							c-16.792-7.251-29.727-20.557-36.421-37.456l-50.854-128.159c-6.709-16.885-6.411-35.439,0.84-52.227
							c7.246-16.782,20.547-29.722,37.441-36.436l52.021-20.635l11.299,22.178c-17.573,11.138-24.766,33.228-17.109,52.529
							l50.859,128.164c4.233,10.693,12.437,19.116,23.091,23.721c10.649,4.604,22.393,4.8,33.081,0.562l188.867-74.961
							l11.411,22.104c-3.638,2.358-7.529,4.351-11.567,5.928l-240.742,95.532
							C1872.314,3129.829,1863.833,3131.436,1855.352,3131.436z M1800.254,2890.029l-11.836,4.697
							c-10.688,4.243-19.111,12.456-23.716,23.11c-4.6,10.654-4.8,22.407-0.552,33.091l50.859,128.174
							c4.233,10.688,12.437,19.111,23.091,23.716c10.649,4.604,22.393,4.805,33.081,0.562l13.389-5.313
							c-14.424-7.593-25.518-19.902-31.548-35.127l-50.854-128.159C1796.333,2920.073,1795.962,2904.346,1800.254,2890.029z"/>
					</g>
				</g>
				<g>
					<g>
						<path style="fill:#22A7F0;" d="M1934.574,2957.617c1.853,4.75,10.135,45.698,10.135,45.698s-12.146,4.739-27.061,10.558
							c-18.634,7.27-41.267-6.129-50.553-29.929c-9.286-23.8-1.708-48.987,16.926-56.257c12.575-4.906,27.061-10.559,27.061-10.559
							S1931.555,2949.879,1934.574,2957.617z"/>
					</g>
				</g>
				<g style="opacity:0.35;">
					<g>
						<path style="fill:#371A45;" d="M1934.574,2957.617c1.853,4.75,10.135,45.698,10.135,45.698s-12.146,4.739-27.061,10.558
							c-18.634,7.27-41.267-6.129-50.553-29.929c-9.286-23.8-1.708-48.987,16.926-56.257c12.575-4.906,27.061-10.559,27.061-10.559
							S1931.555,2949.879,1934.574,2957.617z"/>
					</g>
				</g>
				<g>
					<g>
						<g>
							<path style="fill:#371A45;" d="M1912.168,3018.325c-18.97,0-38.34-14.307-47.061-36.655
								c-5.098-13.062-5.879-26.987-2.202-39.209c3.877-12.881,12.183-22.383,23.394-26.758l18.892-7.373
								c8.12-3.164,17.349-0.078,21.914,7.363c11.128,18.13,17.681,29.639,19.458,34.199v0.005
								c0.474,1.206,1.719,4.409,8.711,38.208c1.777,8.633-2.891,17.222-11.104,20.425l-18.799,7.329
								C1921.089,3017.529,1916.641,3018.325,1912.168,3018.325z M1911.743,2922.095c-0.371,0-0.742,0.068-1.104,0.21l-18.892,7.373
								c-6.816,2.661-11.963,8.735-14.478,17.104c-2.72,9.028-2.075,19.482,1.812,29.438c7.769,19.907,26.104,31.406,40.84,25.664
								l18.799-7.329c1.377-0.537,2.158-1.973,1.865-3.418c-6.304-30.459-7.769-35.166-8.003-35.811
								c-1.392-3.545-8.218-15.42-18.267-31.787C1913.755,2922.617,1912.769,2922.095,1911.743,2922.095z"/>
						</g>
					</g>
					<g>
						<g>
							
								<ellipse transform="matrix(0.9316 -0.3635 0.3635 0.9316 -941.9583 904.7004)" style="fill:#22A7F0;" cx="1932.896" cy="2955.223" rx="36.216" ry="46.257"/>
						</g>
					</g>
					<g style="opacity:0.35;">
						<g>
							<path style="fill:#371A45;" d="M1900.794,2925.671c0.618,4.211,1.711,8.484,3.362,12.715
								c9.286,23.8,31.919,37.199,50.553,29.929c6.565-2.561,11.721-7.377,15.288-13.541c2.855,19.472-4.967,37.564-20.288,43.541
								c-18.634,7.27-41.267-6.129-50.553-29.929C1893.142,2952.971,1894.238,2937.005,1900.794,2925.671z"/>
						</g>
					</g>
					<g style="opacity:0.6;">
						<g>
							<path style="fill:#FFFFFF;" d="M1961.635,2957.059c-9.286-23.799-31.919-37.199-50.553-29.929
								c-6.613,2.58-11.798,7.444-15.368,13.673c1.881-13.268,9.076-24.268,20.368-28.673c18.634-7.27,41.267,6.129,50.553,29.929
								c5.99,15.355,4.928,31.258-1.56,42.583C1966.298,2976.014,1965.294,2966.437,1961.635,2957.059z"/>
						</g>
					</g>
					<g>
						<g>
							<path style="fill:#371A45;" d="M1939.229,3007.769c-18.97,0-38.34-14.307-47.061-36.655
								c-10.767-27.617-1.265-57.212,21.191-65.972c22.456-8.765,49.487,6.582,60.264,34.194
								c5.098,13.062,5.879,26.987,2.202,39.209c-3.877,12.886-12.183,22.383-23.394,26.758
								C1948.149,3006.973,1943.701,3007.769,1939.229,3007.769z M1926.777,2917.632c-2.715,0-5.396,0.479-7.969,1.484
								c-14.746,5.757-20.43,26.636-12.666,46.548c7.769,19.907,26.094,31.416,40.84,25.664c6.816-2.661,11.963-8.735,14.478-17.104
								c2.72-9.028,2.075-19.482-1.812-29.438C1953.232,2928.35,1939.629,2917.632,1926.777,2917.632z"/>
						</g>
					</g>
				</g>
				<g>
					<g>
						<path style="fill:#371A45;" d="M2041.382,3060.718c-5.083,0-9.858-3.125-11.724-8.169l-30.444-82.344
							c-3.164-8.569-1.831-18.076,3.56-25.435l21.553-29.453c0.435-0.591,0.532-1.353,0.264-2.031l-42.705-108.716
							c-2.524-6.426,0.64-13.682,7.065-16.206c6.421-2.51,13.682,0.64,16.206,7.065l42.705,108.716
							c3.413,8.701,2.158,18.394-3.359,25.938l-21.558,29.458c-0.425,0.581-0.527,1.328-0.278,2.002l30.439,82.334
							c2.393,6.475-0.913,13.667-7.388,16.06C2044.287,3060.464,2042.822,3060.718,2041.382,3060.718z"/>
					</g>
				</g>
				<g>
					<g>
						<path style="fill:#FFFFFF;" d="M1572.086,3008.776c0,0-16.762,23.842-10.053,52.128c7.757,32.704,30.649,40.813,30.649,40.813
							s96.874,23.403,224.112-42.137c0,0,25.399-63.375-27.194-81.678C1789.599,2977.902,1652.237,3035.855,1572.086,3008.776z"/>
					</g>
				</g>
				<g style="opacity:0.35;">
					<g>
						<path style="fill:#371A45;" d="M1562.048,3060.923c7.747,32.666,30.627,40.775,30.627,40.775s96.864,23.423,224.129-42.135
							c0,0,8.336-20.886,5.527-42.09c-0.363,1.178-0.634,1.813-0.634,1.813c-93.001,47.924-169.78,48.297-204.354,45.031
							c-24.017-2.269-44.312-19.296-50.164-42.699c-0.081-0.322-0.159-0.646-0.237-0.972c-0.136-0.544-0.272-1.087-0.317-1.631
							C1562.455,3028.619,1558.015,3043.978,1562.048,3060.923z"/>
					</g>
				</g>
				<g>
					<g>
						<path style="fill:#371A45;" d="M1638.56,3121.323c-29.771,0-47.783-4.16-49.507-4.58l-1.533-0.454
							c-11.45-4.058-32.871-19.536-40.527-51.816c-8.223-34.658,11.597-63.384,12.446-64.59l6.646-9.453l10.947,3.701
							c73.628,24.858,205.244-29.917,206.563-30.474l5.474-2.305l5.615,1.948c17.593,6.123,30.586,17.471,37.568,32.813
							c13.77,30.229,0.454,65.317-1.108,69.219l-2.148,5.352l-5.122,2.642C1747.036,3112.9,1680.903,3121.318,1638.56,3121.323z
							 M1597.402,3086.919c10.586,2.095,96.494,16.592,206.758-38.271c2.813-9.79,5.747-27.119-0.088-39.814
							c-2.852-6.206-7.617-10.903-14.492-14.243c-26.729,10.547-133.882,49.771-209.565,32.451
							c-2.969,7.456-5.732,18.525-2.939,30.293C1581.997,3078.101,1594.243,3085.361,1597.402,3086.919z"/>
					</g>
				</g>
				<g>
					<g>
						<path style="fill:#371A45;" d="M2028.081,3385.537c-32.485,0-68.877-8.32-106.147-32.432
							c-4.639-3.003-5.967-9.194-2.969-13.828c3.003-4.634,9.204-5.957,13.828-2.969c107.778,69.717,207.129-6.929,208.12-7.71
							c4.336-3.418,10.62-2.686,14.043,1.65s2.686,10.625-1.65,14.043C2152.544,3344.893,2099.868,3385.537,2028.081,3385.537z"/>
					</g>
				</g>
				<g>
					<g>
						<path style="fill:#371A45;" d="M1767.773,3382.979c-35.215,0-74.106-8.423-112.373-33.174
							c-4.639-3.003-5.967-9.194-2.969-13.828c3.003-4.634,9.189-5.957,13.828-2.969c108.286,70.063,222.627-4.136,223.765-4.897
							c4.6-3.052,10.811-1.792,13.862,2.808c3.052,4.604,1.792,10.811-2.808,13.862
							C1900.229,3345.342,1842.217,3382.979,1767.773,3382.979z"/>
					</g>
				</g>
				<g>
					<g>
						<path style="fill:#371A45;" d="M1549.277,3108.047c-1.104,0-2.231-0.186-3.335-0.576
							c-1.089-0.381-109.502-38.149-157.529-1.475c-4.399,3.35-10.674,2.505-14.019-1.88c-3.35-4.39-2.51-10.664,1.88-14.019
							c56.631-43.232,171.489-3.198,176.353-1.475c5.205,1.846,7.925,7.559,6.079,12.764
							C1557.251,3105.488,1553.394,3108.047,1549.277,3108.047z"/>
					</g>
				</g>
				<g>
					<g>
						<path style="fill:#371A45;" d="M2149.097,2438.423c-142.559,0-166.953-131.904-167.188-133.271
							c-0.938-5.444,2.715-10.615,8.154-11.553c5.503-0.981,10.61,2.71,11.553,8.145c0.898,5.112,23.174,122.437,157.393,116.455
							c0.151-0.005,0.303-0.01,0.459-0.01c5.313,0,9.736,4.185,9.98,9.551c0.249,5.518-4.023,10.19-9.541,10.439
							C2156.24,2438.345,2152.622,2438.423,2149.097,2438.423z"/>
					</g>
				</g>
				<g>
					<g style="opacity:0.35;">
						<g>
							<path style="fill:#371A45;" d="M1405.742,2828.729c29.811,11.779,61.344,19.346,93.738,22.064
								c17.261,1.45,35.565,2.129,54.775,1.586c6.886-0.181,13.864-0.498,20.976-0.997c61.118-4.304,130.028-20.795,201.793-59.487
								c101.757-54.956,163.102-129.62,199.981-196.628c-11.191-12.142-22.109-23.378-31.397-33.254l-12.731,10.783l-20.705,4.802
								l-343.51,80.01l-2.99,40.323l-1.314,18.077l-2.854,38.827l-6.932-48.614
								C1552.986,2706.222,1446.653,2706.675,1405.742,2828.729z"/>
						</g>
					</g>
					<g>
						<g>
							<g>
								<path style="fill:#FFFFFF;" d="M2005.794,2250.033c6.907,80.68-6.308,163.419-41.218,240.374
									c-7.127,15.689-15.107,31.11-24.018,46.217c-4.313,7.364-8.907,14.667-13.669,21.937
									c-14.467,21.827-30.393,42.083-47.597,60.75c-14.789,16.125-30.556,31.046-47.065,44.755
									c-19.929,16.566-41.032,31.328-63.017,44.291c-8.034,4.7-16.167,9.174-24.399,13.421
									c-150.846,77.416-337.936,73.298-489.302-27.057c-223.007-147.786-283.946-448.372-136.194-671.356
									c28.487-42.926,62.621-79.936,100.818-110.484c4.43-3.613,8.984-7.111,13.603-10.508
									c12.294-9.17,24.952-17.705,37.942-25.584c30.047-18.214,61.859-32.975,94.737-44.166
									c32.856-11.224,66.867-18.89,101.3-22.857c10.948-1.268,21.937-2.175,32.99-2.687c16.561-0.758,33.159-0.716,49.827,0.251
									c82.977,4.58,165.883,30.624,240.163,79.875C1918.982,1972.21,1993.611,2107.767,2005.794,2250.033z"/>
							</g>
							<g>
								<path style="fill:#371A45;" d="M1523.257,2776.738c-94.019,0-187.656-27.153-268.56-80.791
									c-223.306-147.988-284.585-450.073-136.606-673.394c28.096-42.341,62.119-79.624,101.123-110.82
									c4.224-3.44,8.818-6.99,13.652-10.544c12.256-9.141,25.063-17.776,38.052-25.657c29.839-18.088,61.807-32.993,95.024-44.302
									c32.876-11.23,67.061-18.945,101.606-22.925c11.069-1.284,22.202-2.19,33.086-2.695c16.943-0.776,33.755-0.686,49.98,0.251
									c85.674,4.729,168.975,32.434,240.889,80.12c124.365,82.402,203.008,215.049,215.757,363.926l0,0
									c7.061,82.544-7.236,165.913-41.348,241.104c-7.222,15.908-15.327,31.509-24.092,46.362
									c-3.965,6.772-8.447,13.965-13.701,21.992c-14.312,21.587-30.371,42.09-47.749,60.942
									c-14.531,15.845-30.415,30.947-47.207,44.883c-19.644,16.333-40.908,31.279-63.208,44.429
									c-7.988,4.678-16.221,9.204-24.473,13.462C1675.557,2758.97,1599.282,2776.738,1523.257,2776.738z M1523.423,1808.025
									c-7.5,0-15.063,0.173-22.651,0.52c-10.815,0.503-21.88,1.404-32.886,2.681c-34.341,3.955-68.315,11.621-100.996,22.786
									c-33.018,11.24-64.79,26.055-94.448,44.033c-12.91,7.832-25.64,16.414-37.827,25.505c-4.805,3.533-9.36,7.051-13.555,10.469
									c-38.774,31.013-72.593,68.074-100.518,110.156c-147.085,221.973-86.177,522.231,135.776,669.321
									c145.449,96.436,332.368,106.763,487.822,26.973c8.203-4.233,16.392-8.735,24.326-13.384
									c22.158-13.066,43.296-27.92,62.822-44.15c16.689-13.857,32.476-28.867,46.919-44.614
									c17.271-18.745,33.237-39.121,47.456-60.571c5.225-7.979,9.683-15.132,13.623-21.865
									c8.716-14.771,16.772-30.273,23.95-46.084c33.906-74.736,48.115-157.603,41.094-239.639l0,0
									c-12.671-147.979-90.835-279.827-214.448-361.731c-71.479-47.397-154.277-74.934-239.434-79.634
									C1541.592,1808.281,1532.559,1808.025,1523.423,1808.025z"/>
							</g>
						</g>
						<g style="opacity:0.35;">
							<g>
								<path style="fill:#371A45;" d="M1255.505,2694.708c151.362,100.379,338.477,104.491,489.308,27.053
									c8.239-4.237,16.368-8.705,24.385-13.407c21.997-12.956,43.086-27.732,63.023-44.28c16.5-13.724,32.284-28.639,47.063-44.75
									c17.22-18.67,33.136-38.921,47.618-60.759c4.732-7.281,9.336-14.568,13.67-21.929c8.906-15.118,16.859-30.552,23.998-46.236
									c34.909-76.956,48.147-159.684,41.223-240.383c-3.786-44.321-13.648-88.022-29.306-129.727
									c4.84,77.144-8.74,155.808-42.041,229.228c-7.103,15.708-15.092,31.118-23.998,46.236
									c-4.304,7.354-8.907,14.641-13.67,21.929c-14.483,21.838-30.398,42.089-47.587,60.753
									c-14.81,16.117-30.563,31.026-47.063,44.75c-19.937,16.547-41.057,31.33-63.022,44.281
									c-8.049,4.706-16.178,9.175-24.417,13.412c-150.832,77.438-337.916,73.319-489.308-27.053
									c-88.332-58.528-151.2-141.045-185.771-233.179C1048.711,2467.009,1123.871,2607.489,1255.505,2694.708z"/>
							</g>
						</g>
						<g>
							<g>
								<path style="fill:#371A45;" d="M1523.257,2786.582c-95.928,0-191.455-27.705-273.999-82.432
									c-227.827-150.981-290.352-459.189-139.375-687.036c28.667-43.196,63.379-81.235,103.184-113.069
									c4.277-3.486,9.004-7.139,13.965-10.789c12.456-9.287,25.522-18.098,38.779-26.143
									c30.449-18.459,63.071-33.667,96.958-45.203c33.53-11.455,68.408-19.326,103.652-23.386
									c11.289-1.309,22.646-2.234,33.76-2.749c17.285-0.791,34.443-0.701,51.006,0.256
									c87.393,4.824,172.388,33.091,245.762,81.741c126.88,84.072,207.114,219.404,220.122,371.294l0,0
									c7.207,84.219-7.383,169.287-42.192,246.011c-7.368,16.23-15.635,32.139-24.575,47.295
									c-4.033,6.89-8.604,14.219-13.945,22.383c-14.629,22.07-31.016,42.983-48.745,62.222
									c-14.819,16.157-31.025,31.567-48.159,45.791c-20.044,16.665-41.743,31.919-64.497,45.332
									c-8.164,4.78-16.548,9.395-24.956,13.73C1678.647,2768.452,1600.82,2786.582,1523.257,2786.582z M1523.418,1817.871
									c-7.349,0-14.761,0.168-22.197,0.51c-10.586,0.491-21.421,1.375-32.202,2.625c-33.647,3.875-66.934,11.387-98.945,22.324
									c-32.354,11.013-63.481,25.522-92.529,43.132c-12.637,7.671-25.103,16.074-37.046,24.98
									c-4.722,3.474-9.15,6.895-13.218,10.208c-38.047,30.432-71.172,66.736-98.535,107.969
									c-144.082,217.441-84.414,511.577,133.013,655.669c142.476,94.463,325.596,104.59,477.886,26.421
									c8.032-4.141,16.064-8.56,23.848-13.12c21.68-12.783,42.383-27.334,61.504-43.228
									c16.353-13.574,31.812-28.276,45.957-43.696c16.934-18.379,32.578-38.34,46.509-59.355
									c5.103-7.793,9.473-14.81,13.33-21.401c8.55-14.497,16.445-29.688,23.481-45.181
									c33.208-73.198,47.129-154.365,40.249-234.727l0,0c-12.412-144.966-88.984-274.128-210.078-354.365
									c-70.024-46.431-151.123-73.406-234.536-78.01C1541.221,1818.123,1532.368,1817.871,1523.418,1817.871z"/>
							</g>
						</g>
						<g>
							<g>
								<path style="fill:#371A45;" d="M1523.252,2789.863c-96.548,0-192.729-27.896-275.811-82.974
									c-229.336-151.987-292.271-462.231-140.293-691.587c28.853-43.484,63.799-81.775,103.867-113.821
									c4.297-3.501,9.067-7.188,14.072-10.869c12.52-9.336,25.674-18.206,39.019-26.304
									c30.654-18.584,63.491-33.892,97.607-45.505c33.745-11.531,68.853-19.451,104.331-23.538
									c11.362-1.318,22.798-2.251,33.979-2.769c17.402-0.791,34.673-0.706,51.353,0.259
									c87.964,4.856,173.525,33.311,247.383,82.283c127.725,84.629,208.486,220.854,221.577,373.75l0,0
									c7.256,84.775-7.427,170.41-42.471,247.646c-7.417,16.333-15.737,32.349-24.736,47.607
									c-4.058,6.924-8.652,14.302-14.028,22.515c-14.736,22.227-31.23,43.281-49.077,62.646
									c-14.912,16.255-31.23,31.772-48.472,46.089c-20.176,16.772-42.026,32.129-64.932,45.635
									c-8.218,4.814-16.66,9.453-25.117,13.823C1679.668,2771.616,1601.343,2789.863,1523.252,2789.863z M1523.418,1821.152
									c-7.3,0-14.658,0.168-22.051,0.508c-10.503,0.486-21.265,1.362-31.973,2.605c-33.413,3.85-66.47,11.309-98.262,22.17
									c-32.129,10.938-63.042,25.347-91.885,42.834c-12.554,7.615-24.932,15.959-36.787,24.805
									c-4.697,3.455-9.082,6.841-13.105,10.122c-37.808,30.237-70.703,66.289-97.876,107.239
									c-143.081,215.933-83.828,508.027,132.09,651.118c141.494,93.804,323.33,103.857,474.575,26.235
									c7.974-4.111,15.952-8.501,23.691-13.032c21.519-12.686,42.075-27.134,61.06-42.92c16.24-13.481,31.592-28.081,45.64-43.394
									c16.821-18.252,32.354-38.076,46.187-58.95c5.063-7.729,9.409-14.702,13.237-21.245
									c8.496-14.404,16.338-29.487,23.325-44.878c32.979-72.686,46.797-153.286,39.971-233.091
									c-12.329-143.96-88.369-272.227-208.623-351.907c-69.541-46.111-150.078-72.898-232.905-77.468
									C1541.099,1821.404,1532.305,1821.152,1523.418,1821.152z"/>
							</g>
						</g>
						<g>
							<g>
								<path style="fill:#371A45;" d="M2000.44,2374.045c-128.117,321.623-528.333,415.645-733.453,140.87
									c-139.551-186.941-64.258-467.908,123.87-590.442c136.923-89.182,309.612-116.35,506.12,58.319
									c0,0,75.049,90.757,91.37,173.312c16.32,82.555,18.259,165.599,18.259,165.599L2000.44,2374.045z"/>
							</g>
						</g>
						<g>
							<g>
								<path style="fill:#220F2D;" d="M1267,2514.909c205.108,274.773,605.329,180.743,733.449-140.855l1.24-10.613
									c-230.25,218.158-592.946,232.955-805.503-41.004C1201.316,2390.586,1223.944,2457.213,1267,2514.909z"/>
							</g>
						</g>
						<g>
							<g>
								<path style="fill:#371A45;" d="M1577.529,2739.844c-19.404,0-38.76-1.245-57.939-3.765
									c-121.04-15.894-226.011-79.204-303.574-183.086c-71.367-95.591-98.242-218.086-75.674-344.917
									c24.556-138.003,106.094-263.955,218.125-336.924c62.891-40.962,126.87-66.643,190.151-76.328l1.299-0.2l1.313,0.073
									c87.661,4.839,172.881,33.181,246.455,81.963c127.227,84.299,207.676,219.995,220.718,372.295l0,0
									c7.227,84.443-7.402,169.746-42.305,246.675c-7.393,16.274-15.684,32.227-24.644,47.422
									c-4.043,6.904-8.623,14.253-13.979,22.437c-14.673,22.134-31.104,43.105-48.882,62.397l-1.465,1.357
									C1796.309,2700.942,1686.118,2739.844,1577.529,2739.844z M1551.147,1820.037c-59.277,9.29-119.453,33.618-178.872,72.317
									c-106.279,69.224-183.672,188.906-207.026,320.156c-21.328,119.873,3.901,235.415,71.04,325.347
									c73.384,98.281,172.485,158.149,286.597,173.135c119.453,15.693,246.187-21.108,347.778-100.991
									c16.611-18.101,31.973-37.754,45.679-58.433c5.088-7.764,9.448-14.766,13.296-21.333
									c8.53-14.458,16.401-29.609,23.418-45.059c33.11-72.988,46.992-153.931,40.132-234.063
									c-12.378-144.556-88.73-273.352-209.482-353.362C1714.243,1851.694,1633.862,1824.836,1551.147,1820.037z"/>
							</g>
						</g>
						<g>
							<g>
								
									<ellipse transform="matrix(0.8403 -0.5422 0.5422 0.8403 -1196.9126 1052.7235)" style="fill:#FFFFFF;" cx="1188.055" cy="2557.567" rx="125.872" ry="173.227"/>
							</g>
							<g>
								<path style="fill:#371A45;" d="M1228.755,2732.803c-59.854,0-126.333-41.88-165.615-110.386l0,0
									c-29.79-51.948-38.804-108.975-24.731-156.455c9.663-32.612,29.346-57.324,56.919-71.475
									c68.735-35.249,166.367,8.804,217.642,98.232c29.79,51.943,38.804,108.97,24.736,156.45
									c-9.663,32.612-29.351,57.329-56.929,71.475C1264.702,2728.892,1247.031,2732.803,1228.755,2732.803z M1088.462,2607.896
									c43.633,76.094,123.94,115.044,178.989,86.772c20.308-10.415,34.922-29.014,42.266-53.789
									c11.636-39.282,3.389-89.243-22.07-133.638c-43.638-76.104-123.94-115.02-178.989-86.777
									c-20.308,10.415-34.922,29.019-42.261,53.794C1054.756,2513.54,1063.008,2563.496,1088.462,2607.896L1088.462,2607.896z"/>
							</g>
						</g>
						<g>
							<g>
								
									<ellipse transform="matrix(0.8212 -0.5707 0.5707 0.8212 -1270.7324 1125.1614)" style="fill:#FFFFFF;" cx="1160.044" cy="2590.277" rx="102.562" ry="137.482"/>
							</g>
							<g>
								<path style="fill:#371A45;" d="M1190.776,2718.984c-29.824,0-61.509-13.447-88.735-38.032l0,0
									c-55.674-50.264-75.098-131.816-43.296-181.792c13.169-20.693,33.13-33.398,57.715-36.733
									c33.379-4.497,70.41,9.019,101.587,37.173c55.674,50.269,75.093,131.821,43.296,181.797
									c-13.174,20.693-33.13,33.398-57.715,36.733C1199.395,2718.701,1195.103,2718.984,1190.776,2718.984z M1129.326,2464.619
									c-4.199,0-8.354,0.278-12.456,0.835c-23.667,3.208-42.876,15.435-55.547,35.347
									c-31.04,48.774-11.855,128.574,42.759,177.886l0,0c30.508,27.549,66.606,40.825,99.136,36.416
									c23.667-3.208,42.876-15.43,55.547-35.347c31.035-48.774,11.855-128.579-42.759-177.891
									C1189.341,2477.793,1158.389,2464.619,1129.326,2464.619z"/>
							</g>
						</g>
						<g style="opacity:0.35;">
							<g>
								<path style="fill:#371A45;" d="M1273.059,2592.603c-7.057-25.074-21.016-48.301-38.979-67.33
									c11.278,58.527-21.767,103.991-77.654,103.645c-36.113-0.208-73.457-19.532-101.236-48.992
									c0.687,3.696,1.606,7.47,2.669,11.274c18.001,63.84,80.767,115.91,140.199,116.289
									C1257.489,2707.87,1291.043,2656.411,1273.059,2592.603z"/>
							</g>
						</g>
						<g>
							<g>
								<path style="fill:#371A45;" d="M1195.84,2729.653c-47.324,0.005-100.649-35.229-134.111-93.062l0,0
									c-25.22-43.589-33.525-92.217-22.222-130.083c7.207-24.141,21.714-42.285,41.963-52.471
									c53.696-27.017,129.434,9.985,172.402,84.238c25.215,43.589,33.521,92.222,22.217,130.093
									c-7.207,24.141-21.719,42.28-41.963,52.466C1222.246,2726.812,1209.282,2729.653,1195.84,2729.653z M1119.78,2470.522
									c-9.585,0-18.691,1.973-26.943,6.123c-13.862,6.973-23.921,19.8-29.087,37.1c-9.346,31.318-1.914,72.505,19.883,110.171l0,0
									c35.649,61.626,98.037,94.966,139.126,74.312c13.862-6.973,23.921-19.8,29.087-37.1
									c9.351-31.318,1.919-72.505-19.878-110.176C1203.472,2501.704,1157.891,2470.522,1119.78,2470.522z"/>
							</g>
						</g>
						<g style="opacity:0.5;">
							<g>
								<path style="fill:#FFFFFF;" d="M1344.059,2075.536c0,0,181.021-102.113,341.786-64.323c0.169,0.04,0.338,0.08,0.507,0.12
									c33.829,7.982,64.889,24.983,90.042,48.971c33.264,31.723,51.541,58.457,66.722,82.613
									c46.137,73.485,54.01,116.55,54.01,116.55c17.418-65.071,13.296-123.937-24.527-185.526
									c-3.745-6.062-7.83-12.174-12.221-18.315c-1.007-1.419-2.036-2.802-3.095-4.181c0.023-0.034-0.012-0.057-0.075-0.074
									c-9.769-11.813-23.192-26.854-39.75-42.553c-49.912-47.381-128.207-100.898-220.482-90.61
									C1424.437,1937.443,1333.188,2071.662,1344.059,2075.536z"/>
							</g>
						</g>
						<g style="opacity:0.5;">
							<g>
								
									<ellipse transform="matrix(0.9556 -0.2948 0.2948 0.9556 -630.256 493.7724)" style="fill:#FFFFFF;" cx="1322.603" cy="2337.302" rx="64.748" ry="75.45"/>
							</g>
						</g>
						<g style="opacity:0.5;">
							<g>
								
									<ellipse transform="matrix(0.977 -0.2131 0.2131 0.977 -494.6789 347.1486)" style="fill:#FFFFFF;" cx="1363.015" cy="2468.294" rx="26.736" ry="31.156"/>
							</g>
						</g>
					</g>
				</g>
			</g>
		</g>
		<g>
			<g>
				<g>
					<g>
						<path style="fill:#FFB200;" d="M2789.222,1015.265c-2.419,26.333-6.434,52.424-12.054,78.138
							c-7.823,36.134-18.773,71.506-32.622,105.709c-60.058,148.371-175.048,274.772-332.404,345.938
							c-157.7,71.322-328.977,74.058-480.288,20.84c-33.23-11.698-65.502-26.09-96.426-43.047
							c-24.27-13.271-47.692-28.138-70.156-44.485c158.384-39.834,341.438-104.078,530.888-189.76
							C2485.586,1202.928,2654.715,1107.894,2789.222,1015.265z"/>
					</g>
				</g>
				<g>
					<g>
						<path style="fill:#D66B09;" d="M2296.159,1288.599c189.427-85.671,358.556-180.705,493.063-273.334
							c-2.419,26.333-6.434,52.424-12.054,78.138c-103.513,75.196-268.893,168.038-461.477,255.137
							c-184.464,83.426-356.41,144.631-480.263,174.304c-24.27-13.271-47.692-28.138-70.156-44.485
							C1923.655,1438.525,2106.709,1374.28,2296.159,1288.599z"/>
					</g>
				</g>
				<g>
					<g>
						<path style="fill:#FFB200;" d="M2763.024,765.919c-105.041,84.943-312.51,203.843-560.361,315.952
							c-247.821,112.078-474.159,189.369-607.319,212.14c-13.86-22.65-26.429-46.405-37.646-71.205
							c-0.522-1.168-1.045-2.305-1.567-3.504c-4.886-10.941-9.435-21.941-13.645-33.036c-9.896-25.906-18.009-52.121-24.37-78.457
							c-0.277-1.076-0.523-2.12-0.768-3.196c-9.25-39.183-14.721-78.673-16.503-117.979c-3.472-74.832,6.269-149.049,27.905-219.455
							c16.134-52.427,38.844-102.735,67.702-149.601c65.212-105.871,161.648-194.132,283.499-249.234
							c12.108-5.47,24.278-10.542,36.54-15.211c164.168-62.632,339.954-53.689,490.907,13.091c0.953,0.431,1.906,0.83,2.858,1.29
							c65.489,29.288,126.246,69.577,179.288,119.577c25.938,24.492,50.062,51.321,71.912,80.395
							c2.397,3.133,4.732,6.329,7.068,9.526c1.937,2.612,3.811,5.255,5.686,7.929c15.581,22.189,29.902,45.605,42.809,70.131
							c4.825,9.096,9.435,18.376,13.829,27.78c1.199,2.582,2.397,5.163,3.565,7.776
							C2745.631,715.396,2755.157,740.565,2763.024,765.919z"/>
					</g>
				</g>
				<g>
					<g>
						<path style="fill:#D66B09;" d="M2730.836,682.865c1.215,2.564,2.407,5.139,3.586,7.746
							c11.215,24.796,20.741,49.943,28.597,75.294c-105.028,84.945-312.513,203.857-560.363,315.95
							c-247.827,112.083-474.164,189.373-607.31,212.144c-13.849-22.64-26.441-46.401-37.655-71.197
							c-0.528-1.167-1.045-2.31-1.55-3.487c126.252-13.95,356.649-88.722,609.302-202.988
							C2428.071,897.551,2642.8,768.641,2730.836,682.865z"/>
					</g>
				</g>
				<g>
					<g>
						<path style="fill:#D66B09;" d="M1509.473,1003.472c-3.311,0-6.47-0.078-9.502-0.237l1.719-33.228
							c88.687,4.592,319.912-68.718,562.178-178.281c289.146-130.771,476.206-256.655,511.548-313.416l28.242,17.588
							c-45.01,72.297-261.343,206.414-526.079,326.145C1835.059,931.726,1609.766,1003.472,1509.473,1003.472z"/>
					</g>
				</g>
				<g>
					<g>
						<path style="fill:#D66B09;" d="M1531.191,783.635l-4.893-32.915c99.419-14.766,271.567-73.865,449.268-154.231
							c186.216-84.221,347.441-177.212,420.747-242.686l22.168,24.819c-75.659,67.568-240.117,162.666-429.204,248.184
							C1808.97,708.354,1633.442,768.447,1531.191,783.635z"/>
					</g>
				</g>
				<g>
					<g>
						<path style="fill:#D66B09;" d="M1518.315,1121.243c-0.352,0-0.698-0.002-1.05-0.002l0.166-33.274c0.322,0,0.649,0,0.977,0
							c102.207,0,340.22-76.616,593.066-190.969c266.138-120.366,489.683-255.989,543.613-329.812l26.865,19.629
							c-57.876,79.228-281.626,216.064-556.768,340.5C1868.428,1043.438,1624.878,1121.243,1518.315,1121.243z"/>
					</g>
				</g>
				<g>
					<g>
						<path style="fill:#D66B09;" d="M1932.451,1574.187l-0.591-8.252l-3.12-7.759l1.201-0.479l1.318-0.103
							c87.627-6.313,254.482-60.247,425.078-137.402c171.533-77.578,318.066-164.578,382.412-227.051l11.592,11.938
							c-65.635,63.721-213.979,151.956-387.148,230.273C2188.306,1514.448,2023.257,1567.646,1932.451,1574.187z"/>
					</g>
				</g>
				<g>
					<g>
						<path style="fill:#371A45;" d="M2146.421,1619.739c-138.447,0-276.025-43.14-391.45-127.236l-30.2-22.002l36.235-9.114
							c163.047-41.006,345.605-106.27,527.939-188.733c182.319-82.456,351.88-176.443,490.352-271.802l30.771-21.189l-3.418,37.205
							c-21.812,237.451-170.215,445.95-387.295,544.126C2332.28,1600.374,2239.15,1619.739,2146.421,1619.739z M1806.89,1485.61
							c178.257,114.041,403.989,131.252,598.042,43.494c194.082-87.776,330.205-268.633,362.256-477.8
							c-133.911,89.045-293.403,176.169-463.818,253.24C2132.939,1381.624,1962.188,1443.86,1806.89,1485.61z"/>
					</g>
				</g>
				<g>
					<g>
						<path style="fill:#D66B09;" d="M2771.872,606.361c0.6,1.327,1.063,2.716,1.388,4.167L2771.872,606.361z"/>
					</g>
				</g>
				<g>
					<g>
						<path style="fill:#FFCC4D;" d="M3105.935,622.997c38.981,86.193-89.531,235.82-316.713,392.268
							c-134.507,92.629-303.635,187.663-493.063,273.334c-189.45,85.681-372.504,149.926-530.888,189.76
							c-267.51,67.282-464.714,64.964-503.695-21.229c-35.402-78.278,67.3-208.82,256.536-349.319
							c6.379,26.349,14.482,52.553,24.383,78.467c-52.318,42.784-78.078,76.725-69.129,96.512
							c9.114,20.153,53.072,22.977,121.981,11.21c133.146-22.771,359.483-100.061,607.31-212.144
							c247.85-112.093,455.335-231.005,560.363-315.95c54.319-43.964,81.227-78.838,72.113-98.991
							c-8.938-19.764-51.448-22.857-118.102-11.834c-12.921-24.548-27.247-47.938-42.821-70.128
							C2904.683,535.632,3070.533,544.719,3105.935,622.997z"/>
					</g>
				</g>
				<g>
					<g>
						<path style="fill:#FFEC90;" d="M1503.804,1363.03c-49.683,0.002-87.563-10.31-100.039-37.905
							c-17.852-39.458,22.856-98.928,120.981-176.753l15.508,19.551c-123.062,97.605-118.179,137.129-113.755,146.919
							c15.371,33.975,135.962,36.472,370.698-34.504c129.131-39.082,275.137-94.902,422.222-161.426
							c147.09-66.523,285.415-139.294,400.02-210.444c208.345-129.409,286.104-221.614,270.737-255.588
							c-4.429-9.79-30.869-39.561-185.449-11.604l-4.443-24.556c123.242-22.297,194.775-13.586,212.627,25.876
							c34.707,76.731-160.723,212.795-280.308,287.073c-115.518,71.716-254.834,145.017-402.9,211.982
							c-148.062,66.963-295.117,123.181-425.278,162.573C1718.14,1330.315,1592.271,1363.027,1503.804,1363.03z"/>
					</g>
				</g>
				<g>
					<g>
						<path style="fill:#FFEC90;" d="M1467.725,1450.12c-70.22,0.002-127.729-14.253-146.489-55.735
							c-34.766-76.865,87.119-190.967,195.493-273.152l15.078,19.883c-138.813,105.276-209.033,196.111-187.837,242.986
							c12.568,27.788,59.775,42.373,133.286,41.167c76.299-1.292,179.712-19.312,299.058-52.114
							c147.056-40.408,312.451-101.414,478.301-176.421c165.835-75.002,320.859-158.911,448.315-242.654
							c103.447-67.959,185.278-133.716,236.641-190.161c49.395-54.287,69.678-99.487,57.114-127.275
							c-21.201-46.873-135.776-54.129-306.514-19.412l-4.971-24.453c133.286-27.109,299.468-43.276,334.219,33.582
							c47.104,104.141-196.055,278.464-302.788,348.579c-128.521,84.443-284.731,169.001-451.733,244.534
							c-167.017,75.535-333.682,136.997-481.973,177.744C1708.843,1417.578,1573.799,1450.115,1467.725,1450.12z"/>
					</g>
				</g>
				<g>
					<g>
						<path style="fill:#371A45;" d="M1449.824,1543.113c-109.536,0-180.522-26.431-204.194-78.772
							c-51.855-114.648,141.924-281.392,262.051-370.581l21.216-15.754l6.221,25.686c6.26,25.833,14.238,51.519,23.726,76.338
							l4.507,11.799l-9.775,7.996c-68.833,56.289-64.341,75.588-64.263,75.757c0.073,0.173,11.958,16.731,103.091,1.167
							c135.747-23.215,366.821-104.004,603.042-210.837c236.226-106.834,449.487-227.002,556.567-313.611
							c71.831-58.137,67.256-77.998,67.178-78.174c-0.078-0.171-11.621-16.277-99.302-1.78l-12.461,2.06l-5.884-11.177
							c-12.388-23.54-26.401-46.494-41.655-68.225l-15.19-21.636l25.85-5.53c146.304-31.309,399.478-66.707,451.333,47.944
							c42.002,92.869-75.63,243.728-322.729,413.896c-140.156,96.516-311.597,191.563-495.781,274.863
							c-184.204,83.308-368.799,149.282-533.828,190.789C1642.568,1527.266,1534.639,1543.113,1449.824,1543.113z
							 M1507.832,1137.473c-170.859,130.813-258.774,249.519-230.313,312.444c33.335,73.701,218.594,78.091,483.486,11.47
							c163.047-41.006,345.605-106.27,527.939-188.733c182.319-82.456,351.88-176.443,490.352-271.802
							c224.971-154.927,344.023-296.951,310.688-370.645l0,0c-28.452-62.927-175.649-75.3-386.714-33.386
							c8.203,12.744,15.991,25.798,23.296,39.063c72.715-10.618,112.397-2.961,124.512,23.821
							c12.974,28.687-11.509,66.755-77.051,119.805c-110.894,89.695-321.797,208.679-564.16,318.291
							s-470.986,189.404-611.572,213.447c-83.145,14.197-127.9,7.449-140.874-21.245c-12.114-26.79,8.359-61.648,64.36-109.243
							C1516.65,1166.523,1511.987,1152.053,1507.832,1137.473z"/>
					</g>
				</g>
				<g style="opacity:0.41;">
					<g>
						<g>
							<path style="fill:#FFFFFF;" d="M2763.017,765.899c-12.224,9.892-25.812,20.214-40.726,30.969
								c-6.024-16.985-12.818-33.883-20.354-50.572c-1.194-2.601-2.39-5.164-3.587-7.725c-4.384-9.447-8.985-18.714-13.805-27.801
								c-12.915-24.547-27.265-47.949-42.813-70.143c-1.869-2.667-3.781-5.298-5.694-7.929
								c-23.718-32.727-50.219-62.795-79.01-89.914c-53.788-50.745-115.519-91.467-182.112-120.866
								c-162.22-71.743-353.131-76.744-527.457,2.113c-116.371,52.637-209.584,135.5-274.533,235.126
								c64.439-124.3,169.548-228.638,307.054-290.83c174.322-78.818,365.237-73.856,527.417-2.117
								c66.589,29.439,128.364,70.125,182.148,120.91c28.75,27.116,55.256,57.143,78.974,89.871c1.952,2.635,3.821,5.301,5.69,7.968
								c15.588,22.198,29.902,45.556,42.817,70.103c4.816,9.127,9.417,18.394,13.806,27.801c1.237,2.566,2.434,5.128,3.583,7.766
								C2745.622,715.411,2755.151,740.555,2763.017,765.899z"/>
						</g>
					</g>
				</g>
				<g>
					<g>
						<path style="fill:#371A45;" d="M1586.606,1313.247l-6.187-10.117c-14.263-23.318-27.275-47.917-38.672-73.115
							c-5.591-12.361-10.845-24.983-15.61-37.517c-10.005-26.179-18.428-53.293-25.034-80.569
							c-74.697-308.931,81.606-628.357,371.646-759.531c290.039-131.184,633.13-37.598,815.781,222.498
							c16.108,22.947,30.908,47.183,43.989,72.036c6.235,11.804,12.246,24.084,17.852,36.47v0.002
							c11.406,25.232,21.289,51.248,29.365,77.324l3.506,11.328l-9.219,7.456c-110.889,89.692-321.792,208.677-564.155,318.289
							s-470.986,189.404-611.572,213.447L1586.606,1313.247z M2145.811,328.438c-87.075,0-175.161,18.096-258.638,55.85
							c-274.741,124.253-422.798,426.809-352.051,719.409c6.255,25.83,14.233,51.514,23.721,76.333
							c4.521,11.895,9.497,23.85,14.795,35.562c9.146,20.227,19.39,40.039,30.518,59.048
							c137.085-25.703,361.758-104.922,591.289-208.728c229.536-103.809,437.393-220.21,547.222-306.177
							c-6.919-20.886-15.034-41.663-24.189-61.912v0.002c-5.308-11.736-11.001-23.367-16.919-34.568
							c-12.402-23.567-26.416-46.521-41.67-68.252C2539.448,423.503,2345.332,328.438,2145.811,328.438z"/>
					</g>
				</g>
				<g style="opacity:0.25;">
					<g>
						<path style="fill:#371A45;" d="M2284.514,1293.847c-185.322,83.092-364.117,145.476-519.245,184.511
							c-267.502,67.271-464.728,64.951-503.711-21.227c-35.37-78.289,67.329-208.809,256.54-349.321
							c6.403,26.366,14.506,52.575,24.403,78.476c-52.33,42.765-78.101,76.699-69.139,96.494
							c9.126,20.171,53.092,23.004,121.968,11.232c88.329-15.112,217.675-54.225,367.147-111.574
							c-3.6,19.466-2.022,37.226,5.053,52.868C1996.723,1299.884,2114.716,1317.391,2284.514,1293.847z"/>
					</g>
				</g>
				<g style="opacity:0.3;">
					<g>
						<path style="fill:#293856;" d="M1626.26,573.415c2.428-3.319,4.886-6.639,7.468-9.926
							C1631.177,566.777,1628.688,570.066,1626.26,573.415z"/>
					</g>
				</g>
				<g style="opacity:0.3;">
					<g>
						<path style="fill:#293856;" d="M1642.487,552.272c5.685-7.131,11.555-14.137,17.609-21.02
							C1654.073,538.135,1648.203,545.141,1642.487,552.272z"/>
					</g>
				</g>
				<g style="opacity:0.3;">
					<g>
						<path style="fill:#293856;" d="M1698.111,491.361c-6.3,6.086-12.477,12.263-18.5,18.562
							C1685.634,503.594,1691.811,497.416,1698.111,491.361z"/>
					</g>
				</g>
				<g style="opacity:0.3;">
					<g>
						<path style="fill:#293856;" d="M1708.191,481.866c6.792-6.269,13.737-12.416,20.836-18.378
							C1721.928,469.481,1714.983,475.628,1708.191,481.866z"/>
					</g>
				</g>
				<g style="opacity:0.25;">
					<g>
						<path style="fill:#371A45;" d="M2789.222,1015.265c-2.419,26.333-6.434,52.424-12.054,78.138
							c-7.823,36.134-18.773,71.506-32.622,105.709c-60.058,148.371-175.048,274.772-332.404,345.938
							c-157.7,71.322-328.977,74.058-480.288,20.84c-33.23-11.698-65.502-26.09-96.426-43.047
							c-24.27-13.271-47.692-28.138-70.156-44.485c158.384-39.834,341.438-104.078,530.888-189.76
							C2485.586,1202.928,2654.715,1107.894,2789.222,1015.265z"/>
					</g>
				</g>
				<g style="opacity:0.25;">
					<g>
						<path style="fill:#371A45;" d="M2763.04,765.937c-105.052,84.912-312.539,203.821-560.386,315.922
							c-247.808,112.101-474.146,189.4-607.314,212.159c-13.857-22.638-26.424-46.404-37.622-71.216
							c-0.524-1.168-1.047-2.296-1.571-3.504c-4.914-10.916-9.466-21.953-13.655-33.03c-9.909-25.901-18.005-52.123-24.37-78.467
							c-0.282-1.088-0.524-2.095-0.765-3.182c-9.265-39.193-14.743-78.668-16.515-117.982
							c-3.464-74.842,6.284-149.039,27.915-219.45c16.112-52.446,38.831-102.756,67.712-149.603
							c35.931-58.367,81.367-111.377,135.344-156.411c-15.589,19.697-29.969,40.24-43.06,61.509
							c-28.841,46.847-51.559,97.157-67.672,149.603c-21.631,70.411-31.379,144.608-27.915,219.45
							c1.772,39.314,7.25,78.789,16.515,117.982c0.242,1.088,0.484,2.135,0.765,3.182c0.133,0.549,0.282,1.144,0.447,1.783
							c28.466,110.315,144.216,173.572,252.999,139.719c122.3-38.059,272.285-95.605,431.087-167.443
							c184.204-83.341,346.133-170.388,460.249-244.505C2758.004,750.268,2760.583,758.083,2763.04,765.937z"/>
					</g>
				</g>
			</g>
		</g>
	</g>
</g>
</svg>
